M48
; DRILL file {KiCad (6.0.9)} date Fri May 17 13:17:39 2024
; FORMAT={-:-/ absolute / metric / decimal}
; #@! TF.CreationDate,2024-05-17T13:17:39+09:00
; #@! TF.GenerationSoftware,Kicad,Pcbnew,(6.0.9)
; #@! TF.FileFunction,MixedPlating,1,2
FMAT,2
METRIC
; #@! TA.AperFunction,Plated,PTH,ViaDrill
T1C0.300
; #@! TA.AperFunction,Plated,PTH,ViaDrill
T2C0.400
; #@! TA.AperFunction,Plated,PTH,ComponentDrill
T3C0.700
; #@! TA.AperFunction,Plated,PTH,ComponentDrill
T4C0.800
; #@! TA.AperFunction,Plated,PTH,ComponentDrill
T5C0.900
; #@! TA.AperFunction,Plated,PTH,ComponentDrill
T6C1.000
; #@! TA.AperFunction,Plated,PTH,ComponentDrill
T7C1.016
; #@! TA.AperFunction,Plated,PTH,ComponentDrill
T8C1.100
; #@! TA.AperFunction,Plated,PTH,ComponentDrill
T9C1.190
; #@! TA.AperFunction,Plated,PTH,ComponentDrill
T10C1.300
; #@! TA.AperFunction,NonPlated,NPTH,ComponentDrill
T11C3.200
%
G90
G05
T1
X19.86Y18.5
X21.36Y18.5
X22.395Y19.87
X23.403Y38.8
X24.102Y38.125
X24.294Y19.87
X26.11Y37.7
X37.06Y9.0
X37.06Y8.0
X39.049Y9.0
X39.049Y8.0
X48.351Y22.101
X48.388Y23.0
X51.787Y22.923
X52.01Y24.1
T2
X40.41Y38.424
X49.495Y20.035
X53.314Y43.504
X53.338Y45.528
T3
X17.432Y45.108
X17.432Y42.918
X17.432Y40.728
X25.052Y45.108
X25.052Y42.918
X25.052Y40.728
X30.6Y44.0
X30.6Y41.8
X38.22Y44.0
X38.22Y41.8
X43.608Y45.108
X43.608Y42.918
X43.608Y40.728
X51.228Y45.108
X51.228Y42.918
X51.228Y40.728
T4
X14.902Y36.29
X14.902Y33.75
X14.902Y31.21
X14.902Y28.67
X14.902Y26.13
X14.902Y23.59
X14.902Y21.05
X14.902Y18.51
X27.602Y36.29
X27.602Y33.75
X27.602Y31.21
X27.602Y28.67
X27.602Y26.13
X27.602Y23.59
X27.602Y21.05
X27.602Y18.51
X32.686Y36.253
X32.686Y34.253
X41.078Y36.29
X41.078Y33.75
X41.078Y31.21
X41.078Y28.67
X41.078Y26.13
X41.078Y23.59
X41.078Y21.05
X41.078Y18.51
X53.778Y36.29
X53.778Y33.75
X53.778Y31.21
X53.778Y28.67
X53.778Y26.13
X53.778Y23.59
X53.778Y21.05
X53.778Y18.51
X58.848Y36.253
X58.848Y34.253
T5
X2.795Y24.7
X2.805Y29.34
X5.335Y24.7
X5.345Y29.34
T6
X17.442Y36.29
X19.982Y36.29
X20.805Y29.925
X20.805Y27.385
X20.805Y24.845
X23.345Y29.925
X23.345Y27.385
X23.345Y24.845
X43.618Y36.29
X46.158Y36.29
X46.955Y29.925
X46.955Y27.385
X46.955Y24.845
X49.495Y29.925
X49.495Y27.385
X49.495Y24.845
X60.96Y46.217
X60.96Y43.677
X63.5Y46.217
X63.5Y43.677
X63.545Y17.715
X63.545Y15.175
X63.545Y12.635
X66.085Y17.715
X66.085Y15.175
X66.085Y12.635
T7
X23.876Y50.79
X26.416Y50.79
X28.956Y50.79
X31.496Y50.79
X33.02Y2.53
X34.036Y50.79
X35.56Y2.53
X36.576Y50.79
X38.1Y2.53
X39.116Y50.79
X40.64Y2.53
X41.656Y50.79
X43.18Y2.53
X45.72Y50.79
X45.72Y2.53
X48.26Y50.79
X50.8Y50.79
X50.8Y2.53
X53.34Y50.79
X53.34Y2.53
X55.88Y50.79
X55.88Y2.53
X58.42Y50.79
X58.42Y2.53
X60.96Y50.79
X60.96Y2.53
X63.5Y50.79
X63.5Y2.53
T8
X22.41Y7.03
X22.41Y2.53
X28.91Y7.03
X28.91Y2.53
T9
X3.24Y47.78
X5.78Y47.78
X8.32Y47.78
X14.79Y11.92
X17.33Y11.92
X32.84Y28.81
X32.84Y26.27
X32.84Y23.73
X32.84Y21.19
X58.98Y28.788
X58.98Y26.248
X58.98Y23.708
X58.98Y21.168
T10
X3.48Y13.65
X8.48Y13.65
T11
X13.97Y2.53
X15.24Y50.79
X66.04Y35.55
X66.04Y7.61
T0
M30
