%TF.GenerationSoftware,KiCad,Pcbnew,(6.0.9)*%
%TF.CreationDate,2024-05-17T13:17:35+09:00*%
%TF.ProjectId,DrawingBot-shield,44726177-696e-4674-926f-742d73686965,rev?*%
%TF.SameCoordinates,PX280b770PYa6e49c0*%
%TF.FileFunction,Legend,Bot*%
%TF.FilePolarity,Positive*%
%FSLAX46Y46*%
G04 Gerber Fmt 4.6, Leading zero omitted, Abs format (unit mm)*
G04 Created by KiCad (PCBNEW (6.0.9)) date 2024-05-17 13:17:35*
%MOMM*%
%LPD*%
G01*
G04 APERTURE LIST*
%ADD10C,0.200000*%
%ADD11C,0.150000*%
%ADD12C,0.120000*%
G04 APERTURE END LIST*
D10*
X7822857Y11114286D02*
X9022857Y10714286D01*
X7822857Y10314286D01*
X9022857Y9914286D02*
X7822857Y9914286D01*
X9022857Y9342858D02*
X7822857Y9342858D01*
X9022857Y8657143D01*
X7822857Y8657143D01*
D11*
%TO.C,A1*%
X64022261Y48866667D02*
X63546071Y49200000D01*
X64022261Y49438096D02*
X63022261Y49438096D01*
X63022261Y49057143D01*
X63069881Y48961905D01*
X63117500Y48914286D01*
X63212738Y48866667D01*
X63355595Y48866667D01*
X63450833Y48914286D01*
X63498452Y48961905D01*
X63546071Y49057143D01*
X63546071Y49438096D01*
X63022261Y48533334D02*
X64022261Y47866667D01*
X63022261Y47866667D02*
X64022261Y48533334D01*
%TO.C,kibuzzard-65E6A498*%
G36*
X38099881Y3952267D02*
G01*
X37207388Y4547262D01*
X37207388Y4785388D01*
X37445513Y4785388D01*
X38740914Y5170197D01*
X38740914Y5469283D01*
X37445513Y5854093D01*
X37445513Y5606443D01*
X38455163Y5324503D01*
X38455163Y5314978D01*
X37445513Y5033037D01*
X37445513Y4785388D01*
X37207388Y4785388D01*
X37207388Y6088408D01*
X37445513Y6088408D01*
X37647444Y6088408D01*
X37651254Y6610378D01*
X37887473Y6629428D01*
X37883663Y6545608D01*
X37891283Y6425593D01*
X37915334Y6292957D01*
X37953196Y6192230D01*
X38007489Y6119364D01*
X38080831Y6070310D01*
X38177272Y6042449D01*
X38300859Y6033163D01*
X38453973Y6045307D01*
X38570416Y6081740D01*
X38654712Y6145796D01*
X38711386Y6240808D01*
X38743533Y6371300D01*
X38754249Y6541798D01*
X38749962Y6648001D01*
X38737104Y6738013D01*
X38713291Y6822309D01*
X38676144Y6911368D01*
X38438019Y6911368D01*
X38489930Y6799211D01*
X38523744Y6706580D01*
X38542317Y6622998D01*
X38548509Y6537988D01*
X38534459Y6410353D01*
X38492311Y6328438D01*
X38414920Y6284146D01*
X38295144Y6269383D01*
X38209657Y6279622D01*
X38151316Y6310340D01*
X38115359Y6366299D01*
X38097024Y6452263D01*
X38091308Y6555133D01*
X38094695Y6641069D01*
X38104855Y6749019D01*
X38121788Y6878983D01*
X37445513Y6821833D01*
X37445513Y6088408D01*
X37207388Y6088408D01*
X37207388Y7149493D01*
X38992374Y7149493D01*
X38992374Y4547263D01*
X38099881Y3952267D01*
G37*
%TO.C,kibuzzard-65E6A4A7*%
G36*
X40639881Y3952267D02*
G01*
X39735958Y4554883D01*
X39735958Y5541672D01*
X39985513Y5541672D01*
X39987895Y5438802D01*
X39995038Y5347362D01*
X40014088Y5213483D01*
X40043298Y5101406D01*
X40082668Y5011130D01*
X40166250Y4909451D01*
X40283646Y4842537D01*
X40384928Y4815021D01*
X40509706Y4798511D01*
X40657978Y4793008D01*
X40813024Y4799357D01*
X40942882Y4818408D01*
X41047551Y4850157D01*
X41165899Y4926834D01*
X41244718Y5042562D01*
X41277527Y5145221D01*
X41297212Y5272856D01*
X41303773Y5425467D01*
X41302080Y5525586D01*
X41297000Y5637981D01*
X41288534Y5762652D01*
X39993133Y5762652D01*
X39987418Y5646447D01*
X39985513Y5541672D01*
X39735958Y5541672D01*
X39735958Y5949342D01*
X39993133Y5949342D01*
X41288534Y5949342D01*
X41288534Y6246523D01*
X40273168Y6711342D01*
X40273168Y6717058D01*
X40543678Y6690387D01*
X41288534Y6690387D01*
X41288534Y6924703D01*
X39993133Y6924703D01*
X39993133Y6627523D01*
X41008499Y6162702D01*
X41008499Y6156987D01*
X40737988Y6183657D01*
X39993133Y6183657D01*
X39993133Y5949342D01*
X39735958Y5949342D01*
X39735958Y7564783D01*
X39974083Y7564783D01*
X39982656Y7407144D01*
X40008373Y7288558D01*
X40054093Y7203071D01*
X40122673Y7144730D01*
X40219828Y7109249D01*
X40351273Y7092343D01*
X40351273Y7328563D01*
X40249356Y7357138D01*
X40198873Y7428575D01*
X40183633Y7562878D01*
X40194111Y7655746D01*
X40225543Y7724803D01*
X40281741Y7773618D01*
X40366513Y7805765D01*
X40486052Y7823624D01*
X40646548Y7829578D01*
X40803473Y7822910D01*
X40919916Y7802908D01*
X41002069Y7767427D01*
X41056123Y7714325D01*
X41086127Y7639316D01*
X41096129Y7538113D01*
X41087556Y7420955D01*
X41058028Y7326658D01*
X40766563Y7326658D01*
X40766563Y7595263D01*
X40558918Y7595263D01*
X40558918Y7096153D01*
X41204713Y7096153D01*
X41254243Y7214739D01*
X41284724Y7315228D01*
X41300440Y7415240D01*
X41305679Y7532398D01*
X41299011Y7662573D01*
X41279008Y7771158D01*
X41245671Y7858153D01*
X41165185Y7956022D01*
X41043741Y8021030D01*
X40935897Y8048018D01*
X40801594Y8064210D01*
X40640833Y8069608D01*
X40479014Y8064528D01*
X40344077Y8049288D01*
X40236021Y8023888D01*
X40114577Y7962689D01*
X40034091Y7870535D01*
X40000753Y7788726D01*
X39980751Y7686808D01*
X39974083Y7564783D01*
X39735958Y7564783D01*
X39735958Y8307733D01*
X41543804Y8307733D01*
X41543804Y4554883D01*
X40639881Y3952267D01*
G37*
G36*
X41094223Y5368317D02*
G01*
X41078031Y5253541D01*
X41044693Y5168292D01*
X40989687Y5108047D01*
X40908486Y5068280D01*
X40795377Y5046134D01*
X40644643Y5038752D01*
X40502007Y5045896D01*
X40394136Y5067327D01*
X40315555Y5105666D01*
X40260786Y5163530D01*
X40225305Y5245207D01*
X40204588Y5354983D01*
X40197445Y5444517D01*
X40195063Y5518812D01*
X41088508Y5518812D01*
X41094223Y5368317D01*
G37*
%TO.C,kibuzzard-65E6A4BF*%
G36*
X43179881Y3952267D02*
G01*
X42275958Y4554883D01*
X42275958Y5541672D01*
X42525513Y5541672D01*
X42527895Y5438802D01*
X42535038Y5347362D01*
X42554088Y5213483D01*
X42583298Y5101406D01*
X42622668Y5011130D01*
X42706250Y4909451D01*
X42823646Y4842537D01*
X42924928Y4815021D01*
X43049706Y4798511D01*
X43197978Y4793008D01*
X43353024Y4799357D01*
X43482882Y4818408D01*
X43587551Y4850157D01*
X43705899Y4926834D01*
X43784718Y5042562D01*
X43817527Y5145221D01*
X43837212Y5272856D01*
X43843773Y5425467D01*
X43842080Y5525586D01*
X43837000Y5637981D01*
X43828534Y5762652D01*
X42533133Y5762652D01*
X42527418Y5646447D01*
X42525513Y5541672D01*
X42275958Y5541672D01*
X42275958Y5949342D01*
X42533133Y5949342D01*
X43828534Y5949342D01*
X43828534Y6246523D01*
X42813168Y6711342D01*
X42813168Y6717058D01*
X43083678Y6690387D01*
X43828534Y6690387D01*
X43828534Y6924703D01*
X42533133Y6924703D01*
X42533133Y6627523D01*
X43548499Y6162702D01*
X43548499Y6156987D01*
X43277988Y6183657D01*
X42533133Y6183657D01*
X42533133Y5949342D01*
X42275958Y5949342D01*
X42275958Y7564783D01*
X42514083Y7564783D01*
X42522656Y7407144D01*
X42548373Y7288558D01*
X42594093Y7203071D01*
X42662673Y7144730D01*
X42759828Y7109249D01*
X42891273Y7092343D01*
X42891273Y7328563D01*
X42789356Y7357138D01*
X42738873Y7428575D01*
X42723633Y7562878D01*
X42734111Y7655746D01*
X42765543Y7724803D01*
X42821741Y7773618D01*
X42906513Y7805765D01*
X43026052Y7823624D01*
X43186548Y7829578D01*
X43343473Y7822910D01*
X43459916Y7802908D01*
X43542069Y7767427D01*
X43596123Y7714325D01*
X43626127Y7639316D01*
X43636129Y7538113D01*
X43627556Y7420955D01*
X43598028Y7326658D01*
X43306563Y7326658D01*
X43306563Y7595263D01*
X43098918Y7595263D01*
X43098918Y7096153D01*
X43744713Y7096153D01*
X43794243Y7214739D01*
X43824724Y7315228D01*
X43840440Y7415240D01*
X43845679Y7532398D01*
X43839011Y7662573D01*
X43819008Y7771158D01*
X43785671Y7858153D01*
X43705185Y7956022D01*
X43583741Y8021030D01*
X43475897Y8048018D01*
X43341594Y8064210D01*
X43180833Y8069608D01*
X43019014Y8064528D01*
X42884077Y8049288D01*
X42776021Y8023888D01*
X42654577Y7962689D01*
X42574091Y7870535D01*
X42540753Y7788726D01*
X42520751Y7686808D01*
X42514083Y7564783D01*
X42275958Y7564783D01*
X42275958Y8307733D01*
X44083804Y8307733D01*
X44083804Y4554883D01*
X43179881Y3952267D01*
G37*
G36*
X43634223Y5368317D02*
G01*
X43618031Y5253541D01*
X43584693Y5168292D01*
X43529687Y5108047D01*
X43448486Y5068280D01*
X43335377Y5046134D01*
X43184643Y5038752D01*
X43042007Y5045896D01*
X42934136Y5067327D01*
X42855555Y5105666D01*
X42800786Y5163530D01*
X42765305Y5245207D01*
X42744588Y5354983D01*
X42737445Y5444517D01*
X42735063Y5518812D01*
X43628508Y5518812D01*
X43634223Y5368317D01*
G37*
%TO.C,kibuzzard-6646C4C5*%
G36*
X2367140Y49425452D02*
G01*
X2367140Y49756181D01*
X2702631Y49756181D01*
X3782131Y49756181D01*
X3782131Y49943506D01*
X3236031Y49943506D01*
X2955044Y49924456D01*
X2955044Y49930806D01*
X3421769Y50097494D01*
X3421769Y50257832D01*
X2955044Y50424519D01*
X2955044Y50430869D01*
X3236031Y50411819D01*
X3782131Y50411819D01*
X3782131Y50599144D01*
X2702631Y50599144D01*
X2702631Y50359431D01*
X3220156Y50186394D01*
X3220156Y50168931D01*
X2702631Y49992719D01*
X2702631Y49756181D01*
X2367140Y49756181D01*
X2367140Y50665819D01*
X2702631Y50665819D01*
X3782131Y50794406D01*
X3782131Y51005544D01*
X2842331Y51127781D01*
X2842331Y51134131D01*
X3782131Y51257956D01*
X3782131Y51467506D01*
X2702631Y51596094D01*
X2702631Y51421469D01*
X3551944Y51359556D01*
X3551944Y51357969D01*
X3355094Y51346857D01*
X2702631Y51245256D01*
X2702631Y51016656D01*
X3355094Y50918231D01*
X3551944Y50905531D01*
X3551944Y50903944D01*
X2702631Y50840444D01*
X2702631Y50665819D01*
X2367140Y50665819D01*
X2367140Y52191407D01*
X2697869Y52191407D01*
X2701308Y52068199D01*
X2711627Y51965276D01*
X2728825Y51882638D01*
X2770695Y51789769D01*
X2834394Y51728650D01*
X2924484Y51694717D01*
X3045531Y51683406D01*
X3164991Y51693130D01*
X3253494Y51722300D01*
X3316002Y51774886D01*
X3357475Y51854856D01*
X3374673Y51925941D01*
X3384992Y52014312D01*
X3388431Y52119969D01*
X3388431Y52235857D01*
X3782131Y52235857D01*
X3782131Y52439056D01*
X2702631Y52439056D01*
X2697869Y52191407D01*
X2367140Y52191407D01*
X2367140Y52769786D01*
X4112860Y52769786D01*
X4112860Y49425452D01*
X2367140Y49425452D01*
G37*
G36*
X3212219Y52135844D02*
G01*
X3208250Y52048531D01*
X3196344Y51983444D01*
X3143956Y51907244D01*
X3039181Y51885019D01*
X2939169Y51910419D01*
X2889162Y51995350D01*
X2877852Y52067383D01*
X2874081Y52164419D01*
X2874081Y52235857D01*
X3212219Y52235857D01*
X3212219Y52135844D01*
G37*
%TO.C,kibuzzard-65E68EEA*%
G36*
X4903965Y49404021D02*
G01*
X4903965Y49734750D01*
X5234694Y49734750D01*
X6314194Y50055425D01*
X6314194Y50304662D01*
X5234694Y50625337D01*
X5234694Y50418962D01*
X6076069Y50184013D01*
X6076069Y50176075D01*
X5234694Y49941125D01*
X5234694Y49734750D01*
X4903965Y49734750D01*
X4903965Y50820600D01*
X5234694Y50820600D01*
X5402969Y50820600D01*
X5406144Y51255575D01*
X5602994Y51271450D01*
X5599819Y51201600D01*
X5606169Y51101587D01*
X5626211Y50991058D01*
X5657763Y50907119D01*
X5703006Y50846397D01*
X5764125Y50805519D01*
X5844492Y50782302D01*
X5947481Y50774562D01*
X6075077Y50784683D01*
X6172113Y50815044D01*
X6242359Y50868423D01*
X6289588Y50947600D01*
X6316377Y51056344D01*
X6325306Y51198425D01*
X6321734Y51286928D01*
X6311019Y51361937D01*
X6291175Y51432184D01*
X6260219Y51506400D01*
X6061781Y51506400D01*
X6105041Y51412936D01*
X6133219Y51335744D01*
X6148697Y51266092D01*
X6153856Y51195250D01*
X6142148Y51088887D01*
X6107025Y51020625D01*
X6042533Y50983716D01*
X5942719Y50971412D01*
X5871480Y50979945D01*
X5822862Y51005544D01*
X5792898Y51052177D01*
X5777619Y51123812D01*
X5772856Y51209538D01*
X5775678Y51281151D01*
X5784145Y51371110D01*
X5798256Y51479412D01*
X5234694Y51431788D01*
X5234694Y50820600D01*
X4903965Y50820600D01*
X4903965Y51837129D01*
X6656035Y51837129D01*
X6656035Y49404021D01*
X4903965Y49404021D01*
G37*
%TO.C,kibuzzard-65E68EF2*%
G36*
X7434440Y49404021D02*
G01*
X7434440Y50358637D01*
X7774694Y50358637D01*
X7776678Y50272912D01*
X7782631Y50196712D01*
X7798506Y50085147D01*
X7822848Y49991749D01*
X7855656Y49916519D01*
X7925308Y49831786D01*
X8023137Y49776025D01*
X8107540Y49753094D01*
X8211521Y49739336D01*
X8335081Y49734750D01*
X8464286Y49740042D01*
X8572501Y49755917D01*
X8659725Y49782375D01*
X8758348Y49846272D01*
X8824031Y49942712D01*
X8851372Y50028261D01*
X8867776Y50134624D01*
X8873244Y50261800D01*
X8871833Y50345232D01*
X8867599Y50438894D01*
X8860544Y50542787D01*
X7781044Y50542787D01*
X7776281Y50445950D01*
X7774694Y50358637D01*
X7434440Y50358637D01*
X7434440Y50698363D01*
X7781044Y50698363D01*
X8860544Y50698363D01*
X8860544Y50946013D01*
X8014406Y51333362D01*
X8014406Y51338125D01*
X8239831Y51315900D01*
X8860544Y51315900D01*
X8860544Y51511163D01*
X7781044Y51511163D01*
X7781044Y51263513D01*
X8627181Y50876162D01*
X8627181Y50871400D01*
X8401756Y50893625D01*
X7781044Y50893625D01*
X7781044Y50698363D01*
X7434440Y50698363D01*
X7434440Y52044563D01*
X7765169Y52044563D01*
X7772312Y51913197D01*
X7793744Y51814375D01*
X7831844Y51743136D01*
X7888994Y51694519D01*
X7969956Y51664952D01*
X8079494Y51650863D01*
X8079494Y51847713D01*
X7994562Y51871525D01*
X7952494Y51931056D01*
X7939794Y52042975D01*
X7948525Y52120366D01*
X7974719Y52177913D01*
X8021550Y52218592D01*
X8092194Y52245381D01*
X8191809Y52260264D01*
X8325556Y52265225D01*
X8456327Y52259669D01*
X8553363Y52243000D01*
X8621823Y52213433D01*
X8666869Y52169181D01*
X8691872Y52106673D01*
X8700206Y52022338D01*
X8693062Y51924706D01*
X8668456Y51846125D01*
X8425569Y51846125D01*
X8425569Y52069963D01*
X8252531Y52069963D01*
X8252531Y51654038D01*
X8790694Y51654038D01*
X8831969Y51752859D01*
X8857369Y51836600D01*
X8870466Y51919944D01*
X8874831Y52017575D01*
X8869275Y52126054D01*
X8852606Y52216542D01*
X8824825Y52289038D01*
X8757753Y52370595D01*
X8656550Y52424769D01*
X8566680Y52447258D01*
X8454761Y52460752D01*
X8320794Y52465250D01*
X8185944Y52461017D01*
X8073497Y52448317D01*
X7983450Y52427150D01*
X7882247Y52376152D01*
X7815175Y52299356D01*
X7787394Y52231182D01*
X7770725Y52146251D01*
X7765169Y52044563D01*
X7434440Y52044563D01*
X7434440Y52795979D01*
X9205560Y52795979D01*
X9205560Y49404021D01*
X7434440Y49404021D01*
G37*
G36*
X8698619Y50214175D02*
G01*
X8685125Y50118528D01*
X8657344Y50047487D01*
X8611505Y49997283D01*
X8543837Y49964144D01*
X8449580Y49945689D01*
X8323969Y49939537D01*
X8205105Y49945491D01*
X8115212Y49963350D01*
X8049728Y49995298D01*
X8004087Y50043519D01*
X7974520Y50111583D01*
X7957256Y50203062D01*
X7951303Y50277675D01*
X7949319Y50339588D01*
X8693856Y50339588D01*
X8698619Y50214175D01*
G37*
%TO.C,kibuzzard-6646C366*%
G36*
X27505851Y40181567D02*
G01*
X31359772Y40181567D01*
X31814149Y39500000D01*
X31359772Y38818433D01*
X27505851Y38818433D01*
X27505851Y38963425D01*
X27638142Y38963425D01*
X28233455Y38963425D01*
X28233455Y39139638D01*
X28035017Y39139638D01*
X28035017Y39488887D01*
X28469992Y39488887D01*
X28475284Y39359683D01*
X28491159Y39251468D01*
X28517617Y39164244D01*
X28581514Y39065620D01*
X28677955Y38999937D01*
X28763503Y38972597D01*
X28869866Y38956193D01*
X28997042Y38950725D01*
X29080474Y38952136D01*
X29174137Y38956369D01*
X29278030Y38963425D01*
X30359117Y38963425D01*
X30584542Y38963425D01*
X30790917Y39344425D01*
X30795680Y39344425D01*
X31002055Y38963425D01*
X31227480Y38963425D01*
X30903630Y39526987D01*
X31211605Y40046100D01*
X30989355Y40046100D01*
X30795680Y39690500D01*
X30790917Y39690500D01*
X30600417Y40046100D01*
X30374992Y40046100D01*
X30682967Y39526987D01*
X30359117Y38963425D01*
X29278030Y38963425D01*
X29278030Y39349188D01*
X29538380Y39349188D01*
X30141630Y39349188D01*
X30141630Y39523812D01*
X29538380Y39523812D01*
X29538380Y39349188D01*
X29278030Y39349188D01*
X29278030Y40042925D01*
X29181192Y40047688D01*
X29093880Y40049275D01*
X29008155Y40047291D01*
X28931955Y40041337D01*
X28820389Y40025463D01*
X28726991Y40001121D01*
X28651761Y39968313D01*
X28567028Y39898661D01*
X28511267Y39800831D01*
X28488337Y39716429D01*
X28474578Y39612448D01*
X28469992Y39488887D01*
X28035017Y39488887D01*
X28035017Y39866713D01*
X28222342Y39866713D01*
X28222342Y40042925D01*
X27649255Y40042925D01*
X27649255Y39866713D01*
X27836580Y39866713D01*
X27836580Y39139638D01*
X27638142Y39139638D01*
X27638142Y38963425D01*
X27505851Y38963425D01*
X27505851Y40181567D01*
G37*
G36*
X29074830Y39130112D02*
G01*
X28949417Y39125350D01*
X28853770Y39138844D01*
X28782730Y39166625D01*
X28732525Y39212464D01*
X28699386Y39280131D01*
X28680931Y39374389D01*
X28674780Y39500000D01*
X28680733Y39618864D01*
X28698592Y39708756D01*
X28730541Y39774241D01*
X28778761Y39819881D01*
X28846825Y39849448D01*
X28938305Y39866713D01*
X29012917Y39872666D01*
X29074830Y39874650D01*
X29074830Y39130112D01*
G37*
%TO.C,kibuzzard-6646BEC2*%
G36*
X36511407Y39500000D02*
G01*
X36965785Y40181567D01*
X40808593Y40181567D01*
X40808593Y38818433D01*
X36965785Y38818433D01*
X36869124Y38963425D01*
X37098076Y38963425D01*
X37693389Y38963425D01*
X37693389Y39139638D01*
X37494951Y39139638D01*
X37494951Y39488887D01*
X37929926Y39488887D01*
X37935218Y39359683D01*
X37951093Y39251468D01*
X37977551Y39164244D01*
X38041448Y39065620D01*
X38137889Y38999937D01*
X38223437Y38972597D01*
X38329800Y38956193D01*
X38456976Y38950725D01*
X38540408Y38952136D01*
X38634071Y38956369D01*
X38737964Y38963425D01*
X38737964Y39349188D01*
X38998314Y39349188D01*
X39601564Y39349188D01*
X39601564Y39523812D01*
X38998314Y39523812D01*
X38998314Y39349188D01*
X38737964Y39349188D01*
X38737964Y40042925D01*
X38673412Y40046100D01*
X39826989Y40046100D01*
X40150839Y39403162D01*
X40150839Y38963425D01*
X40354039Y38963425D01*
X40354039Y39403162D01*
X40676301Y40046100D01*
X40457226Y40046100D01*
X40255614Y39603188D01*
X40247676Y39603188D01*
X40044476Y40046100D01*
X39826989Y40046100D01*
X38673412Y40046100D01*
X38641126Y40047688D01*
X38553814Y40049275D01*
X38468089Y40047291D01*
X38391889Y40041337D01*
X38280323Y40025463D01*
X38186925Y40001121D01*
X38111695Y39968313D01*
X38026962Y39898661D01*
X37971201Y39800831D01*
X37948271Y39716429D01*
X37934513Y39612448D01*
X37929926Y39488887D01*
X37494951Y39488887D01*
X37494951Y39866713D01*
X37682276Y39866713D01*
X37682276Y40042925D01*
X37109189Y40042925D01*
X37109189Y39866713D01*
X37296514Y39866713D01*
X37296514Y39139638D01*
X37098076Y39139638D01*
X37098076Y38963425D01*
X36869124Y38963425D01*
X36511407Y39500000D01*
G37*
G36*
X38534764Y39130112D02*
G01*
X38409351Y39125350D01*
X38313705Y39138844D01*
X38242664Y39166625D01*
X38192459Y39212464D01*
X38159320Y39280131D01*
X38140865Y39374389D01*
X38134714Y39500000D01*
X38140667Y39618864D01*
X38158526Y39708756D01*
X38190475Y39774241D01*
X38238695Y39819881D01*
X38306759Y39849448D01*
X38398239Y39866713D01*
X38472851Y39872666D01*
X38534764Y39874650D01*
X38534764Y39130112D01*
G37*
%TO.C,kibuzzard-6646A0B8*%
G36*
X50766256Y24629800D02*
G01*
X50766256Y26614175D01*
X50964694Y26614175D01*
X52044194Y26934850D01*
X52044194Y27184087D01*
X50964694Y27504762D01*
X50964694Y27298387D01*
X51806069Y27063437D01*
X51806069Y27055500D01*
X50964694Y26820550D01*
X50964694Y26614175D01*
X50766256Y26614175D01*
X50766256Y27700025D01*
X50964694Y27700025D01*
X51132969Y27700025D01*
X51136144Y28135000D01*
X51332994Y28150875D01*
X51329819Y28081025D01*
X51336169Y27981012D01*
X51356211Y27870483D01*
X51387763Y27786544D01*
X51433006Y27725822D01*
X51494125Y27684944D01*
X51574492Y27661727D01*
X51677481Y27653987D01*
X51805077Y27664108D01*
X51902113Y27694469D01*
X51972359Y27747848D01*
X52019588Y27827025D01*
X52046377Y27935769D01*
X52055306Y28077850D01*
X52051734Y28166353D01*
X52041019Y28241362D01*
X52021175Y28311609D01*
X51990219Y28385825D01*
X51791781Y28385825D01*
X51835041Y28292361D01*
X51863219Y28215169D01*
X51878697Y28145517D01*
X51883856Y28074675D01*
X51872148Y27968312D01*
X51837025Y27900050D01*
X51772533Y27863141D01*
X51672719Y27850837D01*
X51601480Y27859370D01*
X51552862Y27884969D01*
X51522898Y27931602D01*
X51507619Y28003237D01*
X51502856Y28088962D01*
X51505678Y28160576D01*
X51514145Y28250535D01*
X51528256Y28358837D01*
X50964694Y28311212D01*
X50964694Y27700025D01*
X50766256Y27700025D01*
X50766256Y30370200D01*
X52253744Y30370200D01*
X52253744Y24629800D01*
X50766256Y24629800D01*
G37*
G36*
X24666256Y24429800D02*
G01*
X24666256Y26414175D01*
X24864694Y26414175D01*
X25944194Y26734850D01*
X25944194Y26984087D01*
X24864694Y27304762D01*
X24864694Y27098387D01*
X25706069Y26863437D01*
X25706069Y26855500D01*
X24864694Y26620550D01*
X24864694Y26414175D01*
X24666256Y26414175D01*
X24666256Y27500025D01*
X24864694Y27500025D01*
X25032969Y27500025D01*
X25036144Y27935000D01*
X25232994Y27950875D01*
X25229819Y27881025D01*
X25236169Y27781012D01*
X25256211Y27670483D01*
X25287763Y27586544D01*
X25333006Y27525822D01*
X25394125Y27484944D01*
X25474492Y27461727D01*
X25577481Y27453987D01*
X25705077Y27464108D01*
X25802113Y27494469D01*
X25872359Y27547848D01*
X25919588Y27627025D01*
X25946377Y27735769D01*
X25955306Y27877850D01*
X25951734Y27966353D01*
X25941019Y28041362D01*
X25921175Y28111609D01*
X25890219Y28185825D01*
X25691781Y28185825D01*
X25735041Y28092361D01*
X25763219Y28015169D01*
X25778697Y27945517D01*
X25783856Y27874675D01*
X25772148Y27768312D01*
X25737025Y27700050D01*
X25672533Y27663141D01*
X25572719Y27650837D01*
X25501480Y27659370D01*
X25452862Y27684969D01*
X25422898Y27731602D01*
X25407619Y27803237D01*
X25402856Y27888962D01*
X25405678Y27960576D01*
X25414145Y28050535D01*
X25428256Y28158837D01*
X24864694Y28111212D01*
X24864694Y27500025D01*
X24666256Y27500025D01*
X24666256Y30170200D01*
X26153744Y30170200D01*
X26153744Y24429800D01*
X24666256Y24429800D01*
G37*
%TO.C,kibuzzard-6646A056*%
G36*
X48460819Y35930112D02*
G01*
X48335406Y35925350D01*
X48239759Y35938844D01*
X48168719Y35966625D01*
X48118514Y36012464D01*
X48085375Y36080131D01*
X48066920Y36174389D01*
X48060769Y36300000D01*
X48066722Y36418864D01*
X48084581Y36508756D01*
X48116530Y36574241D01*
X48164750Y36619881D01*
X48232814Y36649448D01*
X48324294Y36666713D01*
X48398906Y36672666D01*
X48460819Y36674650D01*
X48460819Y35930112D01*
G37*
G36*
X47525252Y37180004D02*
G01*
X48994748Y37180004D01*
X48994748Y35419996D01*
X47525252Y35419996D01*
X47525252Y36288887D01*
X47855981Y36288887D01*
X47861273Y36159683D01*
X47877148Y36051468D01*
X47903606Y35964244D01*
X47967503Y35865620D01*
X48063944Y35799937D01*
X48149492Y35772597D01*
X48255855Y35756193D01*
X48383031Y35750725D01*
X48466463Y35752136D01*
X48560126Y35756369D01*
X48664019Y35763425D01*
X48664019Y36842925D01*
X48567181Y36847688D01*
X48479869Y36849275D01*
X48394144Y36847291D01*
X48317944Y36841337D01*
X48206378Y36825463D01*
X48112980Y36801121D01*
X48037750Y36768313D01*
X47953017Y36698661D01*
X47897256Y36600831D01*
X47874326Y36516429D01*
X47860567Y36412448D01*
X47855981Y36288887D01*
X47525252Y36288887D01*
X47525252Y37180004D01*
G37*
G36*
X21375252Y37130004D02*
G01*
X22844748Y37130004D01*
X22844748Y35369996D01*
X21375252Y35369996D01*
X21375252Y36238887D01*
X21705981Y36238887D01*
X21711273Y36109683D01*
X21727148Y36001468D01*
X21753606Y35914244D01*
X21817503Y35815620D01*
X21913944Y35749937D01*
X21999492Y35722597D01*
X22105855Y35706193D01*
X22233031Y35700725D01*
X22316463Y35702136D01*
X22410126Y35706369D01*
X22514019Y35713425D01*
X22514019Y36792925D01*
X22417181Y36797688D01*
X22329869Y36799275D01*
X22244144Y36797291D01*
X22167944Y36791337D01*
X22056378Y36775463D01*
X21962980Y36751121D01*
X21887750Y36718313D01*
X21803017Y36648661D01*
X21747256Y36550831D01*
X21724326Y36466429D01*
X21710567Y36362448D01*
X21705981Y36238887D01*
X21375252Y36238887D01*
X21375252Y37130004D01*
G37*
G36*
X22310819Y35880112D02*
G01*
X22185406Y35875350D01*
X22089759Y35888844D01*
X22018719Y35916625D01*
X21968514Y35962464D01*
X21935375Y36030131D01*
X21916920Y36124389D01*
X21910769Y36250000D01*
X21916722Y36368864D01*
X21934581Y36458756D01*
X21966530Y36524241D01*
X22014750Y36569881D01*
X22082814Y36599448D01*
X22174294Y36616713D01*
X22248906Y36622666D01*
X22310819Y36624650D01*
X22310819Y35880112D01*
G37*
D12*
%TO.C,JP2*%
X35710000Y38100000D02*
G75*
G03*
X36410000Y38800000I0J700000D01*
G01*
X34410000Y38800000D02*
G75*
G03*
X35110000Y38100000I700000J0D01*
G01*
X35110000Y40900000D02*
G75*
G03*
X34410000Y40200000I-1J-699999D01*
G01*
X36410000Y40200000D02*
G75*
G03*
X35710000Y40900000I-699999J1D01*
G01*
X36410000Y38800000D02*
X36410000Y40200000D01*
X35110000Y38100000D02*
X35710000Y38100000D01*
X35710000Y40900000D02*
X35110000Y40900000D01*
X34410000Y40200000D02*
X34410000Y38800000D01*
D11*
%TO.C,A1*%
X-119Y53330000D02*
X64515881Y53330000D01*
X-119Y-10000D02*
X66039881Y-10000D01*
X66039881Y-10000D02*
X66039881Y1260000D01*
X68579881Y3800000D02*
X68579881Y38090000D01*
X66039881Y1260000D02*
X68579881Y3800000D01*
X64515881Y53330000D02*
X66039881Y51806000D01*
X-119Y53330000D02*
X-119Y-10000D01*
X66039881Y40630000D02*
X66039881Y51806000D01*
X68579881Y38090000D02*
X66039881Y40630000D01*
D12*
%TO.C,JP1*%
X33910000Y40200000D02*
G75*
G03*
X33210000Y40900000I-699999J1D01*
G01*
X33210000Y38100000D02*
G75*
G03*
X33910000Y38800000I0J700000D01*
G01*
X31910000Y38800000D02*
G75*
G03*
X32610000Y38100000I700000J0D01*
G01*
X32610000Y40900000D02*
G75*
G03*
X31910000Y40200000I-1J-699999D01*
G01*
X32610000Y38100000D02*
X33210000Y38100000D01*
X31910000Y40200000D02*
X31910000Y38800000D01*
X33910000Y38800000D02*
X33910000Y40200000D01*
X33210000Y40900000D02*
X32610000Y40900000D01*
%TO.C,kibuzzard-65E69043*%
G36*
X9931937Y21079369D02*
G01*
X9831925Y21079369D01*
X9744612Y21083338D01*
X9679525Y21095244D01*
X9603325Y21147631D01*
X9581100Y21252406D01*
X9606500Y21352419D01*
X9691431Y21402425D01*
X9763464Y21413736D01*
X9860500Y21417506D01*
X9931937Y21417506D01*
X9931937Y21079369D01*
G37*
G36*
X9048758Y21935560D02*
G01*
X13382104Y21935560D01*
X13382104Y20164440D01*
X9048758Y20164440D01*
X9048758Y21246056D01*
X9379487Y21246056D01*
X9389211Y21126597D01*
X9418381Y21038094D01*
X9470967Y20975586D01*
X9550937Y20934113D01*
X9622022Y20916915D01*
X9710393Y20906596D01*
X9816050Y20903156D01*
X9931937Y20903156D01*
X9931937Y20509456D01*
X10135137Y20509456D01*
X10354212Y20509456D01*
X11055887Y20509456D01*
X11055887Y21407981D01*
X11294012Y21407981D01*
X11582937Y21407981D01*
X11582937Y20509456D01*
X11786137Y20509456D01*
X11786137Y20798381D01*
X12227462Y20798381D01*
X12236590Y20692813D01*
X12263975Y20614231D01*
X12312989Y20558669D01*
X12387006Y20522156D01*
X12491979Y20501916D01*
X12633862Y20495169D01*
X12780111Y20502709D01*
X12888656Y20525331D01*
X12965054Y20566209D01*
X13014862Y20628519D01*
X13041056Y20716625D01*
X13046612Y20834894D01*
X12848175Y20834894D01*
X12822775Y20732500D01*
X12755306Y20682494D01*
X12698354Y20671778D01*
X12621162Y20668206D01*
X12502894Y20679319D01*
X12443362Y20718212D01*
X12425900Y20796794D01*
X12451300Y20877756D01*
X12534644Y20938875D01*
X12604692Y20967648D01*
X12698950Y20998406D01*
X12817020Y21038292D01*
X12904531Y21078575D01*
X12966245Y21122827D01*
X13006925Y21174619D01*
X13029547Y21237722D01*
X13037087Y21315906D01*
X13028158Y21415919D01*
X13001369Y21490531D01*
X12953347Y21543514D01*
X12880719Y21578638D01*
X12778126Y21598283D01*
X12640212Y21604831D01*
X12505076Y21598084D01*
X12404469Y21577844D01*
X12332833Y21541331D01*
X12284612Y21485769D01*
X12257625Y21406791D01*
X12249687Y21300031D01*
X12451300Y21300031D01*
X12474319Y21380200D01*
X12533056Y21419888D01*
X12646562Y21431794D01*
X12763244Y21420681D01*
X12821187Y21384169D01*
X12838650Y21309556D01*
X12777531Y21227800D01*
X12692401Y21188708D01*
X12559250Y21142869D01*
X12443958Y21101197D01*
X12358431Y21058731D01*
X12297908Y21011305D01*
X12257625Y20954750D01*
X12235003Y20885098D01*
X12227462Y20798381D01*
X11786137Y20798381D01*
X11786137Y21407981D01*
X12075062Y21407981D01*
X12075062Y21588956D01*
X11294012Y21588956D01*
X11294012Y21407981D01*
X11055887Y21407981D01*
X11055887Y21588956D01*
X10385962Y21588956D01*
X10385962Y21414331D01*
X10852687Y21414331D01*
X10852687Y21157156D01*
X10449462Y21157156D01*
X10449462Y20982531D01*
X10852687Y20982531D01*
X10852687Y20684081D01*
X10354212Y20684081D01*
X10354212Y20509456D01*
X10135137Y20509456D01*
X10135137Y21588956D01*
X9887487Y21593719D01*
X9764280Y21590279D01*
X9661357Y21579960D01*
X9578718Y21562763D01*
X9485850Y21520892D01*
X9424731Y21457194D01*
X9390798Y21367103D01*
X9379487Y21246056D01*
X9048758Y21246056D01*
X9048758Y21935560D01*
G37*
%TO.C,kibuzzard-65E68F98*%
G36*
X36259114Y32095560D02*
G01*
X39444698Y32095560D01*
X39444698Y30324440D01*
X36259114Y30324440D01*
X36259114Y30669456D01*
X36589843Y30669456D01*
X36786693Y30669456D01*
X36786693Y30958381D01*
X37331206Y30958381D01*
X37340334Y30852813D01*
X37367718Y30774231D01*
X37416733Y30718669D01*
X37490750Y30682156D01*
X37595723Y30661916D01*
X37737606Y30655169D01*
X37883854Y30662709D01*
X37916228Y30669456D01*
X38271006Y30669456D01*
X38458331Y30669456D01*
X38458331Y31215556D01*
X38439281Y31496544D01*
X38445631Y31496544D01*
X38612318Y31029819D01*
X38772656Y31029819D01*
X38939343Y31496544D01*
X38945694Y31496544D01*
X38926644Y31215556D01*
X38926644Y30669456D01*
X39113968Y30669456D01*
X39113968Y31748956D01*
X38874256Y31748956D01*
X38701218Y31231431D01*
X38683756Y31231431D01*
X38507543Y31748956D01*
X38271006Y31748956D01*
X38271006Y30669456D01*
X37916228Y30669456D01*
X37992400Y30685331D01*
X38068798Y30726209D01*
X38118606Y30788519D01*
X38144800Y30876625D01*
X38150356Y30994894D01*
X37951918Y30994894D01*
X37926518Y30892500D01*
X37859050Y30842494D01*
X37802098Y30831778D01*
X37724906Y30828206D01*
X37606637Y30839319D01*
X37547106Y30878212D01*
X37529643Y30956794D01*
X37555043Y31037756D01*
X37638387Y31098875D01*
X37708436Y31127648D01*
X37802693Y31158406D01*
X37920764Y31198292D01*
X38008275Y31238575D01*
X38069989Y31282827D01*
X38110668Y31334619D01*
X38133290Y31397722D01*
X38140831Y31475906D01*
X38131901Y31575919D01*
X38105112Y31650531D01*
X38057090Y31703514D01*
X37984462Y31738638D01*
X37881870Y31758283D01*
X37743956Y31764831D01*
X37608820Y31758084D01*
X37508212Y31737844D01*
X37436576Y31701331D01*
X37388356Y31645769D01*
X37361368Y31566791D01*
X37353431Y31460031D01*
X37555043Y31460031D01*
X37578062Y31540200D01*
X37636800Y31579888D01*
X37750306Y31591794D01*
X37866987Y31580681D01*
X37924931Y31544169D01*
X37942393Y31469556D01*
X37881275Y31387800D01*
X37796145Y31348708D01*
X37662993Y31302869D01*
X37547701Y31261197D01*
X37462175Y31218731D01*
X37401651Y31171305D01*
X37361368Y31114750D01*
X37338747Y31045098D01*
X37331206Y30958381D01*
X36786693Y30958381D01*
X36786693Y31428281D01*
X36780343Y31526706D01*
X36842256Y31475906D01*
X37128006Y31299694D01*
X37128006Y31509244D01*
X36786693Y31748956D01*
X36589843Y31748956D01*
X36589843Y30669456D01*
X36259114Y30669456D01*
X36259114Y32095560D01*
G37*
%TO.C,kibuzzard-65E699B0*%
G36*
X55071526Y47559176D02*
G01*
X55071526Y47717926D01*
X55230276Y47717926D01*
X56001801Y48106546D01*
X56529486Y48106546D01*
X56529486Y48350386D01*
X56001801Y48350386D01*
X55230276Y48737101D01*
X55230276Y48474211D01*
X55761771Y48232276D01*
X55761771Y48222751D01*
X55230276Y47978911D01*
X55230276Y47717926D01*
X55071526Y47717926D01*
X55071526Y48895851D01*
X55879881Y49434754D01*
X56688236Y48895851D01*
X56688236Y47559176D01*
X55071526Y47559176D01*
G37*
%TO.C,kibuzzard-65E69079*%
G36*
X56249712Y28297731D02*
G01*
X56177878Y28295350D01*
X56111600Y28294556D01*
X56026073Y28297930D01*
X55963169Y28308050D01*
X55889350Y28354087D01*
X55867125Y28446956D01*
X55885381Y28542206D01*
X55945706Y28589037D01*
X56067150Y28602531D01*
X56249712Y28602531D01*
X56249712Y28297731D01*
G37*
G36*
X55333196Y29550798D02*
G01*
X57702804Y29550798D01*
X57702804Y27789202D01*
X55333196Y27789202D01*
X55333196Y28432669D01*
X55663925Y28432669D01*
X55674641Y28323131D01*
X55706787Y28242169D01*
X55764136Y28185217D01*
X55850456Y28147713D01*
X55927274Y28132278D01*
X56023317Y28123018D01*
X56138587Y28119931D01*
X56235249Y28121695D01*
X56338965Y28126987D01*
X56409857Y28132631D01*
X56833912Y28132631D01*
X57030762Y28132631D01*
X57030762Y28891456D01*
X57024412Y28989881D01*
X57086325Y28939081D01*
X57372075Y28762869D01*
X57372075Y28972419D01*
X57030762Y29212131D01*
X56833912Y29212131D01*
X56833912Y28132631D01*
X56409857Y28132631D01*
X56449737Y28135806D01*
X56449737Y29215306D01*
X56188315Y29219920D01*
X56076851Y29217070D01*
X55978956Y29208074D01*
X55900462Y29193081D01*
X55812158Y29156767D01*
X55753619Y29101800D01*
X55720877Y29024211D01*
X55709962Y28920031D01*
X55717702Y28828353D01*
X55740919Y28766044D01*
X55784377Y28725959D01*
X55852837Y28700956D01*
X55852837Y28691431D01*
X55737744Y28650156D01*
X55680594Y28570781D01*
X55668092Y28510853D01*
X55663925Y28432669D01*
X55333196Y28432669D01*
X55333196Y29550798D01*
G37*
G36*
X56249712Y28777156D02*
G01*
X56027462Y28777156D01*
X55934594Y28806525D01*
X55909987Y28905744D01*
X55942531Y29005756D01*
X55989561Y29029172D01*
X56065562Y29042269D01*
X56197325Y29047031D01*
X56249712Y29047031D01*
X56249712Y28777156D01*
G37*
%TO.C,kibuzzard-65E69903*%
G36*
X17524650Y24897313D02*
G01*
X17511156Y24801666D01*
X17483375Y24730625D01*
X17437536Y24680420D01*
X17369869Y24647281D01*
X17275611Y24628827D01*
X17150000Y24622675D01*
X17031136Y24628628D01*
X16941244Y24646487D01*
X16875759Y24678436D01*
X16830119Y24726656D01*
X16800552Y24794720D01*
X16783287Y24886200D01*
X16777334Y24960813D01*
X16775350Y25022725D01*
X17519888Y25022725D01*
X17524650Y24897313D01*
G37*
G36*
X17116663Y25840288D02*
G01*
X17112694Y25752975D01*
X17100788Y25687888D01*
X17048400Y25611688D01*
X16943625Y25589463D01*
X16843612Y25614863D01*
X16793606Y25699794D01*
X16782295Y25771827D01*
X16778525Y25868863D01*
X16778525Y25940300D01*
X17116663Y25940300D01*
X17116663Y25840288D01*
G37*
G36*
X16269996Y23145771D02*
G01*
X16269996Y23476500D01*
X16607075Y23476500D01*
X17686575Y23476500D01*
X17686575Y23724150D01*
X16840438Y24111500D01*
X16840438Y24116262D01*
X17065862Y24094038D01*
X17686575Y24094038D01*
X17686575Y24289300D01*
X16607075Y24289300D01*
X16607075Y24041650D01*
X17453213Y23654300D01*
X17453213Y23649538D01*
X17227788Y23671762D01*
X16607075Y23671762D01*
X16607075Y23476500D01*
X16269996Y23476500D01*
X16269996Y25041775D01*
X16600725Y25041775D01*
X16602709Y24956050D01*
X16608663Y24879850D01*
X16624537Y24768284D01*
X16648879Y24674886D01*
X16681687Y24599656D01*
X16751339Y24514923D01*
X16849169Y24459163D01*
X16933571Y24436232D01*
X17037552Y24422474D01*
X17161113Y24417888D01*
X17290317Y24423179D01*
X17398532Y24439054D01*
X17485756Y24465513D01*
X17584380Y24529409D01*
X17650063Y24625850D01*
X17677403Y24711399D01*
X17693807Y24817761D01*
X17699275Y24944937D01*
X17697864Y25028369D01*
X17693631Y25122032D01*
X17686575Y25225925D01*
X16607075Y25225925D01*
X16602312Y25129088D01*
X16600725Y25041775D01*
X16269996Y25041775D01*
X16269996Y25895850D01*
X16602312Y25895850D01*
X16605752Y25772642D01*
X16616071Y25669719D01*
X16633269Y25587081D01*
X16675139Y25494213D01*
X16738837Y25433094D01*
X16828928Y25399161D01*
X16949975Y25387850D01*
X17069434Y25397573D01*
X17157937Y25426744D01*
X17220445Y25479330D01*
X17261919Y25559300D01*
X17279117Y25630385D01*
X17289435Y25718756D01*
X17292875Y25824413D01*
X17292875Y25940300D01*
X17686575Y25940300D01*
X17686575Y26143500D01*
X16607075Y26143500D01*
X16602312Y25895850D01*
X16269996Y25895850D01*
X16269996Y26474229D01*
X18030004Y26474229D01*
X18030004Y23145771D01*
X16269996Y23145771D01*
G37*
%TO.C,kibuzzard-65E68F92*%
G36*
X10927299Y34127031D02*
G01*
X10973337Y34090519D01*
X11000324Y34005588D01*
X11016199Y33896844D01*
X11020962Y33831955D01*
X11022549Y33750000D01*
X11020962Y33680944D01*
X11016199Y33607125D01*
X10660599Y34056388D01*
X10710606Y34120681D01*
X10827287Y34137350D01*
X10927299Y34127031D01*
G37*
G36*
X10979687Y33418212D02*
G01*
X10932062Y33374556D01*
X10825699Y33362650D01*
X10720924Y33374556D01*
X10674887Y33411862D01*
X10649487Y33497588D01*
X10632818Y33611888D01*
X10627262Y33754763D01*
X10630437Y33859538D01*
X10979687Y33418212D01*
G37*
G36*
X10098095Y34636354D02*
G01*
X13480529Y34636354D01*
X13480529Y32863646D01*
X10098095Y32863646D01*
X10098095Y33740475D01*
X10428824Y33740475D01*
X10430610Y33655544D01*
X10435968Y33581725D01*
X10445692Y33513066D01*
X10460574Y33443612D01*
X10490737Y33349553D01*
X10527249Y33283275D01*
X10573684Y33239420D01*
X10633612Y33212631D01*
X10715368Y33198939D01*
X10827287Y33194375D01*
X10938015Y33198939D01*
X11019374Y33212631D01*
X11079104Y33239619D01*
X11124943Y33284069D01*
X11160860Y33351339D01*
X11190824Y33446788D01*
X11200177Y33497588D01*
X11367037Y33497588D01*
X11376165Y33392019D01*
X11403549Y33313438D01*
X11452564Y33257875D01*
X11526581Y33221362D01*
X11631554Y33201122D01*
X11773437Y33194375D01*
X11919685Y33201916D01*
X11952060Y33208663D01*
X12306837Y33208663D01*
X12494162Y33208663D01*
X12494162Y33754763D01*
X12475112Y34035750D01*
X12481462Y34035750D01*
X12648149Y33569025D01*
X12808487Y33569025D01*
X12975174Y34035750D01*
X12981525Y34035750D01*
X12962475Y33754763D01*
X12962475Y33208663D01*
X13149799Y33208663D01*
X13149799Y34288163D01*
X12910087Y34288163D01*
X12737049Y33770638D01*
X12719587Y33770638D01*
X12543374Y34288163D01*
X12306837Y34288163D01*
X12306837Y33208663D01*
X11952060Y33208663D01*
X12028231Y33224537D01*
X12104629Y33265416D01*
X12154437Y33327725D01*
X12180631Y33415831D01*
X12186187Y33534100D01*
X11987749Y33534100D01*
X11962349Y33431706D01*
X11894881Y33381700D01*
X11837929Y33370984D01*
X11760737Y33367412D01*
X11642468Y33378525D01*
X11582937Y33417419D01*
X11565474Y33496000D01*
X11590874Y33576963D01*
X11674218Y33638081D01*
X11744267Y33666855D01*
X11838524Y33697613D01*
X11956595Y33737498D01*
X12044106Y33777781D01*
X12105820Y33822033D01*
X12146499Y33873825D01*
X12169121Y33936928D01*
X12176662Y34015113D01*
X12167732Y34115125D01*
X12140943Y34189738D01*
X12092921Y34242720D01*
X12020293Y34277844D01*
X11917701Y34297489D01*
X11779787Y34304038D01*
X11644651Y34297291D01*
X11544043Y34277050D01*
X11472407Y34240538D01*
X11424187Y34184975D01*
X11397199Y34105997D01*
X11389262Y33999238D01*
X11590874Y33999238D01*
X11613893Y34079406D01*
X11672631Y34119094D01*
X11786137Y34131000D01*
X11902818Y34119888D01*
X11960762Y34083375D01*
X11978224Y34008763D01*
X11917106Y33927006D01*
X11831976Y33887914D01*
X11698824Y33842075D01*
X11583532Y33800403D01*
X11498006Y33757938D01*
X11437482Y33710511D01*
X11397199Y33653956D01*
X11374578Y33584305D01*
X11367037Y33497588D01*
X11200177Y33497588D01*
X11207581Y33537804D01*
X11217636Y33639404D01*
X11220987Y33751588D01*
X11217283Y33866769D01*
X11206170Y33968899D01*
X11187649Y34057975D01*
X11158082Y34149455D01*
X11123356Y34214344D01*
X11078509Y34258000D01*
X11018581Y34285781D01*
X10936229Y34300664D01*
X10824112Y34305625D01*
X10712193Y34300664D01*
X10630437Y34285781D01*
X10571104Y34258198D01*
X10526456Y34215138D01*
X10491729Y34150844D01*
X10462162Y34059563D01*
X10443641Y33967664D01*
X10432529Y33861301D01*
X10428824Y33740475D01*
X10098095Y33740475D01*
X10098095Y34636354D01*
G37*
%TO.C,kibuzzard-65E68D6E*%
G36*
X36151164Y24475560D02*
G01*
X39532010Y24475560D01*
X39532010Y22704440D01*
X36151164Y22704440D01*
X36151164Y23786056D01*
X36481893Y23786056D01*
X36491617Y23666597D01*
X36520787Y23578094D01*
X36573373Y23515586D01*
X36653343Y23474113D01*
X36724428Y23456915D01*
X36812799Y23446596D01*
X36918456Y23443156D01*
X37034343Y23443156D01*
X37034343Y23049456D01*
X37237543Y23049456D01*
X37237543Y23051044D01*
X37431218Y23051044D01*
X38180518Y23051044D01*
X38180518Y23338381D01*
X38377368Y23338381D01*
X38386496Y23232813D01*
X38413881Y23154231D01*
X38462895Y23098669D01*
X38536912Y23062156D01*
X38641885Y23041916D01*
X38783768Y23035169D01*
X38930017Y23042709D01*
X39038562Y23065331D01*
X39114960Y23106209D01*
X39164768Y23168519D01*
X39190962Y23256625D01*
X39196518Y23374894D01*
X38998081Y23374894D01*
X38972681Y23272500D01*
X38905212Y23222494D01*
X38848260Y23211778D01*
X38771068Y23208206D01*
X38652800Y23219319D01*
X38593268Y23258212D01*
X38575806Y23336794D01*
X38601206Y23417756D01*
X38684550Y23478875D01*
X38754598Y23507648D01*
X38848856Y23538406D01*
X38966926Y23578292D01*
X39054437Y23618575D01*
X39116151Y23662827D01*
X39156831Y23714619D01*
X39179453Y23777722D01*
X39186993Y23855906D01*
X39178064Y23955919D01*
X39151275Y24030531D01*
X39103253Y24083514D01*
X39030625Y24118638D01*
X38928032Y24138283D01*
X38790118Y24144831D01*
X38654982Y24138084D01*
X38554375Y24117844D01*
X38482739Y24081331D01*
X38434518Y24025769D01*
X38407531Y23946791D01*
X38399593Y23840031D01*
X38601206Y23840031D01*
X38624225Y23920200D01*
X38682962Y23959888D01*
X38796468Y23971794D01*
X38913150Y23960681D01*
X38971093Y23924169D01*
X38988556Y23849556D01*
X38927437Y23767800D01*
X38842307Y23728708D01*
X38709156Y23682869D01*
X38593864Y23641197D01*
X38508337Y23598731D01*
X38447814Y23551305D01*
X38407531Y23494750D01*
X38384909Y23425098D01*
X38377368Y23338381D01*
X38180518Y23338381D01*
X38180518Y24128956D01*
X37977318Y24128956D01*
X37977318Y23228844D01*
X37431218Y23228844D01*
X37431218Y23051044D01*
X37237543Y23051044D01*
X37237543Y24128956D01*
X36989893Y24133719D01*
X36866686Y24130279D01*
X36763763Y24119960D01*
X36681124Y24102763D01*
X36588256Y24060892D01*
X36527137Y23997194D01*
X36493204Y23907103D01*
X36481893Y23786056D01*
X36151164Y23786056D01*
X36151164Y24475560D01*
G37*
G36*
X37034343Y23619369D02*
G01*
X36934331Y23619369D01*
X36847018Y23623338D01*
X36781931Y23635244D01*
X36705731Y23687631D01*
X36683506Y23792406D01*
X36708906Y23892419D01*
X36793837Y23942425D01*
X36865870Y23953736D01*
X36962906Y23957506D01*
X37034343Y23957506D01*
X37034343Y23619369D01*
G37*
%TO.C,kibuzzard-65E69043*%
G36*
X36081843Y21079369D02*
G01*
X35981831Y21079369D01*
X35894518Y21083338D01*
X35829431Y21095244D01*
X35753231Y21147631D01*
X35731006Y21252406D01*
X35756406Y21352419D01*
X35841337Y21402425D01*
X35913370Y21413736D01*
X36010406Y21417506D01*
X36081843Y21417506D01*
X36081843Y21079369D01*
G37*
G36*
X35198664Y21935560D02*
G01*
X39532010Y21935560D01*
X39532010Y20164440D01*
X35198664Y20164440D01*
X35198664Y21246056D01*
X35529393Y21246056D01*
X35539117Y21126597D01*
X35568287Y21038094D01*
X35620873Y20975586D01*
X35700843Y20934113D01*
X35771928Y20916915D01*
X35860299Y20906596D01*
X35965956Y20903156D01*
X36081843Y20903156D01*
X36081843Y20509456D01*
X36285043Y20509456D01*
X36504118Y20509456D01*
X37205793Y20509456D01*
X37205793Y21407981D01*
X37443918Y21407981D01*
X37732843Y21407981D01*
X37732843Y20509456D01*
X37936043Y20509456D01*
X37936043Y20798381D01*
X38377368Y20798381D01*
X38386496Y20692813D01*
X38413881Y20614231D01*
X38462895Y20558669D01*
X38536912Y20522156D01*
X38641885Y20501916D01*
X38783768Y20495169D01*
X38930017Y20502709D01*
X39038562Y20525331D01*
X39114960Y20566209D01*
X39164768Y20628519D01*
X39190962Y20716625D01*
X39196518Y20834894D01*
X38998081Y20834894D01*
X38972681Y20732500D01*
X38905212Y20682494D01*
X38848260Y20671778D01*
X38771068Y20668206D01*
X38652800Y20679319D01*
X38593268Y20718212D01*
X38575806Y20796794D01*
X38601206Y20877756D01*
X38684550Y20938875D01*
X38754598Y20967648D01*
X38848856Y20998406D01*
X38966926Y21038292D01*
X39054437Y21078575D01*
X39116151Y21122827D01*
X39156831Y21174619D01*
X39179453Y21237722D01*
X39186993Y21315906D01*
X39178064Y21415919D01*
X39151275Y21490531D01*
X39103253Y21543514D01*
X39030625Y21578638D01*
X38928032Y21598283D01*
X38790118Y21604831D01*
X38654982Y21598084D01*
X38554375Y21577844D01*
X38482739Y21541331D01*
X38434518Y21485769D01*
X38407531Y21406791D01*
X38399593Y21300031D01*
X38601206Y21300031D01*
X38624225Y21380200D01*
X38682962Y21419888D01*
X38796468Y21431794D01*
X38913150Y21420681D01*
X38971093Y21384169D01*
X38988556Y21309556D01*
X38927437Y21227800D01*
X38842307Y21188708D01*
X38709156Y21142869D01*
X38593864Y21101197D01*
X38508337Y21058731D01*
X38447814Y21011305D01*
X38407531Y20954750D01*
X38384909Y20885098D01*
X38377368Y20798381D01*
X37936043Y20798381D01*
X37936043Y21407981D01*
X38224968Y21407981D01*
X38224968Y21588956D01*
X37443918Y21588956D01*
X37443918Y21407981D01*
X37205793Y21407981D01*
X37205793Y21588956D01*
X36535868Y21588956D01*
X36535868Y21414331D01*
X37002593Y21414331D01*
X37002593Y21157156D01*
X36599368Y21157156D01*
X36599368Y20982531D01*
X37002593Y20982531D01*
X37002593Y20684081D01*
X36504118Y20684081D01*
X36504118Y20509456D01*
X36285043Y20509456D01*
X36285043Y21588956D01*
X36037393Y21593719D01*
X35914186Y21590279D01*
X35811263Y21579960D01*
X35728624Y21562763D01*
X35635756Y21520892D01*
X35574637Y21457194D01*
X35540704Y21367103D01*
X35529393Y21246056D01*
X35198664Y21246056D01*
X35198664Y21935560D01*
G37*
%TO.C,kibuzzard-65E68F92*%
G36*
X37129593Y33418212D02*
G01*
X37081968Y33374556D01*
X36975605Y33362650D01*
X36870830Y33374556D01*
X36824793Y33411862D01*
X36799393Y33497588D01*
X36782724Y33611888D01*
X36777168Y33754763D01*
X36780343Y33859538D01*
X37129593Y33418212D01*
G37*
G36*
X37077205Y34127031D02*
G01*
X37123243Y34090519D01*
X37150230Y34005588D01*
X37166105Y33896844D01*
X37170868Y33831955D01*
X37172455Y33750000D01*
X37170868Y33680944D01*
X37166105Y33607125D01*
X36810505Y34056388D01*
X36860512Y34120681D01*
X36977193Y34137350D01*
X37077205Y34127031D01*
G37*
G36*
X36248001Y34636354D02*
G01*
X39630435Y34636354D01*
X39630435Y32863646D01*
X36248001Y32863646D01*
X36248001Y33740475D01*
X36578730Y33740475D01*
X36580516Y33655544D01*
X36585874Y33581725D01*
X36595598Y33513066D01*
X36610480Y33443612D01*
X36640643Y33349553D01*
X36677155Y33283275D01*
X36723590Y33239420D01*
X36783518Y33212631D01*
X36865274Y33198939D01*
X36977193Y33194375D01*
X37087921Y33198939D01*
X37169280Y33212631D01*
X37229010Y33239619D01*
X37274849Y33284069D01*
X37310766Y33351339D01*
X37340730Y33446788D01*
X37350083Y33497588D01*
X37516943Y33497588D01*
X37526071Y33392019D01*
X37553455Y33313438D01*
X37602470Y33257875D01*
X37676487Y33221362D01*
X37781460Y33201122D01*
X37923343Y33194375D01*
X38069591Y33201916D01*
X38101966Y33208663D01*
X38456743Y33208663D01*
X38644068Y33208663D01*
X38644068Y33754763D01*
X38625018Y34035750D01*
X38631368Y34035750D01*
X38798055Y33569025D01*
X38958393Y33569025D01*
X39125080Y34035750D01*
X39131431Y34035750D01*
X39112381Y33754763D01*
X39112381Y33208663D01*
X39299705Y33208663D01*
X39299705Y34288163D01*
X39059993Y34288163D01*
X38886955Y33770638D01*
X38869493Y33770638D01*
X38693280Y34288163D01*
X38456743Y34288163D01*
X38456743Y33208663D01*
X38101966Y33208663D01*
X38178137Y33224537D01*
X38254535Y33265416D01*
X38304343Y33327725D01*
X38330537Y33415831D01*
X38336093Y33534100D01*
X38137655Y33534100D01*
X38112255Y33431706D01*
X38044787Y33381700D01*
X37987835Y33370984D01*
X37910643Y33367412D01*
X37792374Y33378525D01*
X37732843Y33417419D01*
X37715380Y33496000D01*
X37740780Y33576963D01*
X37824124Y33638081D01*
X37894173Y33666855D01*
X37988430Y33697613D01*
X38106501Y33737498D01*
X38194012Y33777781D01*
X38255726Y33822033D01*
X38296405Y33873825D01*
X38319027Y33936928D01*
X38326568Y34015113D01*
X38317638Y34115125D01*
X38290849Y34189738D01*
X38242827Y34242720D01*
X38170199Y34277844D01*
X38067607Y34297489D01*
X37929693Y34304038D01*
X37794557Y34297291D01*
X37693949Y34277050D01*
X37622313Y34240538D01*
X37574093Y34184975D01*
X37547105Y34105997D01*
X37539168Y33999238D01*
X37740780Y33999238D01*
X37763799Y34079406D01*
X37822537Y34119094D01*
X37936043Y34131000D01*
X38052724Y34119888D01*
X38110668Y34083375D01*
X38128130Y34008763D01*
X38067012Y33927006D01*
X37981882Y33887914D01*
X37848730Y33842075D01*
X37733438Y33800403D01*
X37647912Y33757938D01*
X37587388Y33710511D01*
X37547105Y33653956D01*
X37524484Y33584305D01*
X37516943Y33497588D01*
X37350083Y33497588D01*
X37357487Y33537804D01*
X37367542Y33639404D01*
X37370893Y33751588D01*
X37367189Y33866769D01*
X37356076Y33968899D01*
X37337555Y34057975D01*
X37307988Y34149455D01*
X37273262Y34214344D01*
X37228415Y34258000D01*
X37168487Y34285781D01*
X37086135Y34300664D01*
X36974018Y34305625D01*
X36862099Y34300664D01*
X36780343Y34285781D01*
X36721010Y34258198D01*
X36676362Y34215138D01*
X36641635Y34150844D01*
X36612068Y34059563D01*
X36593547Y33967664D01*
X36582435Y33861301D01*
X36578730Y33740475D01*
X36248001Y33740475D01*
X36248001Y34636354D01*
G37*
%TO.C,kibuzzard-65E68EA2*%
G36*
X56205263Y31313188D02*
G01*
X55983013Y31313188D01*
X55890144Y31342556D01*
X55865538Y31441775D01*
X55898082Y31541788D01*
X55945111Y31565203D01*
X56021113Y31578300D01*
X56152875Y31583063D01*
X56205263Y31583063D01*
X56205263Y31313188D01*
G37*
G36*
X55288746Y32094767D02*
G01*
X57712330Y32094767D01*
X57712330Y30325233D01*
X55288746Y30325233D01*
X55288746Y30968700D01*
X55619476Y30968700D01*
X55630191Y30859163D01*
X55662338Y30778200D01*
X55719686Y30721248D01*
X55806007Y30683744D01*
X55882824Y30668310D01*
X55978868Y30659049D01*
X56094138Y30655962D01*
X56190799Y30657726D01*
X56294516Y30663018D01*
X56365421Y30668663D01*
X56614838Y30668663D01*
X57357788Y30668663D01*
X57357788Y30930600D01*
X57258371Y31006602D01*
X57172844Y31072681D01*
X57101208Y31128839D01*
X57043463Y31175075D01*
X56951785Y31252466D01*
X56879951Y31319538D01*
X56838676Y31379863D01*
X56827563Y31452888D01*
X56842644Y31537819D01*
X56894238Y31579888D01*
X56997426Y31592588D01*
X57101407Y31579094D01*
X57156176Y31534644D01*
X57178401Y31446538D01*
X57381601Y31446538D01*
X57367908Y31557464D01*
X57339532Y31639419D01*
X57292701Y31697164D01*
X57223644Y31735463D01*
X57127402Y31756894D01*
X56999013Y31764038D01*
X56869830Y31757092D01*
X56774382Y31736256D01*
X56707111Y31698553D01*
X56662463Y31641006D01*
X56637460Y31559448D01*
X56629126Y31449713D01*
X56635079Y31373116D01*
X56652938Y31311600D01*
X56687466Y31254450D01*
X56743426Y31190950D01*
X56828158Y31110384D01*
X56914082Y31036963D01*
X56979081Y30986339D01*
X57058721Y30927601D01*
X57153001Y30860750D01*
X57153001Y30846462D01*
X56614838Y30846462D01*
X56614838Y30668663D01*
X56365421Y30668663D01*
X56405288Y30671837D01*
X56405288Y31751338D01*
X56143867Y31755951D01*
X56032402Y31753101D01*
X55934506Y31744106D01*
X55856013Y31729113D01*
X55767708Y31692798D01*
X55709169Y31637831D01*
X55676427Y31560242D01*
X55665513Y31456063D01*
X55673252Y31364384D01*
X55696469Y31302075D01*
X55739927Y31261991D01*
X55808388Y31236988D01*
X55808388Y31227463D01*
X55693294Y31186187D01*
X55636144Y31106813D01*
X55623643Y31046884D01*
X55619476Y30968700D01*
X55288746Y30968700D01*
X55288746Y32094767D01*
G37*
G36*
X56205263Y30833762D02*
G01*
X56133429Y30831381D01*
X56067150Y30830588D01*
X55981624Y30833961D01*
X55918719Y30844081D01*
X55844900Y30890119D01*
X55822675Y30982987D01*
X55840932Y31078238D01*
X55901257Y31125069D01*
X56022700Y31138562D01*
X56205263Y31138562D01*
X56205263Y30833762D01*
G37*
%TO.C,kibuzzard-65E68F9E*%
G36*
X10039358Y29555560D02*
G01*
X13399566Y29555560D01*
X13399566Y27784440D01*
X10039358Y27784440D01*
X10039358Y28129456D01*
X10370087Y28129456D01*
X11113037Y28129456D01*
X11113037Y28391394D01*
X11077735Y28418381D01*
X11286074Y28418381D01*
X11295203Y28312813D01*
X11322587Y28234231D01*
X11371601Y28178669D01*
X11445618Y28142156D01*
X11550592Y28121916D01*
X11692474Y28115169D01*
X11838723Y28122709D01*
X11871096Y28129456D01*
X12225874Y28129456D01*
X12413199Y28129456D01*
X12413199Y28675556D01*
X12394149Y28956544D01*
X12400499Y28956544D01*
X12567187Y28489819D01*
X12727524Y28489819D01*
X12894212Y28956544D01*
X12900562Y28956544D01*
X12881512Y28675556D01*
X12881512Y28129456D01*
X13068837Y28129456D01*
X13068837Y29208956D01*
X12829124Y29208956D01*
X12656087Y28691431D01*
X12638624Y28691431D01*
X12462412Y29208956D01*
X12225874Y29208956D01*
X12225874Y28129456D01*
X11871096Y28129456D01*
X11947268Y28145331D01*
X12023667Y28186209D01*
X12073474Y28248519D01*
X12099668Y28336625D01*
X12105224Y28454894D01*
X11906787Y28454894D01*
X11881387Y28352500D01*
X11813918Y28302494D01*
X11756967Y28291778D01*
X11679774Y28288206D01*
X11561506Y28299319D01*
X11501974Y28338212D01*
X11484512Y28416794D01*
X11509912Y28497756D01*
X11593256Y28558875D01*
X11663304Y28587648D01*
X11757562Y28618406D01*
X11875632Y28658292D01*
X11963143Y28698575D01*
X12024857Y28742827D01*
X12065537Y28794619D01*
X12088159Y28857722D01*
X12095699Y28935906D01*
X12086770Y29035919D01*
X12059981Y29110531D01*
X12011959Y29163514D01*
X11939331Y29198638D01*
X11836739Y29218283D01*
X11698824Y29224831D01*
X11563689Y29218084D01*
X11463081Y29197844D01*
X11391445Y29161331D01*
X11343224Y29105769D01*
X11316237Y29026791D01*
X11308299Y28920031D01*
X11509912Y28920031D01*
X11532931Y29000200D01*
X11591668Y29039888D01*
X11705174Y29051794D01*
X11821856Y29040681D01*
X11879799Y29004169D01*
X11897262Y28929556D01*
X11836143Y28847800D01*
X11751014Y28808708D01*
X11617862Y28762869D01*
X11502570Y28721197D01*
X11417043Y28678731D01*
X11356520Y28631305D01*
X11316237Y28574750D01*
X11293615Y28505098D01*
X11286074Y28418381D01*
X11077735Y28418381D01*
X11013620Y28467395D01*
X10928093Y28533475D01*
X10856457Y28589633D01*
X10798712Y28635869D01*
X10707034Y28713259D01*
X10635199Y28780331D01*
X10593924Y28840656D01*
X10582812Y28913681D01*
X10597893Y28998613D01*
X10649487Y29040681D01*
X10752674Y29053381D01*
X10856656Y29039888D01*
X10911424Y28995438D01*
X10933649Y28907331D01*
X11136849Y28907331D01*
X11123157Y29018258D01*
X11094781Y29100213D01*
X11047949Y29157958D01*
X10978893Y29196256D01*
X10882651Y29217688D01*
X10754262Y29224831D01*
X10625079Y29217886D01*
X10529631Y29197050D01*
X10462360Y29159347D01*
X10417712Y29101800D01*
X10392709Y29020242D01*
X10384374Y28910506D01*
X10390328Y28833909D01*
X10408187Y28772394D01*
X10442715Y28715244D01*
X10498674Y28651744D01*
X10583407Y28571178D01*
X10669331Y28497756D01*
X10734330Y28447133D01*
X10813970Y28388395D01*
X10908249Y28321544D01*
X10908249Y28307256D01*
X10370087Y28307256D01*
X10370087Y28129456D01*
X10039358Y28129456D01*
X10039358Y29555560D01*
G37*
%TO.C,kibuzzard-65E68F98*%
G36*
X10109208Y32095560D02*
G01*
X13294792Y32095560D01*
X13294792Y30324440D01*
X10109208Y30324440D01*
X10109208Y30669456D01*
X10439937Y30669456D01*
X10636787Y30669456D01*
X10636787Y30958381D01*
X11181300Y30958381D01*
X11190428Y30852813D01*
X11217812Y30774231D01*
X11266827Y30718669D01*
X11340844Y30682156D01*
X11445817Y30661916D01*
X11587700Y30655169D01*
X11733948Y30662709D01*
X11766322Y30669456D01*
X12121100Y30669456D01*
X12308425Y30669456D01*
X12308425Y31215556D01*
X12289375Y31496544D01*
X12295725Y31496544D01*
X12462412Y31029819D01*
X12622750Y31029819D01*
X12789437Y31496544D01*
X12795788Y31496544D01*
X12776738Y31215556D01*
X12776738Y30669456D01*
X12964062Y30669456D01*
X12964062Y31748956D01*
X12724350Y31748956D01*
X12551312Y31231431D01*
X12533850Y31231431D01*
X12357637Y31748956D01*
X12121100Y31748956D01*
X12121100Y30669456D01*
X11766322Y30669456D01*
X11842494Y30685331D01*
X11918892Y30726209D01*
X11968700Y30788519D01*
X11994894Y30876625D01*
X12000450Y30994894D01*
X11802012Y30994894D01*
X11776612Y30892500D01*
X11709144Y30842494D01*
X11652192Y30831778D01*
X11575000Y30828206D01*
X11456731Y30839319D01*
X11397200Y30878212D01*
X11379737Y30956794D01*
X11405137Y31037756D01*
X11488481Y31098875D01*
X11558530Y31127648D01*
X11652787Y31158406D01*
X11770858Y31198292D01*
X11858369Y31238575D01*
X11920083Y31282827D01*
X11960762Y31334619D01*
X11983384Y31397722D01*
X11990925Y31475906D01*
X11981995Y31575919D01*
X11955206Y31650531D01*
X11907184Y31703514D01*
X11834556Y31738638D01*
X11731964Y31758283D01*
X11594050Y31764831D01*
X11458914Y31758084D01*
X11358306Y31737844D01*
X11286670Y31701331D01*
X11238450Y31645769D01*
X11211462Y31566791D01*
X11203525Y31460031D01*
X11405137Y31460031D01*
X11428156Y31540200D01*
X11486894Y31579888D01*
X11600400Y31591794D01*
X11717081Y31580681D01*
X11775025Y31544169D01*
X11792487Y31469556D01*
X11731369Y31387800D01*
X11646239Y31348708D01*
X11513087Y31302869D01*
X11397795Y31261197D01*
X11312269Y31218731D01*
X11251745Y31171305D01*
X11211462Y31114750D01*
X11188841Y31045098D01*
X11181300Y30958381D01*
X10636787Y30958381D01*
X10636787Y31428281D01*
X10630437Y31526706D01*
X10692350Y31475906D01*
X10978100Y31299694D01*
X10978100Y31509244D01*
X10636787Y31748956D01*
X10439937Y31748956D01*
X10439937Y30669456D01*
X10109208Y30669456D01*
X10109208Y32095560D01*
G37*
%TO.C,kibuzzard-65E6AFEA*%
G36*
X8173618Y1321887D02*
G01*
X8306015Y1306648D01*
X8371738Y1261880D01*
X8390788Y1171393D01*
X8357450Y1072332D01*
X8230768Y1045663D01*
X8084083Y1070427D01*
X8010740Y1154247D01*
X7993357Y1226161D01*
X7985023Y1323792D01*
X8173618Y1321887D01*
G37*
G36*
X10382465Y1599065D02*
G01*
X10419613Y1551440D01*
X10431043Y1419043D01*
X10419613Y1287597D01*
X10382465Y1240925D01*
X10291978Y1232352D01*
X10206253Y1240925D01*
X10180535Y1281883D01*
X10175773Y1415232D01*
X10180535Y1556202D01*
X10206253Y1599065D01*
X10291978Y1607637D01*
X10382465Y1599065D01*
G37*
G36*
X1447062Y1677170D02*
G01*
X1514690Y1577158D01*
X1529692Y1491909D01*
X1534692Y1377132D01*
X1529692Y1262118D01*
X1514690Y1176155D01*
X1447062Y1075190D01*
X1311807Y1045663D01*
X1162265Y1075190D01*
X1087970Y1175202D01*
X1071539Y1260928D01*
X1066062Y1377132D01*
X1071539Y1491909D01*
X1087970Y1577158D01*
X1162265Y1677170D01*
X1311807Y1706698D01*
X1447062Y1677170D01*
G37*
G36*
X593622Y2489653D02*
G01*
X11206378Y2489653D01*
X11206378Y430347D01*
X593622Y430347D01*
X593622Y1377132D01*
X831747Y1377132D01*
X835875Y1248122D01*
X848257Y1140489D01*
X868895Y1054235D01*
X918901Y957318D01*
X994625Y893262D01*
X1102019Y857544D01*
X1247037Y845638D01*
X1396580Y871355D01*
X1515642Y969463D01*
X1530882Y969463D01*
X1530882Y864687D01*
X1761387Y864687D01*
X2045232Y864687D01*
X2262402Y864687D01*
X2262402Y982797D01*
X2277642Y982797D01*
X2332411Y917075D01*
X2390037Y876117D01*
X2460999Y854686D01*
X2555772Y847542D01*
X2678883Y854448D01*
X2732344Y866592D01*
X3121557Y866592D01*
X4020717Y866592D01*
X4020717Y1148533D01*
X4296943Y1148533D01*
X4306944Y1043757D01*
X4336948Y965652D01*
X4391002Y910408D01*
X4473155Y874213D01*
X4589122Y854210D01*
X4744618Y847542D01*
X4906304Y855162D01*
X5025605Y878022D01*
X5109187Y919456D01*
X5163718Y982797D01*
X5189061Y1060903D01*
X5413273Y1060903D01*
X5413273Y864687D01*
X6291478Y864687D01*
X6502933Y864687D01*
X6723913Y864687D01*
X6723913Y1462858D01*
X6729151Y1568347D01*
X6744868Y1633355D01*
X6821068Y1678122D01*
X6882980Y1656215D01*
X6914413Y1582873D01*
X6923938Y1436187D01*
X6923938Y864687D01*
X7144918Y864687D01*
X7141108Y1462858D01*
X7145870Y1565966D01*
X7163968Y1631450D01*
X7245883Y1678122D01*
X7307795Y1655263D01*
X7338275Y1579063D01*
X7346848Y1426662D01*
X7346848Y864687D01*
X7567828Y864687D01*
X7760233Y864687D01*
X7977403Y864687D01*
X7977403Y982797D01*
X7992643Y982797D01*
X8047411Y917075D01*
X8105038Y876117D01*
X8175999Y854686D01*
X8270773Y847542D01*
X8393883Y854448D01*
X8485085Y875165D01*
X8591765Y968510D01*
X8615339Y1047806D01*
X8623198Y1154247D01*
X8618190Y1211398D01*
X8828938Y1211398D01*
X8839891Y1084715D01*
X8872753Y990417D01*
X8931569Y923742D01*
X9020390Y879927D01*
X9146358Y855639D01*
X9316618Y847542D01*
X9492116Y856591D01*
X9622370Y883737D01*
X9714048Y932791D01*
X9773818Y1007563D01*
X9805250Y1113290D01*
X9811918Y1255213D01*
X9573793Y1255213D01*
X9543313Y1132340D01*
X9462350Y1072332D01*
X9394008Y1059474D01*
X9301378Y1055187D01*
X9159455Y1068523D01*
X9088018Y1115195D01*
X9067063Y1209493D01*
X9097543Y1306648D01*
X9197555Y1379990D01*
X9281613Y1414518D01*
X9394723Y1451427D01*
X9536407Y1499291D01*
X9641420Y1547630D01*
X9715477Y1600732D01*
X9764293Y1662883D01*
X9791439Y1738606D01*
X9792404Y1748608D01*
X9973843Y1748608D01*
X9975748Y1045663D01*
X10114813Y1045663D01*
X10145293Y1114242D01*
X10160533Y1114242D01*
X10197680Y1063760D01*
X10234828Y1045663D01*
X10309123Y1041852D01*
X10441282Y1046377D01*
X10525340Y1059950D01*
X10609160Y1154247D01*
X10627019Y1259022D01*
X10632973Y1420947D01*
X10627258Y1581444D01*
X10610113Y1685742D01*
X10528198Y1780040D01*
X10445806Y1793613D01*
X10316743Y1798138D01*
X10252925Y1786708D01*
X10181488Y1721938D01*
X10168153Y1721938D01*
X10168153Y1836238D01*
X10172915Y1955300D01*
X10191013Y1998163D01*
X10240543Y2007688D01*
X10621543Y2007688D01*
X10716793Y1998163D01*
X10751083Y1957205D01*
X10758703Y1841953D01*
X10758703Y1011372D01*
X10752035Y910408D01*
X10719650Y875165D01*
X10627258Y866592D01*
X10213873Y866592D01*
X10213873Y668472D01*
X10623448Y668472D01*
X10751321Y675616D01*
X10841570Y697047D01*
X10940630Y796107D01*
X10961347Y884214D01*
X10968253Y1007563D01*
X10968253Y1838143D01*
X10961347Y1972921D01*
X10940630Y2068648D01*
X10901816Y2133656D01*
X10840618Y2176280D01*
X10749178Y2199854D01*
X10619638Y2207713D01*
X10240543Y2207713D01*
X10143626Y2199854D01*
X10073855Y2176280D01*
X9995750Y2066743D01*
X9979319Y1970064D01*
X9973843Y1836238D01*
X9973843Y1748608D01*
X9792404Y1748608D01*
X9800488Y1832428D01*
X9789772Y1952443D01*
X9757625Y2041978D01*
X9699999Y2105557D01*
X9612845Y2147705D01*
X9489734Y2171279D01*
X9324238Y2179137D01*
X9162074Y2171041D01*
X9041345Y2146753D01*
X8955382Y2102937D01*
X8897518Y2036263D01*
X8865133Y1941489D01*
X8855608Y1813378D01*
X9097543Y1813378D01*
X9125165Y1909580D01*
X9195650Y1957205D01*
X9331858Y1971493D01*
X9471875Y1958158D01*
X9541408Y1914343D01*
X9562363Y1824808D01*
X9489020Y1726700D01*
X9386864Y1679789D01*
X9227083Y1624783D01*
X9088732Y1574776D01*
X8986100Y1523818D01*
X8913472Y1466906D01*
X8865133Y1399040D01*
X8837986Y1315458D01*
X8828938Y1211398D01*
X8618190Y1211398D01*
X8612244Y1279263D01*
X8579383Y1372370D01*
X8520328Y1438331D01*
X8430793Y1481907D01*
X8304110Y1506196D01*
X8133613Y1514293D01*
X7983118Y1514293D01*
X7983118Y1525722D01*
X8025028Y1655263D01*
X8085511Y1680980D01*
X8183143Y1689552D01*
X8325065Y1661930D01*
X8358403Y1556202D01*
X8590813Y1556202D01*
X8586288Y1670741D01*
X8561285Y1755275D01*
X8512708Y1814806D01*
X8437460Y1854335D01*
X8329589Y1876481D01*
X8183143Y1883863D01*
X8036219Y1875766D01*
X7926920Y1851478D01*
X7849529Y1808139D01*
X7798333Y1742893D01*
X7769758Y1650500D01*
X7760233Y1525722D01*
X7760233Y864687D01*
X7567828Y864687D01*
X7567828Y1859098D01*
X7352563Y1859098D01*
X7352563Y1737178D01*
X7337323Y1737178D01*
X7260170Y1853382D01*
X7156348Y1883863D01*
X7017283Y1850525D01*
X6944893Y1737178D01*
X6942988Y1737178D01*
X6875360Y1853382D01*
X6746773Y1883863D01*
X6599135Y1848620D01*
X6524840Y1731463D01*
X6508409Y1631926D01*
X6502933Y1497148D01*
X6502933Y864687D01*
X6291478Y864687D01*
X6291478Y1060903D01*
X5960008Y1060903D01*
X5960008Y1662883D01*
X6272428Y1662883D01*
X6272428Y1859098D01*
X5731408Y1859098D01*
X5731408Y1060903D01*
X5413273Y1060903D01*
X5189061Y1060903D01*
X5192769Y1072332D01*
X5199913Y1192347D01*
X4965598Y1192347D01*
X4942738Y1101860D01*
X4871300Y1057092D01*
X4727473Y1043757D01*
X4632699Y1049234D01*
X4573168Y1065665D01*
X4531257Y1146627D01*
X4555070Y1210445D01*
X4636033Y1255213D01*
X4705089Y1274262D01*
X4797958Y1293312D01*
X4932974Y1323554D01*
X5033225Y1357130D01*
X5151335Y1446665D01*
X5186577Y1590493D01*
X5176814Y1693124D01*
X5147525Y1768610D01*
X5094661Y1821712D01*
X5014175Y1857192D01*
X4900589Y1877195D01*
X4748428Y1883863D01*
X4599838Y1876957D01*
X4489348Y1856240D01*
X4411243Y1819093D01*
X4359808Y1762895D01*
X4330756Y1683123D01*
X4319803Y1575253D01*
X4548403Y1575253D01*
X4595075Y1663835D01*
X4655321Y1681694D01*
X4750333Y1687648D01*
X4849869Y1682409D01*
X4912258Y1666693D01*
X4956073Y1588588D01*
X4896065Y1534295D01*
X4807721Y1506434D01*
X4662703Y1470478D01*
X4536020Y1436426D01*
X4441723Y1399040D01*
X4330280Y1300933D01*
X4305277Y1233305D01*
X4296943Y1148533D01*
X4020717Y1148533D01*
X4020717Y1982923D01*
X5723788Y1982923D01*
X6015253Y1982923D01*
X6015253Y2251528D01*
X5723788Y2251528D01*
X5723788Y1982923D01*
X4020717Y1982923D01*
X4020717Y2160088D01*
X3776877Y2160088D01*
X3776877Y1079952D01*
X3121557Y1079952D01*
X3121557Y866592D01*
X2732344Y866592D01*
X2770085Y875165D01*
X2876765Y968510D01*
X2900339Y1047806D01*
X2908197Y1154247D01*
X2897244Y1279263D01*
X2864382Y1372370D01*
X2805327Y1438331D01*
X2715792Y1481907D01*
X2589110Y1506196D01*
X2418612Y1514293D01*
X2268117Y1514293D01*
X2268117Y1525722D01*
X2310027Y1655263D01*
X2370511Y1680980D01*
X2468142Y1689552D01*
X2610065Y1661930D01*
X2643402Y1556202D01*
X2875812Y1556202D01*
X2871288Y1670741D01*
X2846285Y1755275D01*
X2797707Y1814806D01*
X2722460Y1854335D01*
X2614589Y1876481D01*
X2468142Y1883863D01*
X2321219Y1875766D01*
X2211920Y1851478D01*
X2134529Y1808139D01*
X2083332Y1742893D01*
X2054757Y1650500D01*
X2045232Y1525722D01*
X2045232Y864687D01*
X1761387Y864687D01*
X1759482Y2251528D01*
X1528977Y2251528D01*
X1530882Y1782897D01*
X1515642Y1782897D01*
X1407057Y1880053D01*
X1338477Y1900055D01*
X1247037Y1906723D01*
X1102019Y1894816D01*
X994625Y1859098D01*
X918901Y1795042D01*
X868895Y1698125D01*
X848257Y1612083D01*
X835875Y1505085D01*
X831747Y1377132D01*
X593622Y1377132D01*
X593622Y2489653D01*
G37*
G36*
X2458617Y1321887D02*
G01*
X2591015Y1306648D01*
X2656737Y1261880D01*
X2675787Y1171393D01*
X2642450Y1072332D01*
X2515767Y1045663D01*
X2369082Y1070427D01*
X2295740Y1154247D01*
X2278357Y1226161D01*
X2270022Y1323792D01*
X2458617Y1321887D01*
G37*
%TO.C,kibuzzard-65E6996A*%
G36*
X49650017Y47315770D02*
G01*
X49650017Y46967155D01*
X49404272Y46967155D01*
X49287115Y47008113D01*
X49255682Y47155750D01*
X49288067Y47272908D01*
X49408082Y47311960D01*
X49500475Y47316246D01*
X49568102Y47317675D01*
X49650017Y47315770D01*
G37*
G36*
X50821593Y46426135D02*
G01*
X50671098Y46420420D01*
X50556321Y46436613D01*
X50471072Y46469950D01*
X50410827Y46524957D01*
X50371060Y46606157D01*
X50348914Y46719267D01*
X50341532Y46870000D01*
X50348676Y47012637D01*
X50370107Y47120508D01*
X50408446Y47199089D01*
X50466310Y47253858D01*
X50547987Y47289338D01*
X50657763Y47310055D01*
X50747298Y47317199D01*
X50821593Y47319580D01*
X50821593Y46426135D01*
G37*
G36*
X47795817Y47687880D02*
G01*
X51224183Y47687880D01*
X51224183Y46052120D01*
X47795817Y46052120D01*
X47795817Y46226110D01*
X47954567Y46226110D01*
X48668942Y46226110D01*
X48941357Y46226110D01*
X49202342Y46226110D01*
X49291877Y46612825D01*
X49360457Y46726173D01*
X49427132Y46748318D01*
X49528097Y46755700D01*
X49650017Y46755700D01*
X49650017Y46226110D01*
X49891952Y46226110D01*
X49891952Y46856665D01*
X50095787Y46856665D01*
X50102138Y46701619D01*
X50121188Y46571762D01*
X50152937Y46467093D01*
X50229614Y46348744D01*
X50345343Y46269925D01*
X50448001Y46237117D01*
X50575636Y46217432D01*
X50728248Y46210870D01*
X50828366Y46212563D01*
X50940761Y46217643D01*
X51065433Y46226110D01*
X51065433Y47521510D01*
X50949227Y47527225D01*
X50844452Y47529130D01*
X50741582Y47526749D01*
X50650142Y47519605D01*
X50516263Y47500555D01*
X50404186Y47471345D01*
X50313910Y47431975D01*
X50212231Y47348393D01*
X50145318Y47230998D01*
X50117801Y47129715D01*
X50101291Y47004937D01*
X50095787Y46856665D01*
X49891952Y46856665D01*
X49891952Y47519605D01*
X49665257Y47527225D01*
X49552862Y47529130D01*
X49423640Y47525108D01*
X49315372Y47513043D01*
X49228060Y47492935D01*
X49129476Y47445310D01*
X49064230Y47374825D01*
X49027797Y47276718D01*
X49015652Y47146225D01*
X49035655Y46992873D01*
X49103283Y46907148D01*
X49238537Y46864285D01*
X49238537Y46847140D01*
X49119475Y46788085D01*
X49082566Y46725696D01*
X49049942Y46629970D01*
X48941357Y46226110D01*
X48668942Y46226110D01*
X48668942Y46437565D01*
X48430817Y46437565D01*
X48430817Y47310055D01*
X48655607Y47310055D01*
X48655607Y47521510D01*
X47967902Y47521510D01*
X47967902Y47310055D01*
X48192692Y47310055D01*
X48192692Y46437565D01*
X47954567Y46437565D01*
X47954567Y46226110D01*
X47795817Y46226110D01*
X47795817Y47687880D01*
G37*
%TO.C,kibuzzard-65E6A521*%
G36*
X50930374Y6150425D02*
G01*
X50385544Y6297110D01*
X50385544Y6300920D01*
X50930374Y6447605D01*
X50930374Y6150425D01*
G37*
G36*
X50799881Y3952267D02*
G01*
X49981048Y4498155D01*
X49981048Y5286174D01*
X50139977Y5286174D01*
X50143397Y5152417D01*
X50154192Y5034942D01*
X50172183Y4940750D01*
X50215760Y4834785D01*
X50281721Y4764538D01*
X50374828Y4725247D01*
X50499844Y4712150D01*
X50609857Y4721437D01*
X50684628Y4749298D01*
X50732730Y4801447D01*
X50762733Y4883600D01*
X50774164Y4883600D01*
X50823694Y4745488D01*
X50918943Y4676908D01*
X50990857Y4661906D01*
X51084678Y4656905D01*
X51216123Y4669764D01*
X51313279Y4708340D01*
X51381620Y4777158D01*
X51426626Y4880743D01*
X51445147Y4972923D01*
X51456259Y5088176D01*
X51459964Y5226500D01*
X51457847Y5342493D01*
X51451497Y5466953D01*
X51440914Y5599880D01*
X50145513Y5599880D01*
X50139977Y5286174D01*
X49981048Y5286174D01*
X49981048Y6144710D01*
X50149323Y6144710D01*
X51444724Y5757995D01*
X51444724Y5999930D01*
X51134209Y6093275D01*
X51134209Y6504755D01*
X51444724Y6598100D01*
X51444724Y6840035D01*
X50149323Y6453320D01*
X50149323Y6144710D01*
X49981048Y6144710D01*
X49981048Y6998785D01*
X51618714Y6998785D01*
X51618714Y4498155D01*
X50799881Y3952267D01*
G37*
G36*
X51249461Y5273649D02*
G01*
X51250414Y5194115D01*
X51246365Y5091483D01*
X51234221Y5015998D01*
X51178976Y4927415D01*
X51067534Y4900745D01*
X50953234Y4922653D01*
X50897036Y4995043D01*
X50880844Y5140775D01*
X50880844Y5359850D01*
X51246604Y5359850D01*
X51249461Y5273649D01*
G37*
G36*
X50671294Y5093150D02*
G01*
X50636051Y4981708D01*
X50516988Y4952180D01*
X50396973Y4991233D01*
X50368875Y5047668D01*
X50353158Y5138870D01*
X50347444Y5296985D01*
X50347444Y5359850D01*
X50671294Y5359850D01*
X50671294Y5093150D01*
G37*
%TO.C,kibuzzard-65E68EF2*%
G36*
X29138840Y19395560D02*
G01*
X32530798Y19395560D01*
X32530798Y17624440D01*
X29138840Y17624440D01*
X29138840Y18494919D01*
X29469569Y18494919D01*
X29474861Y18365714D01*
X29490736Y18257499D01*
X29517194Y18170275D01*
X29581091Y18071652D01*
X29677531Y18005969D01*
X29763080Y17978628D01*
X29869443Y17962224D01*
X29996619Y17956756D01*
X30080051Y17958167D01*
X30173713Y17962401D01*
X30277606Y17969456D01*
X30433182Y17969456D01*
X30680832Y17969456D01*
X31068181Y18815594D01*
X31072944Y18815594D01*
X31050719Y18590169D01*
X31050719Y17969456D01*
X31245982Y17969456D01*
X31245982Y18750506D01*
X31385682Y18750506D01*
X31582532Y18750506D01*
X31606344Y18835438D01*
X31665875Y18877506D01*
X31777794Y18890206D01*
X31855185Y18881475D01*
X31912732Y18855281D01*
X31953411Y18808450D01*
X31980200Y18737806D01*
X31995083Y18638191D01*
X32000044Y18504444D01*
X31994488Y18373673D01*
X31977819Y18276637D01*
X31948252Y18208177D01*
X31904000Y18163131D01*
X31841492Y18138128D01*
X31757157Y18129794D01*
X31659525Y18136938D01*
X31580944Y18161544D01*
X31580944Y18404431D01*
X31804782Y18404431D01*
X31804782Y18577469D01*
X31388857Y18577469D01*
X31388857Y18039306D01*
X31487678Y17998031D01*
X31571419Y17972631D01*
X31654763Y17959534D01*
X31752394Y17955169D01*
X31860873Y17960725D01*
X31951361Y17977394D01*
X32023857Y18005175D01*
X32105414Y18072247D01*
X32159588Y18173450D01*
X32182077Y18263320D01*
X32195571Y18375239D01*
X32200069Y18509206D01*
X32195836Y18644056D01*
X32183136Y18756503D01*
X32161969Y18846550D01*
X32110971Y18947753D01*
X32034175Y19014825D01*
X31966001Y19042606D01*
X31881070Y19059275D01*
X31779382Y19064831D01*
X31648016Y19057688D01*
X31549194Y19036256D01*
X31477955Y18998156D01*
X31429338Y18941006D01*
X31399771Y18860044D01*
X31385682Y18750506D01*
X31245982Y18750506D01*
X31245982Y19048956D01*
X30998332Y19048956D01*
X30610981Y18202819D01*
X30606219Y18202819D01*
X30628444Y18428244D01*
X30628444Y19048956D01*
X30433182Y19048956D01*
X30433182Y17969456D01*
X30277606Y17969456D01*
X30277606Y19048956D01*
X30180769Y19053719D01*
X30093456Y19055306D01*
X30007731Y19053322D01*
X29931531Y19047369D01*
X29819966Y19031494D01*
X29726568Y19007152D01*
X29651338Y18974344D01*
X29566605Y18904692D01*
X29510844Y18806863D01*
X29487913Y18722460D01*
X29474155Y18618479D01*
X29469569Y18494919D01*
X29138840Y18494919D01*
X29138840Y19395560D01*
G37*
G36*
X30074407Y18136144D02*
G01*
X29948994Y18131381D01*
X29853347Y18144875D01*
X29782306Y18172656D01*
X29732102Y18218495D01*
X29698963Y18286163D01*
X29680508Y18380420D01*
X29674356Y18506031D01*
X29680310Y18624895D01*
X29698169Y18714788D01*
X29730117Y18780272D01*
X29778338Y18825913D01*
X29846402Y18855480D01*
X29937881Y18872744D01*
X30012494Y18878697D01*
X30074407Y18880681D01*
X30074407Y18136144D01*
G37*
%TO.C,kibuzzard-65E69775*%
G36*
X41789231Y45915160D02*
G01*
X41244401Y46061845D01*
X41244401Y46065655D01*
X41789231Y46212340D01*
X41789231Y45915160D01*
G37*
G36*
X40849431Y45363980D02*
G01*
X40849431Y45909445D01*
X41008181Y45909445D01*
X42303581Y45522730D01*
X42303581Y45764665D01*
X41993066Y45858010D01*
X41993066Y46269490D01*
X42303581Y46362835D01*
X42303581Y46604770D01*
X41008181Y46218055D01*
X41008181Y45909445D01*
X40849431Y45909445D01*
X40849431Y46719070D01*
X41008181Y46719070D01*
X42303581Y46719070D01*
X42303581Y47016250D01*
X41288216Y47481070D01*
X41288216Y47486785D01*
X41558726Y47460115D01*
X42303581Y47460115D01*
X42303581Y47694430D01*
X41008181Y47694430D01*
X41008181Y47397250D01*
X42023546Y46932430D01*
X42023546Y46926715D01*
X41753036Y46953385D01*
X41008181Y46953385D01*
X41008181Y46719070D01*
X40849431Y46719070D01*
X40849431Y47934460D01*
X41008181Y47934460D01*
X41217731Y47934460D01*
X41217731Y48494530D01*
X41526341Y48494530D01*
X41526341Y48010660D01*
X41735891Y48010660D01*
X41735891Y48494530D01*
X42094031Y48494530D01*
X42094031Y47896360D01*
X42303581Y47896360D01*
X42303581Y48738370D01*
X41008181Y48738370D01*
X41008181Y47934460D01*
X40849431Y47934460D01*
X40849431Y48897120D01*
X41655881Y49434754D01*
X42462331Y48897120D01*
X42462331Y45363980D01*
X40849431Y45363980D01*
G37*
%TO.C,kibuzzard-65E6994C*%
G36*
X47451526Y47559176D02*
G01*
X47451526Y47717926D01*
X47610276Y47717926D01*
X48381801Y48106546D01*
X48909486Y48106546D01*
X48909486Y48350386D01*
X48381801Y48350386D01*
X47610276Y48737101D01*
X47610276Y48474211D01*
X48141771Y48232276D01*
X48141771Y48222751D01*
X47610276Y47978911D01*
X47610276Y47717926D01*
X47451526Y47717926D01*
X47451526Y48895851D01*
X48259881Y49434754D01*
X49068236Y48895851D01*
X49068236Y47559176D01*
X47451526Y47559176D01*
G37*
%TO.C,kibuzzard-65E6A50A*%
G36*
X2805000Y30571935D02*
G01*
X1901077Y31174550D01*
X1901077Y31885115D01*
X2139202Y31885115D01*
X2147775Y31727476D01*
X2173492Y31608890D01*
X2219212Y31523403D01*
X2287792Y31465062D01*
X2384947Y31429582D01*
X2516392Y31412675D01*
X2516392Y31648895D01*
X2414475Y31677470D01*
X2363992Y31748907D01*
X2348752Y31883210D01*
X2359230Y31976079D01*
X2390662Y32045135D01*
X2446860Y32093951D01*
X2531632Y32126098D01*
X2651171Y32143957D01*
X2811667Y32149910D01*
X2968592Y32143243D01*
X3085035Y32123240D01*
X3167188Y32087759D01*
X3221242Y32034658D01*
X3251246Y31959648D01*
X3261248Y31858445D01*
X3252675Y31741287D01*
X3223147Y31646990D01*
X2931682Y31646990D01*
X2931682Y31915595D01*
X2724037Y31915595D01*
X2724037Y31416485D01*
X3369832Y31416485D01*
X3419362Y31535071D01*
X3449843Y31635560D01*
X3465559Y31735573D01*
X3470798Y31852730D01*
X3464130Y31982905D01*
X3444127Y32091490D01*
X3410790Y32178485D01*
X3330304Y32276354D01*
X3208860Y32341363D01*
X3101016Y32368350D01*
X2966713Y32384543D01*
X2805952Y32389940D01*
X2644133Y32384860D01*
X2509196Y32369620D01*
X2401140Y32344220D01*
X2279696Y32283022D01*
X2199210Y32190868D01*
X2165872Y32109058D01*
X2145870Y32007141D01*
X2139202Y31885115D01*
X1901077Y31885115D01*
X1901077Y32628065D01*
X3708923Y32628065D01*
X3708923Y31174550D01*
X2805000Y30571935D01*
G37*
%TO.C,kibuzzard-651A1A52*%
G36*
X3964342Y7735702D02*
G01*
X3948150Y7620926D01*
X3914812Y7535677D01*
X3859806Y7475432D01*
X3778605Y7435665D01*
X3665496Y7413519D01*
X3514762Y7406137D01*
X3372126Y7413281D01*
X3264255Y7434712D01*
X3185674Y7473051D01*
X3130905Y7530915D01*
X3095424Y7612592D01*
X3074707Y7722368D01*
X3067564Y7811902D01*
X3065182Y7886197D01*
X3958627Y7886197D01*
X3964342Y7735702D01*
G37*
G36*
X2606077Y6922267D02*
G01*
X2606077Y7909057D01*
X2855632Y7909057D01*
X2858014Y7806187D01*
X2865157Y7714747D01*
X2884207Y7580868D01*
X2913417Y7468791D01*
X2952787Y7378515D01*
X3036369Y7276836D01*
X3153765Y7209922D01*
X3255047Y7182406D01*
X3379825Y7165896D01*
X3528097Y7160393D01*
X3683143Y7166743D01*
X3813001Y7185793D01*
X3917670Y7217542D01*
X4036018Y7294219D01*
X4114837Y7409947D01*
X4147646Y7512606D01*
X4167331Y7640241D01*
X4173892Y7792852D01*
X4172199Y7892971D01*
X4167119Y8005366D01*
X4158653Y8130037D01*
X2863252Y8130037D01*
X2857537Y8013832D01*
X2855632Y7909057D01*
X2606077Y7909057D01*
X2606077Y8316728D01*
X2863252Y8316728D01*
X4158653Y8316728D01*
X4158653Y8613908D01*
X3143287Y9078727D01*
X3143287Y9084443D01*
X3413797Y9057772D01*
X4158653Y9057772D01*
X4158653Y9292088D01*
X2863252Y9292088D01*
X2863252Y8994908D01*
X3878618Y8530088D01*
X3878618Y8524372D01*
X3608107Y8551042D01*
X2863252Y8551042D01*
X2863252Y8316728D01*
X2606077Y8316728D01*
X2606077Y9932168D01*
X2844202Y9932168D01*
X2852775Y9774529D01*
X2878492Y9655943D01*
X2924212Y9570456D01*
X2992792Y9512115D01*
X3089947Y9476634D01*
X3221392Y9459728D01*
X3221392Y9695948D01*
X3119475Y9724523D01*
X3068992Y9795960D01*
X3053752Y9930263D01*
X3064230Y10023131D01*
X3095662Y10092188D01*
X3151860Y10141003D01*
X3236632Y10173150D01*
X3356171Y10191009D01*
X3516667Y10196963D01*
X3673592Y10190295D01*
X3790035Y10170293D01*
X3872188Y10134812D01*
X3926242Y10081710D01*
X3956246Y10006701D01*
X3966248Y9905498D01*
X3957675Y9788340D01*
X3928147Y9694043D01*
X3636682Y9694043D01*
X3636682Y9962648D01*
X3429037Y9962648D01*
X3429037Y9463538D01*
X4074832Y9463538D01*
X4124362Y9582124D01*
X4154843Y9682613D01*
X4170559Y9782625D01*
X4175798Y9899783D01*
X4169130Y10029958D01*
X4149127Y10138543D01*
X4115790Y10225538D01*
X4035304Y10323407D01*
X3913860Y10388415D01*
X3806016Y10415403D01*
X3671713Y10431595D01*
X3510952Y10436993D01*
X3349133Y10431913D01*
X3214196Y10416673D01*
X3106140Y10391273D01*
X2984696Y10330074D01*
X2904210Y10237920D01*
X2870872Y10156111D01*
X2850870Y10054193D01*
X2844202Y9932168D01*
X2606077Y9932168D01*
X2606077Y10675118D01*
X3510000Y11277733D01*
X4413923Y10675118D01*
X4413923Y6922267D01*
X2606077Y6922267D01*
G37*
%TO.C,kibuzzard-65E698B6*%
G36*
X39017131Y26497506D02*
G01*
X39017131Y26206994D01*
X38812343Y26206994D01*
X38714712Y26241125D01*
X38688518Y26364156D01*
X38715506Y26461788D01*
X38815518Y26494331D01*
X38892512Y26497903D01*
X38948868Y26499094D01*
X39017131Y26497506D01*
G37*
G36*
X36227364Y27015560D02*
G01*
X39549472Y27015560D01*
X39549472Y25244440D01*
X36227364Y25244440D01*
X36227364Y26487981D01*
X36558093Y26487981D01*
X36847018Y26487981D01*
X36847018Y25589456D01*
X37050218Y25589456D01*
X37050218Y25878381D01*
X37491543Y25878381D01*
X37500671Y25772813D01*
X37528055Y25694231D01*
X37577070Y25638669D01*
X37651087Y25602156D01*
X37756060Y25581916D01*
X37897943Y25575169D01*
X38044191Y25582709D01*
X38076565Y25589456D01*
X38426581Y25589456D01*
X38644068Y25589456D01*
X38718681Y25911719D01*
X38775831Y26006175D01*
X38831393Y26024630D01*
X38915531Y26030781D01*
X39017131Y26030781D01*
X39017131Y25589456D01*
X39218743Y25589456D01*
X39218743Y26667369D01*
X39029831Y26673719D01*
X38936168Y26675306D01*
X38828483Y26671955D01*
X38738260Y26661901D01*
X38665499Y26645144D01*
X38583346Y26605456D01*
X38528974Y26546719D01*
X38498613Y26464963D01*
X38488493Y26356219D01*
X38505162Y26228425D01*
X38561518Y26156988D01*
X38674231Y26121269D01*
X38674231Y26106981D01*
X38575012Y26057769D01*
X38544254Y26005778D01*
X38517068Y25926006D01*
X38426581Y25589456D01*
X38076565Y25589456D01*
X38152737Y25605331D01*
X38229135Y25646209D01*
X38278943Y25708519D01*
X38305137Y25796625D01*
X38310693Y25914894D01*
X38112256Y25914894D01*
X38086856Y25812500D01*
X38019387Y25762494D01*
X37962435Y25751778D01*
X37885243Y25748206D01*
X37766974Y25759319D01*
X37707443Y25798212D01*
X37689980Y25876794D01*
X37715381Y25957756D01*
X37798724Y26018875D01*
X37868773Y26047648D01*
X37963031Y26078406D01*
X38081101Y26118292D01*
X38168612Y26158575D01*
X38230326Y26202827D01*
X38271006Y26254619D01*
X38293627Y26317722D01*
X38301168Y26395906D01*
X38292238Y26495919D01*
X38265449Y26570531D01*
X38217427Y26623514D01*
X38144799Y26658638D01*
X38042207Y26678283D01*
X37904293Y26684831D01*
X37769157Y26678084D01*
X37668549Y26657844D01*
X37596913Y26621331D01*
X37548693Y26565769D01*
X37521705Y26486791D01*
X37513768Y26380031D01*
X37715381Y26380031D01*
X37738399Y26460200D01*
X37797137Y26499888D01*
X37910643Y26511794D01*
X38027324Y26500681D01*
X38085268Y26464169D01*
X38102731Y26389556D01*
X38041612Y26307800D01*
X37956482Y26268708D01*
X37823331Y26222869D01*
X37708038Y26181197D01*
X37622512Y26138731D01*
X37561988Y26091305D01*
X37521706Y26034750D01*
X37499084Y25965098D01*
X37491543Y25878381D01*
X37050218Y25878381D01*
X37050218Y26487981D01*
X37339143Y26487981D01*
X37339143Y26668956D01*
X36558093Y26668956D01*
X36558093Y26487981D01*
X36227364Y26487981D01*
X36227364Y27015560D01*
G37*
%TO.C,kibuzzard-65A4F46A*%
G36*
X11037896Y37160479D02*
G01*
X13382104Y37160479D01*
X13382104Y35419521D01*
X11037896Y35419521D01*
X11037896Y35750250D01*
X11368625Y35750250D01*
X11616275Y35750250D01*
X12003625Y36596388D01*
X12008387Y36596388D01*
X11986162Y36370963D01*
X11986162Y35750250D01*
X12181425Y35750250D01*
X12349700Y35750250D01*
X13051375Y35750250D01*
X13051375Y36829750D01*
X12381450Y36829750D01*
X12381450Y36655125D01*
X12848175Y36655125D01*
X12848175Y36397950D01*
X12444950Y36397950D01*
X12444950Y36223325D01*
X12848175Y36223325D01*
X12848175Y35924875D01*
X12349700Y35924875D01*
X12349700Y35750250D01*
X12181425Y35750250D01*
X12181425Y36829750D01*
X11933775Y36829750D01*
X11546425Y35983612D01*
X11541662Y35983612D01*
X11563887Y36209037D01*
X11563887Y36829750D01*
X11368625Y36829750D01*
X11368625Y35750250D01*
X11037896Y35750250D01*
X11037896Y37160479D01*
G37*
%TO.C,kibuzzard-65E68D88*%
G36*
X10919363Y18881475D02*
G01*
X10919363Y18590963D01*
X10714575Y18590963D01*
X10616944Y18625094D01*
X10590750Y18748125D01*
X10617738Y18845756D01*
X10717750Y18878300D01*
X10794744Y18881872D01*
X10851100Y18883063D01*
X10919363Y18881475D01*
G37*
G36*
X9998084Y19390004D02*
G01*
X13382104Y19390004D01*
X13382104Y17629996D01*
X9998084Y17629996D01*
X9998084Y17973425D01*
X10328813Y17973425D01*
X10546300Y17973425D01*
X10620913Y18295687D01*
X10678063Y18390144D01*
X10733625Y18408598D01*
X10817763Y18414750D01*
X10919363Y18414750D01*
X10919363Y17973425D01*
X11120975Y17973425D01*
X11411488Y17973425D01*
X12006800Y17973425D01*
X12006800Y18149638D01*
X11808363Y18149638D01*
X11808363Y18498887D01*
X12243338Y18498887D01*
X12248629Y18369683D01*
X12264504Y18261468D01*
X12290963Y18174244D01*
X12354860Y18075620D01*
X12451300Y18009937D01*
X12536849Y17982597D01*
X12643211Y17966193D01*
X12770388Y17960725D01*
X12853820Y17962136D01*
X12947482Y17966369D01*
X13051375Y17973425D01*
X13051375Y19052925D01*
X12954538Y19057688D01*
X12867225Y19059275D01*
X12781500Y19057291D01*
X12705300Y19051337D01*
X12593734Y19035463D01*
X12500336Y19011121D01*
X12425107Y18978313D01*
X12340374Y18908661D01*
X12284613Y18810831D01*
X12261682Y18726429D01*
X12247924Y18622448D01*
X12243338Y18498887D01*
X11808363Y18498887D01*
X11808363Y18876713D01*
X11995688Y18876713D01*
X11995688Y19052925D01*
X11422600Y19052925D01*
X11422600Y18876713D01*
X11609925Y18876713D01*
X11609925Y18149638D01*
X11411488Y18149638D01*
X11411488Y17973425D01*
X11120975Y17973425D01*
X11120975Y19051337D01*
X10932063Y19057688D01*
X10838400Y19059275D01*
X10730715Y19055924D01*
X10640492Y19045869D01*
X10567731Y19029113D01*
X10485578Y18989425D01*
X10431206Y18930688D01*
X10400846Y18848931D01*
X10390725Y18740188D01*
X10407394Y18612394D01*
X10463750Y18540956D01*
X10576463Y18505238D01*
X10576463Y18490950D01*
X10477244Y18441737D01*
X10446486Y18389747D01*
X10419300Y18309975D01*
X10328813Y17973425D01*
X9998084Y17973425D01*
X9998084Y19390004D01*
G37*
G36*
X12848175Y18140112D02*
G01*
X12722763Y18135350D01*
X12627116Y18148844D01*
X12556075Y18176625D01*
X12505871Y18222464D01*
X12472732Y18290131D01*
X12454277Y18384389D01*
X12448125Y18510000D01*
X12454078Y18628864D01*
X12471938Y18718756D01*
X12503886Y18784241D01*
X12552107Y18829881D01*
X12620171Y18859448D01*
X12711650Y18876713D01*
X12786263Y18882666D01*
X12848175Y18884650D01*
X12848175Y18140112D01*
G37*
%TO.C,kibuzzard-65E68EEA*%
G36*
X55288746Y21926035D02*
G01*
X57721854Y21926035D01*
X57721854Y20173965D01*
X55288746Y20173965D01*
X55288746Y21595306D01*
X55619475Y21595306D01*
X55940150Y20515806D01*
X56189387Y20515806D01*
X56298322Y20882519D01*
X56659287Y20882519D01*
X56669408Y20754923D01*
X56699769Y20657887D01*
X56753148Y20587641D01*
X56832325Y20540412D01*
X56941069Y20513623D01*
X57083150Y20504694D01*
X57171653Y20508266D01*
X57246662Y20518981D01*
X57316909Y20538825D01*
X57391125Y20569781D01*
X57391125Y20768219D01*
X57297661Y20724959D01*
X57220469Y20696781D01*
X57150817Y20681303D01*
X57079975Y20676144D01*
X56973612Y20687852D01*
X56905350Y20722975D01*
X56868441Y20787467D01*
X56856137Y20887281D01*
X56864670Y20958520D01*
X56890269Y21007138D01*
X56936902Y21037102D01*
X57008537Y21052381D01*
X57094263Y21057144D01*
X57165876Y21054322D01*
X57255835Y21045855D01*
X57364137Y21031744D01*
X57316513Y21595306D01*
X56705325Y21595306D01*
X56705325Y21427031D01*
X57140300Y21423856D01*
X57156175Y21227006D01*
X57086325Y21230181D01*
X56986312Y21223831D01*
X56875783Y21203789D01*
X56791844Y21172237D01*
X56731122Y21126994D01*
X56690244Y21065875D01*
X56667027Y20985508D01*
X56659287Y20882519D01*
X56298322Y20882519D01*
X56510062Y21595306D01*
X56303687Y21595306D01*
X56068738Y20753931D01*
X56060800Y20753931D01*
X55825850Y21595306D01*
X55619475Y21595306D01*
X55288746Y21595306D01*
X55288746Y21926035D01*
G37*
G36*
X29138840Y21926035D02*
G01*
X31571948Y21926035D01*
X31571948Y20173965D01*
X29138840Y20173965D01*
X29138840Y21595306D01*
X29469569Y21595306D01*
X29790244Y20515806D01*
X30039481Y20515806D01*
X30148416Y20882519D01*
X30509381Y20882519D01*
X30519502Y20754923D01*
X30549863Y20657887D01*
X30603242Y20587641D01*
X30682419Y20540412D01*
X30791163Y20513623D01*
X30933244Y20504694D01*
X31021747Y20508266D01*
X31096756Y20518981D01*
X31167003Y20538825D01*
X31241219Y20569781D01*
X31241219Y20768219D01*
X31147755Y20724959D01*
X31070563Y20696781D01*
X31000911Y20681303D01*
X30930069Y20676144D01*
X30823706Y20687852D01*
X30755444Y20722975D01*
X30718535Y20787467D01*
X30706231Y20887281D01*
X30714764Y20958520D01*
X30740363Y21007138D01*
X30786996Y21037102D01*
X30858631Y21052381D01*
X30944357Y21057144D01*
X31015970Y21054322D01*
X31105929Y21045855D01*
X31214231Y21031744D01*
X31166607Y21595306D01*
X30555419Y21595306D01*
X30555419Y21427031D01*
X30990394Y21423856D01*
X31006269Y21227006D01*
X30936419Y21230181D01*
X30836406Y21223831D01*
X30725877Y21203789D01*
X30641938Y21172237D01*
X30581216Y21126994D01*
X30540338Y21065875D01*
X30517121Y20985508D01*
X30509381Y20882519D01*
X30148416Y20882519D01*
X30360156Y21595306D01*
X30153781Y21595306D01*
X29918832Y20753931D01*
X29910894Y20753931D01*
X29675944Y21595306D01*
X29469569Y21595306D01*
X29138840Y21595306D01*
X29138840Y21926035D01*
G37*
%TO.C,kibuzzard-65E688B8*%
G36*
X1906077Y21371935D02*
G01*
X1906077Y22082500D01*
X2144202Y22082500D01*
X2152775Y21924861D01*
X2178492Y21806275D01*
X2224212Y21720788D01*
X2292792Y21662447D01*
X2389947Y21626967D01*
X2521392Y21610060D01*
X2521392Y21846280D01*
X2419475Y21874855D01*
X2368992Y21946293D01*
X2353752Y22080595D01*
X2364230Y22173464D01*
X2395662Y22242520D01*
X2451860Y22291336D01*
X2536632Y22323483D01*
X2656171Y22341342D01*
X2816667Y22347295D01*
X2973592Y22340628D01*
X3090035Y22320625D01*
X3172188Y22285144D01*
X3226242Y22232043D01*
X3256246Y22157033D01*
X3266248Y22055830D01*
X3257675Y21938673D01*
X3228147Y21844375D01*
X2936682Y21844375D01*
X2936682Y22112980D01*
X2729037Y22112980D01*
X2729037Y21613870D01*
X3374832Y21613870D01*
X3424362Y21732456D01*
X3454843Y21832945D01*
X3470559Y21932958D01*
X3475798Y22050115D01*
X3469130Y22180290D01*
X3449127Y22288875D01*
X3415790Y22375870D01*
X3335304Y22473739D01*
X3213860Y22538748D01*
X3106016Y22565735D01*
X2971713Y22581928D01*
X2810952Y22587325D01*
X2649133Y22582245D01*
X2514196Y22567005D01*
X2406140Y22541605D01*
X2284696Y22480407D01*
X2204210Y22388253D01*
X2170872Y22306443D01*
X2150870Y22204526D01*
X2144202Y22082500D01*
X1906077Y22082500D01*
X1906077Y22825450D01*
X2810000Y23428065D01*
X3713923Y22825450D01*
X3713923Y21371935D01*
X1906077Y21371935D01*
G37*
%TO.C,kibuzzard-65E698DF*%
G36*
X12867225Y26497506D02*
G01*
X12867225Y26206994D01*
X12662437Y26206994D01*
X12564806Y26241125D01*
X12538612Y26364156D01*
X12565600Y26461788D01*
X12665612Y26494331D01*
X12742606Y26497903D01*
X12798962Y26499094D01*
X12867225Y26497506D01*
G37*
G36*
X10077458Y27015560D02*
G01*
X13399566Y27015560D01*
X13399566Y25244440D01*
X10077458Y25244440D01*
X10077458Y26487981D01*
X10408187Y26487981D01*
X10697112Y26487981D01*
X10697112Y25589456D01*
X10900312Y25589456D01*
X10900312Y25878381D01*
X11341637Y25878381D01*
X11350765Y25772813D01*
X11378149Y25694231D01*
X11427164Y25638669D01*
X11501181Y25602156D01*
X11606154Y25581916D01*
X11748037Y25575169D01*
X11894285Y25582709D01*
X11926659Y25589456D01*
X12276675Y25589456D01*
X12494162Y25589456D01*
X12568775Y25911719D01*
X12625925Y26006175D01*
X12681487Y26024630D01*
X12765625Y26030781D01*
X12867225Y26030781D01*
X12867225Y25589456D01*
X13068837Y25589456D01*
X13068837Y26667369D01*
X12879925Y26673719D01*
X12786262Y26675306D01*
X12678577Y26671955D01*
X12588354Y26661901D01*
X12515593Y26645144D01*
X12433440Y26605456D01*
X12379068Y26546719D01*
X12348707Y26464963D01*
X12338587Y26356219D01*
X12355256Y26228425D01*
X12411612Y26156988D01*
X12524325Y26121269D01*
X12524325Y26106981D01*
X12425106Y26057769D01*
X12394348Y26005778D01*
X12367162Y25926006D01*
X12276675Y25589456D01*
X11926659Y25589456D01*
X12002831Y25605331D01*
X12079229Y25646209D01*
X12129037Y25708519D01*
X12155231Y25796625D01*
X12160787Y25914894D01*
X11962350Y25914894D01*
X11936950Y25812500D01*
X11869481Y25762494D01*
X11812529Y25751778D01*
X11735337Y25748206D01*
X11617068Y25759319D01*
X11557537Y25798212D01*
X11540074Y25876794D01*
X11565475Y25957756D01*
X11648818Y26018875D01*
X11718867Y26047648D01*
X11813125Y26078406D01*
X11931195Y26118292D01*
X12018706Y26158575D01*
X12080420Y26202827D01*
X12121100Y26254619D01*
X12143721Y26317722D01*
X12151262Y26395906D01*
X12142332Y26495919D01*
X12115543Y26570531D01*
X12067521Y26623514D01*
X11994893Y26658638D01*
X11892301Y26678283D01*
X11754387Y26684831D01*
X11619251Y26678084D01*
X11518643Y26657844D01*
X11447007Y26621331D01*
X11398787Y26565769D01*
X11371799Y26486791D01*
X11363862Y26380031D01*
X11565475Y26380031D01*
X11588493Y26460200D01*
X11647231Y26499888D01*
X11760737Y26511794D01*
X11877418Y26500681D01*
X11935362Y26464169D01*
X11952825Y26389556D01*
X11891706Y26307800D01*
X11806576Y26268708D01*
X11673425Y26222869D01*
X11558132Y26181197D01*
X11472606Y26138731D01*
X11412082Y26091305D01*
X11371800Y26034750D01*
X11349178Y25965098D01*
X11341637Y25878381D01*
X10900312Y25878381D01*
X10900312Y26487981D01*
X11189237Y26487981D01*
X11189237Y26668956D01*
X10408187Y26668956D01*
X10408187Y26487981D01*
X10077458Y26487981D01*
X10077458Y27015560D01*
G37*
%TO.C,kibuzzard-65E6976E*%
G36*
X38307526Y46551430D02*
G01*
X38307526Y46710180D01*
X39093021Y46710180D01*
X39302571Y46710180D01*
X39302571Y47434080D01*
X39093021Y47434080D01*
X39093021Y46710180D01*
X38307526Y46710180D01*
X38307526Y47714115D01*
X38466276Y47714115D01*
X39089211Y48083685D01*
X39765486Y47695065D01*
X39765486Y47965575D01*
X39308286Y48213225D01*
X39308286Y48218940D01*
X39765486Y48466590D01*
X39765486Y48737100D01*
X39089211Y48348480D01*
X38466276Y48718050D01*
X38466276Y48451350D01*
X38892996Y48218940D01*
X38892996Y48213225D01*
X38466276Y47984625D01*
X38466276Y47714115D01*
X38307526Y47714115D01*
X38307526Y48895850D01*
X39115881Y49434754D01*
X39924236Y48895850D01*
X39924236Y46551430D01*
X38307526Y46551430D01*
G37*
%TO.C,kibuzzard-65A4F46A*%
G36*
X37187802Y37160479D02*
G01*
X39532010Y37160479D01*
X39532010Y35419521D01*
X37187802Y35419521D01*
X37187802Y35750250D01*
X37518531Y35750250D01*
X37766181Y35750250D01*
X38153531Y36596388D01*
X38158293Y36596388D01*
X38136068Y36370963D01*
X38136068Y35750250D01*
X38331331Y35750250D01*
X38499606Y35750250D01*
X39201281Y35750250D01*
X39201281Y36829750D01*
X38531356Y36829750D01*
X38531356Y36655125D01*
X38998081Y36655125D01*
X38998081Y36397950D01*
X38594856Y36397950D01*
X38594856Y36223325D01*
X38998081Y36223325D01*
X38998081Y35924875D01*
X38499606Y35924875D01*
X38499606Y35750250D01*
X38331331Y35750250D01*
X38331331Y36829750D01*
X38083681Y36829750D01*
X37696331Y35983612D01*
X37691568Y35983612D01*
X37713793Y36209037D01*
X37713793Y36829750D01*
X37518531Y36829750D01*
X37518531Y35750250D01*
X37187802Y35750250D01*
X37187802Y37160479D01*
G37*
%TO.C,kibuzzard-65E6974F*%
G36*
X29409271Y47232310D02*
G01*
X29410223Y47152776D01*
X29406175Y47050144D01*
X29394031Y46974658D01*
X29338786Y46886076D01*
X29227344Y46859406D01*
X29113043Y46881313D01*
X29056846Y46953703D01*
X29040653Y47099436D01*
X29040653Y47318511D01*
X29406414Y47318511D01*
X29409271Y47232310D01*
G37*
G36*
X29410223Y48331971D02*
G01*
X29394031Y48217195D01*
X29360693Y48131946D01*
X29305687Y48071700D01*
X29224486Y48031933D01*
X29111377Y48009788D01*
X28960643Y48002406D01*
X28818007Y48009550D01*
X28710136Y48030981D01*
X28631555Y48069319D01*
X28576786Y48127183D01*
X28541305Y48208860D01*
X28520588Y48318636D01*
X28513445Y48408171D01*
X28511063Y48482466D01*
X29404508Y48482466D01*
X29410223Y48331971D01*
G37*
G36*
X28131333Y45325246D02*
G01*
X28131333Y45956436D01*
X28290083Y45956436D01*
X28298656Y45798797D01*
X28324373Y45680211D01*
X28370093Y45594724D01*
X28438673Y45536383D01*
X28535828Y45500903D01*
X28667273Y45483996D01*
X28667273Y45720216D01*
X28565356Y45748791D01*
X28514873Y45820228D01*
X28499633Y45954531D01*
X28510111Y46047400D01*
X28541543Y46116456D01*
X28597741Y46165271D01*
X28682513Y46197418D01*
X28802052Y46215278D01*
X28962548Y46221231D01*
X29119473Y46214563D01*
X29235916Y46194561D01*
X29318069Y46159080D01*
X29372123Y46105978D01*
X29402127Y46030969D01*
X29412129Y45929766D01*
X29403556Y45812608D01*
X29374028Y45718311D01*
X29082563Y45718311D01*
X29082563Y45986916D01*
X28874918Y45986916D01*
X28874918Y45487806D01*
X29520713Y45487806D01*
X29570243Y45606392D01*
X29600724Y45706881D01*
X29616440Y45806893D01*
X29621679Y45924051D01*
X29615011Y46054226D01*
X29595008Y46162811D01*
X29561671Y46249806D01*
X29481185Y46347675D01*
X29359741Y46412683D01*
X29251897Y46439671D01*
X29117594Y46455863D01*
X28956833Y46461261D01*
X28795014Y46456181D01*
X28660077Y46440941D01*
X28552021Y46415541D01*
X28430577Y46354343D01*
X28350091Y46262188D01*
X28316753Y46180379D01*
X28296751Y46078462D01*
X28290083Y45956436D01*
X28131333Y45956436D01*
X28131333Y47244835D01*
X28299787Y47244835D01*
X28303207Y47111078D01*
X28314002Y46993603D01*
X28331993Y46899411D01*
X28375570Y46793445D01*
X28441531Y46723198D01*
X28534638Y46683908D01*
X28659653Y46670811D01*
X28769667Y46680098D01*
X28844438Y46707958D01*
X28892540Y46760108D01*
X28922543Y46842261D01*
X28933973Y46842261D01*
X28983504Y46704148D01*
X29078753Y46635568D01*
X29150667Y46620566D01*
X29244488Y46615566D01*
X29375933Y46628425D01*
X29473089Y46667001D01*
X29541430Y46735819D01*
X29586436Y46839403D01*
X29604957Y46931584D01*
X29616069Y47046837D01*
X29619773Y47185161D01*
X29617657Y47301154D01*
X29611307Y47425614D01*
X29600724Y47558541D01*
X28305323Y47558541D01*
X28299787Y47244835D01*
X28131333Y47244835D01*
X28131333Y48505326D01*
X28301513Y48505326D01*
X28303895Y48402456D01*
X28311038Y48311016D01*
X28330088Y48177137D01*
X28359298Y48065059D01*
X28398668Y47974783D01*
X28482250Y47873104D01*
X28599646Y47806191D01*
X28700928Y47778674D01*
X28825706Y47762164D01*
X28973978Y47756661D01*
X29129024Y47763011D01*
X29258882Y47782061D01*
X29363551Y47813811D01*
X29481899Y47890487D01*
X29560718Y48006216D01*
X29593527Y48108874D01*
X29613212Y48236509D01*
X29619773Y48389121D01*
X29618080Y48489239D01*
X29613000Y48601634D01*
X29604534Y48726306D01*
X28309133Y48726306D01*
X28303418Y48610101D01*
X28301513Y48505326D01*
X28131333Y48505326D01*
X28131333Y48885056D01*
X28955881Y49434754D01*
X29780429Y48885056D01*
X29780429Y45325246D01*
X28131333Y45325246D01*
G37*
G36*
X28831103Y47051811D02*
G01*
X28795861Y46940368D01*
X28676798Y46910841D01*
X28556783Y46949893D01*
X28528685Y47006329D01*
X28512968Y47097531D01*
X28507253Y47255646D01*
X28507253Y47318511D01*
X28831103Y47318511D01*
X28831103Y47051811D01*
G37*
%TO.C,kibuzzard-65E69089*%
G36*
X30026782Y23470938D02*
G01*
X29779132Y23470938D01*
X29901369Y23924963D01*
X29904545Y23924963D01*
X30026782Y23470938D01*
G37*
G36*
X29121378Y24468417D02*
G01*
X31579886Y24468417D01*
X31579886Y22711583D01*
X29121378Y22711583D01*
X29121378Y23042312D01*
X29452107Y23042312D01*
X29653719Y23042312D01*
X29731507Y23301075D01*
X30074407Y23301075D01*
X30152194Y23042312D01*
X30353807Y23042312D01*
X30482395Y23042312D01*
X31225345Y23042312D01*
X31225345Y23304250D01*
X31125927Y23380252D01*
X31040401Y23446331D01*
X30968765Y23502489D01*
X30911020Y23548725D01*
X30819341Y23626116D01*
X30747507Y23693188D01*
X30706232Y23753513D01*
X30695120Y23826538D01*
X30710201Y23911469D01*
X30761795Y23953538D01*
X30864982Y23966238D01*
X30968963Y23952744D01*
X31023732Y23908294D01*
X31045957Y23820188D01*
X31249157Y23820188D01*
X31235465Y23931114D01*
X31207088Y24013069D01*
X31160257Y24070814D01*
X31091201Y24109113D01*
X30994959Y24130544D01*
X30866570Y24137688D01*
X30737387Y24130742D01*
X30641938Y24109906D01*
X30574668Y24072203D01*
X30530019Y24014656D01*
X30505016Y23933098D01*
X30496682Y23823363D01*
X30502635Y23746766D01*
X30520494Y23685250D01*
X30555023Y23628100D01*
X30610982Y23564600D01*
X30695715Y23484034D01*
X30781638Y23410613D01*
X30846638Y23359989D01*
X30926277Y23301251D01*
X31020557Y23234400D01*
X31020557Y23220112D01*
X30482395Y23220112D01*
X30482395Y23042312D01*
X30353807Y23042312D01*
X30031545Y24121813D01*
X29774369Y24121813D01*
X29452107Y23042312D01*
X29121378Y23042312D01*
X29121378Y24468417D01*
G37*
%TO.C,kibuzzard-65E699B6*%
G36*
X57611526Y47536316D02*
G01*
X57611526Y47714116D01*
X57770276Y47714116D01*
X58393211Y48083686D01*
X59069486Y47695066D01*
X59069486Y47965576D01*
X58612286Y48213226D01*
X58612286Y48218941D01*
X59069486Y48466591D01*
X59069486Y48737101D01*
X58393211Y48348481D01*
X57770276Y48718051D01*
X57770276Y48451351D01*
X58196996Y48218941D01*
X58196996Y48213226D01*
X57770276Y47984626D01*
X57770276Y47714116D01*
X57611526Y47714116D01*
X57611526Y48895851D01*
X58419881Y49434754D01*
X59228236Y48895851D01*
X59228236Y47536316D01*
X57611526Y47536316D01*
G37*
%TO.C,kibuzzard-65E68D88*%
G36*
X37069269Y18881475D02*
G01*
X37069269Y18590963D01*
X36864481Y18590963D01*
X36766850Y18625094D01*
X36740656Y18748125D01*
X36767644Y18845756D01*
X36867656Y18878300D01*
X36944650Y18881872D01*
X37001006Y18883063D01*
X37069269Y18881475D01*
G37*
G36*
X38998081Y18140112D02*
G01*
X38872669Y18135350D01*
X38777022Y18148844D01*
X38705981Y18176625D01*
X38655777Y18222464D01*
X38622638Y18290131D01*
X38604183Y18384389D01*
X38598031Y18510000D01*
X38603984Y18628864D01*
X38621844Y18718756D01*
X38653792Y18784241D01*
X38702013Y18829881D01*
X38770077Y18859448D01*
X38861556Y18876713D01*
X38936169Y18882666D01*
X38998081Y18884650D01*
X38998081Y18140112D01*
G37*
G36*
X36147990Y19390004D02*
G01*
X39532010Y19390004D01*
X39532010Y17629996D01*
X36147990Y17629996D01*
X36147990Y17973425D01*
X36478719Y17973425D01*
X36696206Y17973425D01*
X36770819Y18295687D01*
X36827969Y18390144D01*
X36883531Y18408598D01*
X36967669Y18414750D01*
X37069269Y18414750D01*
X37069269Y17973425D01*
X37270881Y17973425D01*
X37561394Y17973425D01*
X38156706Y17973425D01*
X38156706Y18149638D01*
X37958269Y18149638D01*
X37958269Y18498887D01*
X38393244Y18498887D01*
X38398535Y18369683D01*
X38414410Y18261468D01*
X38440869Y18174244D01*
X38504766Y18075620D01*
X38601206Y18009937D01*
X38686755Y17982597D01*
X38793117Y17966193D01*
X38920294Y17960725D01*
X39003726Y17962136D01*
X39097388Y17966369D01*
X39201281Y17973425D01*
X39201281Y19052925D01*
X39104444Y19057688D01*
X39017131Y19059275D01*
X38931406Y19057291D01*
X38855206Y19051337D01*
X38743640Y19035463D01*
X38650242Y19011121D01*
X38575013Y18978313D01*
X38490280Y18908661D01*
X38434519Y18810831D01*
X38411588Y18726429D01*
X38397830Y18622448D01*
X38393244Y18498887D01*
X37958269Y18498887D01*
X37958269Y18876713D01*
X38145594Y18876713D01*
X38145594Y19052925D01*
X37572506Y19052925D01*
X37572506Y18876713D01*
X37759831Y18876713D01*
X37759831Y18149638D01*
X37561394Y18149638D01*
X37561394Y17973425D01*
X37270881Y17973425D01*
X37270881Y19051337D01*
X37081969Y19057688D01*
X36988306Y19059275D01*
X36880621Y19055924D01*
X36790398Y19045869D01*
X36717637Y19029113D01*
X36635484Y18989425D01*
X36581112Y18930688D01*
X36550752Y18848931D01*
X36540631Y18740188D01*
X36557300Y18612394D01*
X36613656Y18540956D01*
X36726369Y18505238D01*
X36726369Y18490950D01*
X36627150Y18441737D01*
X36596392Y18389747D01*
X36569206Y18309975D01*
X36478719Y17973425D01*
X36147990Y17973425D01*
X36147990Y19390004D01*
G37*
%TO.C,kibuzzard-65E6A533*%
G36*
X55787488Y6245675D02*
G01*
X55746531Y6128518D01*
X55598893Y6097085D01*
X55481736Y6129470D01*
X55442683Y6249485D01*
X55438397Y6341878D01*
X55436968Y6409505D01*
X55438873Y6491420D01*
X55787488Y6491420D01*
X55787488Y6245675D01*
G37*
G36*
X55879881Y3952267D02*
G01*
X55055333Y4501965D01*
X55055333Y5156015D01*
X55214083Y5156015D01*
X55222180Y4993852D01*
X55246468Y4873123D01*
X55290283Y4787160D01*
X55356958Y4729295D01*
X55451732Y4696910D01*
X55579843Y4687385D01*
X55579843Y4929320D01*
X55483641Y4956943D01*
X55436016Y5027428D01*
X55421728Y5163635D01*
X55435063Y5303653D01*
X55478878Y5373185D01*
X55568413Y5394140D01*
X55666521Y5320798D01*
X55713432Y5218642D01*
X55768438Y5058860D01*
X55818445Y4920510D01*
X55869403Y4817878D01*
X55926315Y4745250D01*
X55994181Y4696910D01*
X56077763Y4669764D01*
X56181823Y4660715D01*
X56308506Y4671669D01*
X56402803Y4704530D01*
X56469478Y4763347D01*
X56513293Y4852168D01*
X56537582Y4978136D01*
X56545679Y5148395D01*
X56536630Y5323893D01*
X56509484Y5454148D01*
X56460430Y5545826D01*
X56385658Y5605595D01*
X56279931Y5637028D01*
X56138008Y5643695D01*
X56138008Y5405570D01*
X56260881Y5375090D01*
X56320888Y5294128D01*
X56333747Y5225786D01*
X56338034Y5133155D01*
X56324698Y4991233D01*
X56278026Y4919795D01*
X56183728Y4898840D01*
X56086573Y4929320D01*
X56013231Y5029333D01*
X55978703Y5113391D01*
X55941793Y5226500D01*
X55893930Y5368185D01*
X55845591Y5473198D01*
X55792489Y5547255D01*
X55730338Y5596070D01*
X55654615Y5623216D01*
X55560793Y5632265D01*
X55440778Y5621550D01*
X55351243Y5589403D01*
X55287664Y5531776D01*
X55245516Y5444623D01*
X55221942Y5321512D01*
X55214083Y5156015D01*
X55055333Y5156015D01*
X55055333Y6394265D01*
X55225513Y6394265D01*
X55229535Y6265043D01*
X55241600Y6156775D01*
X55261708Y6069463D01*
X55309333Y5970879D01*
X55379818Y5905633D01*
X55477926Y5869200D01*
X55608418Y5857055D01*
X55761771Y5877058D01*
X55847496Y5944685D01*
X55890358Y6079940D01*
X55907504Y6079940D01*
X55966559Y5960878D01*
X56028947Y5923968D01*
X56124673Y5891345D01*
X56528534Y5782760D01*
X56528534Y6043745D01*
X56141818Y6133280D01*
X56028471Y6201860D01*
X56006325Y6268535D01*
X55998943Y6369500D01*
X55998943Y6491420D01*
X56528534Y6491420D01*
X56528534Y6733355D01*
X55235038Y6733355D01*
X55227418Y6506660D01*
X55225513Y6394265D01*
X55055333Y6394265D01*
X55055333Y6892105D01*
X56704429Y6892105D01*
X56704429Y4501965D01*
X55879881Y3952267D01*
G37*
%TO.C,kibuzzard-65E6977A*%
G36*
X45622726Y43682501D02*
G01*
X45581768Y43565343D01*
X45434131Y43533911D01*
X45316973Y43566296D01*
X45277921Y43686311D01*
X45273635Y43778703D01*
X45272206Y43846331D01*
X45274111Y43928246D01*
X45622726Y43928246D01*
X45622726Y43682501D01*
G37*
G36*
X44902001Y43060836D02*
G01*
X44902001Y43831091D01*
X45060751Y43831091D01*
X45064773Y43701868D01*
X45076838Y43593601D01*
X45096946Y43506288D01*
X45144571Y43407705D01*
X45215056Y43342458D01*
X45313163Y43306025D01*
X45443656Y43293881D01*
X45597008Y43313883D01*
X45682733Y43381511D01*
X45725596Y43516766D01*
X45742741Y43516766D01*
X45801796Y43397703D01*
X45864185Y43360794D01*
X45959911Y43328171D01*
X46363771Y43219586D01*
X46363771Y43480571D01*
X45977056Y43570106D01*
X45863708Y43638686D01*
X45841563Y43705361D01*
X45834181Y43806326D01*
X45834181Y43928246D01*
X46363771Y43928246D01*
X46363771Y44170181D01*
X45070276Y44170181D01*
X45062656Y43943486D01*
X45060751Y43831091D01*
X44902001Y43831091D01*
X44902001Y44513081D01*
X45691306Y44513081D01*
X45900856Y44513081D01*
X45900856Y45236981D01*
X45691306Y45236981D01*
X45691306Y44513081D01*
X44902001Y44513081D01*
X44902001Y45530351D01*
X45068371Y45530351D01*
X46363771Y45530351D01*
X46363771Y45827531D01*
X45348406Y46292351D01*
X45348406Y46298066D01*
X45618916Y46271396D01*
X46363771Y46271396D01*
X46363771Y46505711D01*
X45068371Y46505711D01*
X45068371Y46208531D01*
X46083736Y45743711D01*
X46083736Y45737996D01*
X45813226Y45764666D01*
X45068371Y45764666D01*
X45068371Y45530351D01*
X44902001Y45530351D01*
X44902001Y47408681D01*
X45060751Y47408681D01*
X45063132Y47305811D01*
X45070276Y47214371D01*
X45089326Y47080492D01*
X45118536Y46968414D01*
X45157906Y46878138D01*
X45241488Y46776459D01*
X45358883Y46709546D01*
X45460166Y46682029D01*
X45584944Y46665519D01*
X45733216Y46660016D01*
X45888262Y46666366D01*
X46018119Y46685416D01*
X46122788Y46717166D01*
X46241137Y46793842D01*
X46319956Y46909571D01*
X46352764Y47012229D01*
X46372449Y47139864D01*
X46379011Y47292476D01*
X46377318Y47392594D01*
X46372238Y47504989D01*
X46363771Y47629661D01*
X45068371Y47629661D01*
X45062656Y47513456D01*
X45060751Y47408681D01*
X44902001Y47408681D01*
X44902001Y48433571D01*
X45062656Y48433571D01*
X45066783Y48285722D01*
X45079166Y48162214D01*
X45099803Y48063048D01*
X45150048Y47951606D01*
X45226486Y47878263D01*
X45334595Y47837544D01*
X45479851Y47823971D01*
X45623202Y47835639D01*
X45729406Y47870643D01*
X45804415Y47933746D01*
X45854183Y48029711D01*
X45874821Y48115013D01*
X45887204Y48221058D01*
X45891331Y48347846D01*
X45891331Y48486911D01*
X46363771Y48486911D01*
X46363771Y48730751D01*
X45068371Y48730751D01*
X45062656Y48433571D01*
X44902001Y48433571D01*
X44902001Y48889501D01*
X45719881Y49434754D01*
X46537761Y48889501D01*
X46537761Y43060836D01*
X44902001Y43060836D01*
G37*
G36*
X45679876Y48366896D02*
G01*
X45675113Y48262121D01*
X45660826Y48184016D01*
X45597961Y48092576D01*
X45472231Y48065906D01*
X45352216Y48096386D01*
X45292208Y48198303D01*
X45278635Y48284743D01*
X45274111Y48401186D01*
X45274111Y48486911D01*
X45679876Y48486911D01*
X45679876Y48366896D01*
G37*
G36*
X46169461Y47235326D02*
G01*
X46153268Y47120550D01*
X46119931Y47035301D01*
X46064924Y46975055D01*
X45983724Y46935288D01*
X45870614Y46913143D01*
X45719881Y46905761D01*
X45577244Y46912905D01*
X45469373Y46934336D01*
X45390792Y46972674D01*
X45336023Y47030538D01*
X45300543Y47112215D01*
X45279826Y47221991D01*
X45272682Y47311526D01*
X45270301Y47385821D01*
X46163746Y47385821D01*
X46169461Y47235326D01*
G37*
%TO.C,kibuzzard-65E68ECB*%
G36*
X55288746Y27000479D02*
G01*
X57693280Y27000479D01*
X57693280Y25259521D01*
X55288746Y25259521D01*
X55288746Y25590250D01*
X55619475Y25590250D01*
X55821088Y25590250D01*
X55898875Y25849012D01*
X56241775Y25849012D01*
X56319563Y25590250D01*
X56521175Y25590250D01*
X56824388Y25590250D01*
X57021238Y25590250D01*
X57021238Y26349075D01*
X57014888Y26447500D01*
X57076800Y26396700D01*
X57362550Y26220488D01*
X57362550Y26430037D01*
X57021238Y26669750D01*
X56824388Y26669750D01*
X56824388Y25590250D01*
X56521175Y25590250D01*
X56198913Y26669750D01*
X55941738Y26669750D01*
X55619475Y25590250D01*
X55288746Y25590250D01*
X55288746Y27000479D01*
G37*
G36*
X56194150Y26018875D02*
G01*
X55946500Y26018875D01*
X56068738Y26472900D01*
X56071913Y26472900D01*
X56194150Y26018875D01*
G37*
%TO.C,kibuzzard-65E69767*%
G36*
X35767526Y46564766D02*
G01*
X35767526Y46723516D01*
X36553021Y46723516D01*
X36762571Y46723516D01*
X36762571Y47447416D01*
X36553021Y47447416D01*
X36553021Y46723516D01*
X35767526Y46723516D01*
X35767526Y47717926D01*
X35926276Y47717926D01*
X36697801Y48106546D01*
X37225486Y48106546D01*
X37225486Y48350386D01*
X36697801Y48350386D01*
X35926276Y48737101D01*
X35926276Y48474211D01*
X36457771Y48232276D01*
X36457771Y48222751D01*
X35926276Y47978911D01*
X35926276Y47717926D01*
X35767526Y47717926D01*
X35767526Y48895851D01*
X36575881Y49434754D01*
X37384236Y48895851D01*
X37384236Y46564766D01*
X35767526Y46564766D01*
G37*
%TO.C,kibuzzard-65E69903*%
G36*
X42439996Y23145771D02*
G01*
X42439996Y23476500D01*
X42777075Y23476500D01*
X43856575Y23476500D01*
X43856575Y23724150D01*
X43010438Y24111500D01*
X43010438Y24116262D01*
X43235862Y24094038D01*
X43856575Y24094038D01*
X43856575Y24289300D01*
X42777075Y24289300D01*
X42777075Y24041650D01*
X43623213Y23654300D01*
X43623213Y23649538D01*
X43397788Y23671762D01*
X42777075Y23671762D01*
X42777075Y23476500D01*
X42439996Y23476500D01*
X42439996Y25041775D01*
X42770725Y25041775D01*
X42772709Y24956050D01*
X42778663Y24879850D01*
X42794537Y24768284D01*
X42818879Y24674886D01*
X42851687Y24599656D01*
X42921339Y24514923D01*
X43019169Y24459163D01*
X43103571Y24436232D01*
X43207552Y24422474D01*
X43331113Y24417888D01*
X43460317Y24423179D01*
X43568532Y24439054D01*
X43655756Y24465513D01*
X43754380Y24529409D01*
X43820063Y24625850D01*
X43847403Y24711399D01*
X43863807Y24817761D01*
X43869275Y24944937D01*
X43867864Y25028369D01*
X43863631Y25122032D01*
X43856575Y25225925D01*
X42777075Y25225925D01*
X42772312Y25129088D01*
X42770725Y25041775D01*
X42439996Y25041775D01*
X42439996Y25895850D01*
X42772312Y25895850D01*
X42775752Y25772642D01*
X42786071Y25669719D01*
X42803269Y25587081D01*
X42845139Y25494213D01*
X42908837Y25433094D01*
X42998928Y25399161D01*
X43119975Y25387850D01*
X43239434Y25397573D01*
X43327937Y25426744D01*
X43390445Y25479330D01*
X43431919Y25559300D01*
X43449117Y25630385D01*
X43459435Y25718756D01*
X43462875Y25824413D01*
X43462875Y25940300D01*
X43856575Y25940300D01*
X43856575Y26143500D01*
X42777075Y26143500D01*
X42772312Y25895850D01*
X42439996Y25895850D01*
X42439996Y26474229D01*
X44200004Y26474229D01*
X44200004Y23145771D01*
X42439996Y23145771D01*
G37*
G36*
X43694650Y24897313D02*
G01*
X43681156Y24801666D01*
X43653375Y24730625D01*
X43607536Y24680420D01*
X43539869Y24647281D01*
X43445611Y24628827D01*
X43320000Y24622675D01*
X43201136Y24628628D01*
X43111244Y24646487D01*
X43045759Y24678436D01*
X43000119Y24726656D01*
X42970552Y24794720D01*
X42953287Y24886200D01*
X42947334Y24960813D01*
X42945350Y25022725D01*
X43689888Y25022725D01*
X43694650Y24897313D01*
G37*
G36*
X43286663Y25840288D02*
G01*
X43282694Y25752975D01*
X43270788Y25687888D01*
X43218400Y25611688D01*
X43113625Y25589463D01*
X43013612Y25614863D01*
X42963606Y25699794D01*
X42952295Y25771827D01*
X42948525Y25868863D01*
X42948525Y25940300D01*
X43286663Y25940300D01*
X43286663Y25840288D01*
G37*
%TO.C,kibuzzard-65E69758*%
G36*
X30678001Y43104650D02*
G01*
X30678001Y43263400D01*
X30844371Y43263400D01*
X31061541Y43263400D01*
X31061541Y43610110D01*
X32139771Y43610110D01*
X32139771Y43853950D01*
X31061541Y43853950D01*
X31061541Y44200660D01*
X30844371Y44200660D01*
X30844371Y43263400D01*
X30678001Y43263400D01*
X30678001Y44513080D01*
X31467306Y44513080D01*
X31676856Y44513080D01*
X31676856Y45236980D01*
X31467306Y45236980D01*
X31467306Y44513080D01*
X30678001Y44513080D01*
X30678001Y45530350D01*
X30844371Y45530350D01*
X32139771Y45530350D01*
X32139771Y45827530D01*
X31124406Y46292350D01*
X31124406Y46298065D01*
X31394916Y46271395D01*
X32139771Y46271395D01*
X32139771Y46505710D01*
X30844371Y46505710D01*
X30844371Y46208530D01*
X31859736Y45743710D01*
X31859736Y45737995D01*
X31589226Y45764665D01*
X30844371Y45764665D01*
X30844371Y45530350D01*
X30678001Y45530350D01*
X30678001Y47408680D01*
X30836751Y47408680D01*
X30839132Y47305810D01*
X30846276Y47214370D01*
X30865326Y47080491D01*
X30894536Y46968414D01*
X30933906Y46878138D01*
X31017488Y46776458D01*
X31134883Y46709545D01*
X31236166Y46682029D01*
X31360944Y46665519D01*
X31509216Y46660015D01*
X31664262Y46666365D01*
X31794119Y46685415D01*
X31898788Y46717165D01*
X32017137Y46793842D01*
X32095956Y46909570D01*
X32128764Y47012229D01*
X32148449Y47139864D01*
X32155011Y47292475D01*
X32153318Y47392594D01*
X32148238Y47504989D01*
X32139771Y47629660D01*
X30844371Y47629660D01*
X30838656Y47513455D01*
X30836751Y47408680D01*
X30678001Y47408680D01*
X30678001Y48433570D01*
X30838656Y48433570D01*
X30842783Y48285721D01*
X30855166Y48162214D01*
X30875803Y48063048D01*
X30926048Y47951605D01*
X31002486Y47878263D01*
X31110595Y47837543D01*
X31255851Y47823970D01*
X31399202Y47835638D01*
X31505406Y47870643D01*
X31580415Y47933746D01*
X31630183Y48029710D01*
X31650821Y48115012D01*
X31663204Y48221057D01*
X31667331Y48347845D01*
X31667331Y48486910D01*
X32139771Y48486910D01*
X32139771Y48730750D01*
X30844371Y48730750D01*
X30838656Y48433570D01*
X30678001Y48433570D01*
X30678001Y48889500D01*
X31495881Y49434754D01*
X32313761Y48889500D01*
X32313761Y43104650D01*
X30678001Y43104650D01*
G37*
G36*
X31945461Y47235325D02*
G01*
X31929268Y47120549D01*
X31895931Y47035300D01*
X31840924Y46975055D01*
X31759724Y46935288D01*
X31646614Y46913142D01*
X31495881Y46905760D01*
X31353244Y46912904D01*
X31245373Y46934335D01*
X31166792Y46972673D01*
X31112023Y47030538D01*
X31076543Y47112215D01*
X31055826Y47221990D01*
X31048682Y47311525D01*
X31046301Y47385820D01*
X31939746Y47385820D01*
X31945461Y47235325D01*
G37*
G36*
X31455876Y48366895D02*
G01*
X31451113Y48262120D01*
X31436826Y48184015D01*
X31373961Y48092575D01*
X31248231Y48065905D01*
X31128216Y48096385D01*
X31068208Y48198303D01*
X31054635Y48284742D01*
X31050111Y48401185D01*
X31050111Y48486910D01*
X31455876Y48486910D01*
X31455876Y48366895D01*
G37*
%TO.C,kibuzzard-65E68EF2*%
G36*
X55288746Y19395560D02*
G01*
X58680704Y19395560D01*
X58680704Y17624440D01*
X55288746Y17624440D01*
X55288746Y18494919D01*
X55619475Y18494919D01*
X55624767Y18365714D01*
X55640642Y18257499D01*
X55667100Y18170275D01*
X55730997Y18071652D01*
X55827437Y18005969D01*
X55912986Y17978628D01*
X56019349Y17962224D01*
X56146525Y17956756D01*
X56229957Y17958167D01*
X56323619Y17962401D01*
X56427512Y17969456D01*
X56583088Y17969456D01*
X56830738Y17969456D01*
X57218087Y18815594D01*
X57222850Y18815594D01*
X57200625Y18590169D01*
X57200625Y17969456D01*
X57395888Y17969456D01*
X57395888Y18750506D01*
X57535588Y18750506D01*
X57732438Y18750506D01*
X57756250Y18835438D01*
X57815781Y18877506D01*
X57927700Y18890206D01*
X58005091Y18881475D01*
X58062638Y18855281D01*
X58103317Y18808450D01*
X58130106Y18737806D01*
X58144989Y18638191D01*
X58149950Y18504444D01*
X58144394Y18373673D01*
X58127725Y18276637D01*
X58098158Y18208177D01*
X58053906Y18163131D01*
X57991398Y18138128D01*
X57907063Y18129794D01*
X57809431Y18136938D01*
X57730850Y18161544D01*
X57730850Y18404431D01*
X57954688Y18404431D01*
X57954688Y18577469D01*
X57538763Y18577469D01*
X57538763Y18039306D01*
X57637584Y17998031D01*
X57721325Y17972631D01*
X57804669Y17959534D01*
X57902300Y17955169D01*
X58010779Y17960725D01*
X58101267Y17977394D01*
X58173763Y18005175D01*
X58255320Y18072247D01*
X58309494Y18173450D01*
X58331983Y18263320D01*
X58345477Y18375239D01*
X58349975Y18509206D01*
X58345742Y18644056D01*
X58333042Y18756503D01*
X58311875Y18846550D01*
X58260877Y18947753D01*
X58184081Y19014825D01*
X58115907Y19042606D01*
X58030976Y19059275D01*
X57929288Y19064831D01*
X57797922Y19057688D01*
X57699100Y19036256D01*
X57627861Y18998156D01*
X57579244Y18941006D01*
X57549677Y18860044D01*
X57535588Y18750506D01*
X57395888Y18750506D01*
X57395888Y19048956D01*
X57148238Y19048956D01*
X56760887Y18202819D01*
X56756125Y18202819D01*
X56778350Y18428244D01*
X56778350Y19048956D01*
X56583088Y19048956D01*
X56583088Y17969456D01*
X56427512Y17969456D01*
X56427512Y19048956D01*
X56330675Y19053719D01*
X56243362Y19055306D01*
X56157637Y19053322D01*
X56081437Y19047369D01*
X55969872Y19031494D01*
X55876474Y19007152D01*
X55801244Y18974344D01*
X55716511Y18904692D01*
X55660750Y18806863D01*
X55637819Y18722460D01*
X55624061Y18618479D01*
X55619475Y18494919D01*
X55288746Y18494919D01*
X55288746Y19395560D01*
G37*
G36*
X56224313Y18136144D02*
G01*
X56098900Y18131381D01*
X56003253Y18144875D01*
X55932212Y18172656D01*
X55882008Y18218495D01*
X55848869Y18286163D01*
X55830414Y18380420D01*
X55824262Y18506031D01*
X55830216Y18624895D01*
X55848075Y18714788D01*
X55880023Y18780272D01*
X55928244Y18825913D01*
X55996308Y18855480D01*
X56087787Y18872744D01*
X56162400Y18878697D01*
X56224313Y18880681D01*
X56224313Y18136144D01*
G37*
%TO.C,kibuzzard-65E68F9E*%
G36*
X36189264Y29555560D02*
G01*
X39549472Y29555560D01*
X39549472Y27784440D01*
X36189264Y27784440D01*
X36189264Y28129456D01*
X36519993Y28129456D01*
X37262943Y28129456D01*
X37262943Y28391394D01*
X37227641Y28418381D01*
X37435980Y28418381D01*
X37445109Y28312813D01*
X37472493Y28234231D01*
X37521507Y28178669D01*
X37595524Y28142156D01*
X37700498Y28121916D01*
X37842380Y28115169D01*
X37988629Y28122709D01*
X38021002Y28129456D01*
X38375780Y28129456D01*
X38563105Y28129456D01*
X38563105Y28675556D01*
X38544055Y28956544D01*
X38550405Y28956544D01*
X38717093Y28489819D01*
X38877430Y28489819D01*
X39044118Y28956544D01*
X39050468Y28956544D01*
X39031418Y28675556D01*
X39031418Y28129456D01*
X39218743Y28129456D01*
X39218743Y29208956D01*
X38979030Y29208956D01*
X38805993Y28691431D01*
X38788530Y28691431D01*
X38612318Y29208956D01*
X38375780Y29208956D01*
X38375780Y28129456D01*
X38021002Y28129456D01*
X38097174Y28145331D01*
X38173573Y28186209D01*
X38223380Y28248519D01*
X38249574Y28336625D01*
X38255130Y28454894D01*
X38056693Y28454894D01*
X38031293Y28352500D01*
X37963824Y28302494D01*
X37906873Y28291778D01*
X37829680Y28288206D01*
X37711412Y28299319D01*
X37651880Y28338212D01*
X37634418Y28416794D01*
X37659818Y28497756D01*
X37743162Y28558875D01*
X37813210Y28587648D01*
X37907468Y28618406D01*
X38025538Y28658292D01*
X38113049Y28698575D01*
X38174763Y28742827D01*
X38215443Y28794619D01*
X38238065Y28857722D01*
X38245605Y28935906D01*
X38236676Y29035919D01*
X38209887Y29110531D01*
X38161865Y29163514D01*
X38089237Y29198638D01*
X37986645Y29218283D01*
X37848730Y29224831D01*
X37713595Y29218084D01*
X37612987Y29197844D01*
X37541351Y29161331D01*
X37493130Y29105769D01*
X37466143Y29026791D01*
X37458205Y28920031D01*
X37659818Y28920031D01*
X37682837Y29000200D01*
X37741574Y29039888D01*
X37855080Y29051794D01*
X37971762Y29040681D01*
X38029705Y29004169D01*
X38047168Y28929556D01*
X37986049Y28847800D01*
X37900920Y28808708D01*
X37767768Y28762869D01*
X37652476Y28721197D01*
X37566949Y28678731D01*
X37506426Y28631305D01*
X37466143Y28574750D01*
X37443521Y28505098D01*
X37435980Y28418381D01*
X37227641Y28418381D01*
X37163526Y28467395D01*
X37077999Y28533475D01*
X37006363Y28589633D01*
X36948618Y28635869D01*
X36856940Y28713259D01*
X36785105Y28780331D01*
X36743830Y28840656D01*
X36732718Y28913681D01*
X36747799Y28998613D01*
X36799393Y29040681D01*
X36902580Y29053381D01*
X37006562Y29039888D01*
X37061330Y28995438D01*
X37083555Y28907331D01*
X37286755Y28907331D01*
X37273063Y29018258D01*
X37244687Y29100213D01*
X37197855Y29157958D01*
X37128799Y29196256D01*
X37032557Y29217688D01*
X36904168Y29224831D01*
X36774985Y29217886D01*
X36679537Y29197050D01*
X36612266Y29159347D01*
X36567618Y29101800D01*
X36542615Y29020242D01*
X36534280Y28910506D01*
X36540234Y28833909D01*
X36558093Y28772394D01*
X36592621Y28715244D01*
X36648580Y28651744D01*
X36733313Y28571178D01*
X36819237Y28497756D01*
X36884236Y28447133D01*
X36963876Y28388395D01*
X37058155Y28321544D01*
X37058155Y28307256D01*
X36519993Y28307256D01*
X36519993Y28129456D01*
X36189264Y28129456D01*
X36189264Y29555560D01*
G37*
%TO.C,kibuzzard-65E68ECB*%
G36*
X29138840Y27000479D02*
G01*
X31543374Y27000479D01*
X31543374Y25259521D01*
X29138840Y25259521D01*
X29138840Y25590250D01*
X29469569Y25590250D01*
X29671182Y25590250D01*
X29748969Y25849012D01*
X30091869Y25849012D01*
X30169657Y25590250D01*
X30371269Y25590250D01*
X30674482Y25590250D01*
X30871332Y25590250D01*
X30871332Y26349075D01*
X30864982Y26447500D01*
X30926894Y26396700D01*
X31212644Y26220488D01*
X31212644Y26430037D01*
X30871332Y26669750D01*
X30674482Y26669750D01*
X30674482Y25590250D01*
X30371269Y25590250D01*
X30049007Y26669750D01*
X29791832Y26669750D01*
X29469569Y25590250D01*
X29138840Y25590250D01*
X29138840Y27000479D01*
G37*
G36*
X30044244Y26018875D02*
G01*
X29796594Y26018875D01*
X29918832Y26472900D01*
X29922007Y26472900D01*
X30044244Y26018875D01*
G37*
%TO.C,kibuzzard-65E68E7D*%
G36*
X29138840Y34635560D02*
G01*
X31567186Y34635560D01*
X31567186Y32864440D01*
X29138840Y32864440D01*
X29138840Y33209456D01*
X29469569Y33209456D01*
X29717219Y33209456D01*
X30104569Y34055594D01*
X30109332Y34055594D01*
X30087107Y33830169D01*
X30087107Y33209456D01*
X30282369Y33209456D01*
X30282369Y33990506D01*
X30422069Y33990506D01*
X30618919Y33990506D01*
X30642732Y34075438D01*
X30702263Y34117506D01*
X30814182Y34130206D01*
X30891572Y34121475D01*
X30949119Y34095281D01*
X30989799Y34048450D01*
X31016588Y33977806D01*
X31031471Y33878191D01*
X31036432Y33744444D01*
X31030876Y33613673D01*
X31014207Y33516637D01*
X30984640Y33448177D01*
X30940388Y33403131D01*
X30877880Y33378128D01*
X30793544Y33369794D01*
X30695913Y33376938D01*
X30617332Y33401544D01*
X30617332Y33644431D01*
X30841169Y33644431D01*
X30841169Y33817469D01*
X30425244Y33817469D01*
X30425244Y33279306D01*
X30524066Y33238031D01*
X30607807Y33212631D01*
X30691151Y33199534D01*
X30788782Y33195169D01*
X30897261Y33200725D01*
X30987748Y33217394D01*
X31060244Y33245175D01*
X31141802Y33312247D01*
X31195976Y33413450D01*
X31218465Y33503320D01*
X31231959Y33615239D01*
X31236457Y33749206D01*
X31232223Y33884056D01*
X31219523Y33996503D01*
X31198357Y34086550D01*
X31147358Y34187753D01*
X31070563Y34254825D01*
X31002389Y34282606D01*
X30917457Y34299275D01*
X30815769Y34304831D01*
X30684404Y34297688D01*
X30585582Y34276256D01*
X30514343Y34238156D01*
X30465726Y34181006D01*
X30436158Y34100044D01*
X30422069Y33990506D01*
X30282369Y33990506D01*
X30282369Y34288956D01*
X30034719Y34288956D01*
X29647369Y33442819D01*
X29642607Y33442819D01*
X29664832Y33668244D01*
X29664832Y34288956D01*
X29469569Y34288956D01*
X29469569Y33209456D01*
X29138840Y33209456D01*
X29138840Y34635560D01*
G37*
%TO.C,kibuzzard-65E6A52D*%
G36*
X53501568Y5420573D02*
G01*
X53618011Y5402713D01*
X53700402Y5370804D01*
X53755171Y5322703D01*
X53785889Y5254838D01*
X53796129Y5163636D01*
X53785889Y5072672D01*
X53755171Y5005521D01*
X53700402Y4958134D01*
X53618011Y4926463D01*
X53501568Y4908604D01*
X53344643Y4902651D01*
X53182957Y4908604D01*
X53063656Y4926463D01*
X52979836Y4958134D01*
X52924591Y5005521D01*
X52893873Y5072672D01*
X52883633Y5163636D01*
X52893873Y5254838D01*
X52924591Y5322703D01*
X52980074Y5370804D01*
X53064608Y5402713D01*
X53184147Y5420573D01*
X53344643Y5426526D01*
X53501568Y5420573D01*
G37*
G36*
X53339881Y3952267D02*
G01*
X52515333Y4501966D01*
X52515333Y5163636D01*
X52674083Y5163636D01*
X52680751Y5041610D01*
X52700753Y4939692D01*
X52734091Y4857883D01*
X52814815Y4765967D01*
X52936973Y4705483D01*
X53045770Y4680612D01*
X53181660Y4665690D01*
X53344643Y4660716D01*
X53505299Y4665690D01*
X53639284Y4680612D01*
X53746598Y4705483D01*
X53867090Y4765967D01*
X53946624Y4857883D01*
X53979432Y4939692D01*
X53999117Y5041610D01*
X54005679Y5163636D01*
X53999117Y5285661D01*
X53979432Y5387579D01*
X53946624Y5469388D01*
X53867090Y5561304D01*
X53746598Y5621788D01*
X53639284Y5646659D01*
X53505299Y5661581D01*
X53344643Y5666556D01*
X53181660Y5661581D01*
X53045770Y5646659D01*
X52936973Y5621788D01*
X52814815Y5561304D01*
X52734091Y5469388D01*
X52700753Y5387579D01*
X52680751Y5285661D01*
X52674083Y5163636D01*
X52515333Y5163636D01*
X52515333Y5843721D01*
X52693133Y5843721D01*
X53988534Y5843721D01*
X53988534Y6087561D01*
X53422748Y6087561D01*
X53422748Y6525711D01*
X53988534Y6525711D01*
X53988534Y6769551D01*
X52693133Y6769551D01*
X52693133Y6525711D01*
X53207483Y6525711D01*
X53207483Y6087561D01*
X52693133Y6087561D01*
X52693133Y5843721D01*
X52515333Y5843721D01*
X52515333Y6928301D01*
X54164429Y6928301D01*
X54164429Y4501966D01*
X53339881Y3952267D01*
G37*
%TO.C,kibuzzard-65E68EA2*%
G36*
X29138840Y32094767D02*
G01*
X31562424Y32094767D01*
X31562424Y30325233D01*
X29138840Y30325233D01*
X29138840Y30968700D01*
X29469570Y30968700D01*
X29480285Y30859163D01*
X29512432Y30778200D01*
X29569780Y30721248D01*
X29656101Y30683744D01*
X29732918Y30668310D01*
X29828962Y30659049D01*
X29944232Y30655962D01*
X30040893Y30657726D01*
X30144610Y30663018D01*
X30215515Y30668663D01*
X30464932Y30668663D01*
X31207882Y30668663D01*
X31207882Y30930600D01*
X31108465Y31006602D01*
X31022938Y31072681D01*
X30951302Y31128839D01*
X30893557Y31175075D01*
X30801879Y31252466D01*
X30730045Y31319538D01*
X30688770Y31379863D01*
X30677657Y31452888D01*
X30692738Y31537819D01*
X30744332Y31579888D01*
X30847520Y31592588D01*
X30951501Y31579094D01*
X31006270Y31534644D01*
X31028495Y31446538D01*
X31231695Y31446538D01*
X31218002Y31557464D01*
X31189626Y31639419D01*
X31142795Y31697164D01*
X31073738Y31735463D01*
X30977496Y31756894D01*
X30849107Y31764038D01*
X30719924Y31757092D01*
X30624476Y31736256D01*
X30557205Y31698553D01*
X30512557Y31641006D01*
X30487554Y31559448D01*
X30479220Y31449713D01*
X30485173Y31373116D01*
X30503032Y31311600D01*
X30537560Y31254450D01*
X30593520Y31190950D01*
X30678252Y31110384D01*
X30764176Y31036963D01*
X30829175Y30986339D01*
X30908815Y30927601D01*
X31003095Y30860750D01*
X31003095Y30846462D01*
X30464932Y30846462D01*
X30464932Y30668663D01*
X30215515Y30668663D01*
X30255382Y30671837D01*
X30255382Y31751338D01*
X29993961Y31755951D01*
X29882496Y31753101D01*
X29784600Y31744106D01*
X29706107Y31729113D01*
X29617802Y31692798D01*
X29559263Y31637831D01*
X29526521Y31560242D01*
X29515607Y31456063D01*
X29523346Y31364384D01*
X29546563Y31302075D01*
X29590021Y31261991D01*
X29658482Y31236988D01*
X29658482Y31227463D01*
X29543388Y31186187D01*
X29486238Y31106813D01*
X29473737Y31046884D01*
X29469570Y30968700D01*
X29138840Y30968700D01*
X29138840Y32094767D01*
G37*
G36*
X30055357Y30833762D02*
G01*
X29983523Y30831381D01*
X29917244Y30830588D01*
X29831718Y30833961D01*
X29768813Y30844081D01*
X29694994Y30890119D01*
X29672769Y30982987D01*
X29691026Y31078238D01*
X29751351Y31125069D01*
X29872794Y31138562D01*
X30055357Y31138562D01*
X30055357Y30833762D01*
G37*
G36*
X30055357Y31313188D02*
G01*
X29833107Y31313188D01*
X29740238Y31342556D01*
X29715632Y31441775D01*
X29748176Y31541788D01*
X29795205Y31565203D01*
X29871207Y31578300D01*
X30002969Y31583063D01*
X30055357Y31583063D01*
X30055357Y31313188D01*
G37*
%TO.C,kibuzzard-65E699CF*%
G36*
X55599807Y46898575D02*
G01*
X55479792Y46898575D01*
X55375017Y46903337D01*
X55296912Y46917625D01*
X55205472Y46980490D01*
X55178802Y47106220D01*
X55209282Y47226235D01*
X55311200Y47286242D01*
X55397639Y47299815D01*
X55514082Y47304340D01*
X55599807Y47304340D01*
X55599807Y46898575D01*
G37*
G36*
X54778117Y47687880D02*
G01*
X59501883Y47687880D01*
X59501883Y46038784D01*
X54778117Y46038784D01*
X54778117Y47098600D01*
X54936867Y47098600D01*
X54948536Y46955248D01*
X54983540Y46849045D01*
X55046643Y46774035D01*
X55142607Y46724267D01*
X55227909Y46703630D01*
X55333954Y46691247D01*
X55460742Y46687119D01*
X55599807Y46687119D01*
X55599807Y46214679D01*
X55843648Y46214679D01*
X56106537Y46214679D01*
X56948548Y46214679D01*
X56948548Y47292910D01*
X57234298Y47292910D01*
X57581008Y47292910D01*
X57581008Y46214679D01*
X57824848Y46214679D01*
X57824848Y46561390D01*
X58354438Y46561390D01*
X58365391Y46434707D01*
X58398253Y46340410D01*
X58457069Y46273735D01*
X58545890Y46229920D01*
X58671858Y46205631D01*
X58842118Y46197534D01*
X59017616Y46206583D01*
X59147870Y46233729D01*
X59239548Y46282783D01*
X59299318Y46357555D01*
X59330750Y46463282D01*
X59337418Y46605205D01*
X59099293Y46605205D01*
X59068813Y46482332D01*
X58987850Y46422325D01*
X58919508Y46409466D01*
X58826878Y46405179D01*
X58684955Y46418515D01*
X58613518Y46465187D01*
X58592563Y46559485D01*
X58623043Y46656640D01*
X58723055Y46729982D01*
X58807113Y46764510D01*
X58920223Y46801420D01*
X59061907Y46849283D01*
X59166920Y46897622D01*
X59240977Y46950724D01*
X59289793Y47012875D01*
X59316939Y47088598D01*
X59325988Y47182420D01*
X59315272Y47302435D01*
X59283125Y47391970D01*
X59225499Y47455549D01*
X59138345Y47497697D01*
X59015234Y47521271D01*
X58849738Y47529130D01*
X58687574Y47521033D01*
X58566845Y47496745D01*
X58480882Y47452930D01*
X58423018Y47386255D01*
X58390633Y47291481D01*
X58381108Y47163370D01*
X58623043Y47163370D01*
X58650665Y47259572D01*
X58721150Y47307197D01*
X58857358Y47321485D01*
X58997375Y47308150D01*
X59066908Y47264335D01*
X59087863Y47174800D01*
X59014520Y47076692D01*
X58912364Y47029781D01*
X58752583Y46974775D01*
X58614232Y46924768D01*
X58511600Y46873810D01*
X58438972Y46816898D01*
X58390633Y46749032D01*
X58363486Y46665450D01*
X58354438Y46561390D01*
X57824848Y46561390D01*
X57824848Y47292910D01*
X58171558Y47292910D01*
X58171558Y47510080D01*
X57234298Y47510080D01*
X57234298Y47292910D01*
X56948548Y47292910D01*
X56948548Y47510080D01*
X56144638Y47510080D01*
X56144638Y47300530D01*
X56704708Y47300530D01*
X56704708Y46991920D01*
X56220838Y46991920D01*
X56220838Y46782370D01*
X56704708Y46782370D01*
X56704708Y46424230D01*
X56106537Y46424230D01*
X56106537Y46214679D01*
X55843648Y46214679D01*
X55843648Y47510080D01*
X55546468Y47515795D01*
X55398618Y47511667D01*
X55275111Y47499285D01*
X55175945Y47478647D01*
X55064502Y47428403D01*
X54991160Y47351965D01*
X54950441Y47243856D01*
X54936867Y47098600D01*
X54778117Y47098600D01*
X54778117Y47687880D01*
G37*
%TO.C,kibuzzard-65E69760*%
G36*
X34197568Y43914037D02*
G01*
X34314011Y43896178D01*
X34396402Y43864269D01*
X34451171Y43816168D01*
X34481889Y43748302D01*
X34492129Y43657100D01*
X34481889Y43566137D01*
X34451171Y43498985D01*
X34396402Y43451598D01*
X34314011Y43419928D01*
X34197568Y43402068D01*
X34040643Y43396115D01*
X33878957Y43402068D01*
X33759656Y43419928D01*
X33675836Y43451598D01*
X33620591Y43498985D01*
X33589873Y43566137D01*
X33579633Y43657100D01*
X33589873Y43748302D01*
X33620591Y43816168D01*
X33676074Y43864269D01*
X33760608Y43896178D01*
X33880147Y43914037D01*
X34040643Y43919990D01*
X34197568Y43914037D01*
G37*
G36*
X33211333Y42995430D02*
G01*
X33211333Y43657100D01*
X33370083Y43657100D01*
X33376751Y43535074D01*
X33396753Y43433157D01*
X33430091Y43351348D01*
X33510815Y43259432D01*
X33632973Y43198948D01*
X33741770Y43174077D01*
X33877660Y43159155D01*
X34040643Y43154180D01*
X34201299Y43159155D01*
X34335284Y43174077D01*
X34442598Y43198948D01*
X34563090Y43259432D01*
X34642624Y43351348D01*
X34675432Y43433157D01*
X34695117Y43535074D01*
X34701679Y43657100D01*
X34695117Y43779126D01*
X34675432Y43881044D01*
X34642624Y43962853D01*
X34563090Y44054769D01*
X34442598Y44115253D01*
X34335284Y44140124D01*
X34201299Y44155046D01*
X34040643Y44160020D01*
X33877660Y44155046D01*
X33741770Y44140124D01*
X33632973Y44115253D01*
X33510815Y44054769D01*
X33430091Y43962853D01*
X33396753Y43881044D01*
X33376751Y43779126D01*
X33370083Y43657100D01*
X33211333Y43657100D01*
X33211333Y44266700D01*
X33389133Y44266700D01*
X34684534Y44651510D01*
X34684534Y44950595D01*
X33389133Y45335405D01*
X33389133Y45087755D01*
X34398783Y44805815D01*
X34398783Y44796290D01*
X33389133Y44514350D01*
X33389133Y44266700D01*
X33211333Y44266700D01*
X33211333Y46042160D01*
X33381513Y46042160D01*
X33385535Y45912938D01*
X33397600Y45804670D01*
X33417708Y45717358D01*
X33465333Y45618774D01*
X33535818Y45553528D01*
X33633926Y45517095D01*
X33764418Y45504950D01*
X33917771Y45524953D01*
X34003496Y45592580D01*
X34046358Y45727835D01*
X34063504Y45727835D01*
X34122559Y45608773D01*
X34184947Y45571863D01*
X34280673Y45539240D01*
X34684534Y45430655D01*
X34684534Y45691640D01*
X34297818Y45781175D01*
X34184471Y45849755D01*
X34162325Y45916430D01*
X34154943Y46017395D01*
X34154943Y46139315D01*
X34684534Y46139315D01*
X34684534Y46381250D01*
X33391038Y46381250D01*
X33383418Y46154555D01*
X33381513Y46042160D01*
X33211333Y46042160D01*
X33211333Y46670810D01*
X33389133Y46670810D01*
X33598683Y46670810D01*
X33598683Y47230880D01*
X33907293Y47230880D01*
X33907293Y46747010D01*
X34116843Y46747010D01*
X34116843Y47230880D01*
X34474983Y47230880D01*
X34474983Y46632710D01*
X34684534Y46632710D01*
X34684534Y47474720D01*
X33389133Y47474720D01*
X33389133Y46670810D01*
X33211333Y46670810D01*
X33211333Y48232910D01*
X33370083Y48232910D01*
X33378180Y48070747D01*
X33402468Y47950018D01*
X33446283Y47864055D01*
X33512958Y47806190D01*
X33607732Y47773805D01*
X33735843Y47764280D01*
X33735843Y48006215D01*
X33639641Y48033838D01*
X33592016Y48104323D01*
X33577728Y48240530D01*
X33591063Y48380548D01*
X33634878Y48450080D01*
X33724413Y48471035D01*
X33822521Y48397693D01*
X33869432Y48295537D01*
X33924438Y48135755D01*
X33974445Y47997405D01*
X34025403Y47894773D01*
X34082315Y47822145D01*
X34150181Y47773805D01*
X34233763Y47746659D01*
X34337823Y47737610D01*
X34464506Y47748564D01*
X34558803Y47781425D01*
X34625478Y47840242D01*
X34669293Y47929063D01*
X34693582Y48055031D01*
X34701679Y48225290D01*
X34692630Y48400788D01*
X34665484Y48531043D01*
X34616430Y48622721D01*
X34541658Y48682490D01*
X34435931Y48713923D01*
X34294008Y48720590D01*
X34294008Y48482465D01*
X34416881Y48451985D01*
X34476888Y48371023D01*
X34489747Y48302681D01*
X34494034Y48210050D01*
X34480698Y48068128D01*
X34434026Y47996690D01*
X34339728Y47975735D01*
X34242573Y48006215D01*
X34169231Y48106228D01*
X34134703Y48190286D01*
X34097793Y48303395D01*
X34049930Y48445080D01*
X34001591Y48550093D01*
X33948489Y48624150D01*
X33886338Y48672965D01*
X33810615Y48700112D01*
X33716793Y48709160D01*
X33596778Y48698445D01*
X33507243Y48666298D01*
X33443664Y48608672D01*
X33401516Y48521518D01*
X33377942Y48398407D01*
X33370083Y48232910D01*
X33211333Y48232910D01*
X33211333Y48885055D01*
X34035881Y49434754D01*
X34860429Y48885055D01*
X34860429Y42995430D01*
X33211333Y42995430D01*
G37*
G36*
X33943488Y45893570D02*
G01*
X33902531Y45776413D01*
X33754893Y45744980D01*
X33637736Y45777365D01*
X33598683Y45897380D01*
X33594397Y45989773D01*
X33592968Y46057400D01*
X33594873Y46139315D01*
X33943488Y46139315D01*
X33943488Y45893570D01*
G37*
%TO.C,kibuzzard-65E69079*%
G36*
X30099806Y28297731D02*
G01*
X30027972Y28295350D01*
X29961694Y28294556D01*
X29876167Y28297930D01*
X29813263Y28308050D01*
X29739444Y28354087D01*
X29717219Y28446956D01*
X29735475Y28542206D01*
X29795800Y28589037D01*
X29917244Y28602531D01*
X30099806Y28602531D01*
X30099806Y28297731D01*
G37*
G36*
X30099806Y28777156D02*
G01*
X29877556Y28777156D01*
X29784688Y28806525D01*
X29760081Y28905744D01*
X29792625Y29005756D01*
X29839655Y29029172D01*
X29915656Y29042269D01*
X30047419Y29047031D01*
X30099806Y29047031D01*
X30099806Y28777156D01*
G37*
G36*
X29183290Y29550798D02*
G01*
X31552898Y29550798D01*
X31552898Y27789202D01*
X29183290Y27789202D01*
X29183290Y28432669D01*
X29514019Y28432669D01*
X29524735Y28323131D01*
X29556881Y28242169D01*
X29614230Y28185217D01*
X29700550Y28147713D01*
X29777368Y28132278D01*
X29873411Y28123018D01*
X29988681Y28119931D01*
X30085343Y28121695D01*
X30189059Y28126987D01*
X30259951Y28132631D01*
X30684006Y28132631D01*
X30880856Y28132631D01*
X30880856Y28891456D01*
X30874506Y28989881D01*
X30936419Y28939081D01*
X31222169Y28762869D01*
X31222169Y28972419D01*
X30880856Y29212131D01*
X30684006Y29212131D01*
X30684006Y28132631D01*
X30259951Y28132631D01*
X30299831Y28135806D01*
X30299831Y29215306D01*
X30038409Y29219920D01*
X29926945Y29217070D01*
X29829050Y29208074D01*
X29750556Y29193081D01*
X29662252Y29156767D01*
X29603713Y29101800D01*
X29570971Y29024211D01*
X29560056Y28920031D01*
X29567796Y28828353D01*
X29591013Y28766044D01*
X29634471Y28725959D01*
X29702931Y28700956D01*
X29702931Y28691431D01*
X29587838Y28650156D01*
X29530688Y28570781D01*
X29518186Y28510853D01*
X29514019Y28432669D01*
X29183290Y28432669D01*
X29183290Y29550798D01*
G37*
%TO.C,kibuzzard-65E69A04*%
G36*
X36572065Y46644548D02*
G01*
X39087935Y46644548D01*
X39087935Y44995452D01*
X36572065Y44995452D01*
X36572065Y46466748D01*
X36730815Y46466748D01*
X36885120Y45171347D01*
X37138485Y45171347D01*
X37285170Y46299108D01*
X37292790Y46299108D01*
X37441380Y45171347D01*
X37692840Y45171347D01*
X37734139Y45518058D01*
X37940490Y45518058D01*
X37951444Y45391375D01*
X37984305Y45297078D01*
X38043122Y45230403D01*
X38131943Y45186588D01*
X38257911Y45162299D01*
X38428170Y45154202D01*
X38603668Y45163251D01*
X38733923Y45190397D01*
X38825601Y45239451D01*
X38885370Y45314223D01*
X38916803Y45419950D01*
X38923470Y45561873D01*
X38685345Y45561873D01*
X38654865Y45439000D01*
X38573903Y45378993D01*
X38505561Y45366134D01*
X38412930Y45361847D01*
X38271008Y45375183D01*
X38199570Y45421855D01*
X38178615Y45516153D01*
X38209095Y45613308D01*
X38309108Y45686650D01*
X38393166Y45721178D01*
X38506275Y45758088D01*
X38647959Y45805951D01*
X38752973Y45854290D01*
X38827029Y45907392D01*
X38875845Y45969543D01*
X38902991Y46045266D01*
X38912040Y46139088D01*
X38901324Y46259103D01*
X38869178Y46348638D01*
X38811551Y46412217D01*
X38724398Y46454365D01*
X38601287Y46477939D01*
X38435790Y46485798D01*
X38273627Y46477701D01*
X38152897Y46453413D01*
X38066934Y46409598D01*
X38009070Y46342923D01*
X37976685Y46248149D01*
X37967160Y46120038D01*
X38209095Y46120038D01*
X38236718Y46216240D01*
X38307203Y46263865D01*
X38443410Y46278153D01*
X38583428Y46264818D01*
X38652960Y46221003D01*
X38673915Y46131468D01*
X38600573Y46033360D01*
X38498417Y45986449D01*
X38338635Y45931443D01*
X38200284Y45881436D01*
X38097653Y45830478D01*
X38025024Y45773566D01*
X37976685Y45705700D01*
X37949539Y45622118D01*
X37940490Y45518058D01*
X37734139Y45518058D01*
X37847145Y46466748D01*
X37637595Y46466748D01*
X37563300Y45447573D01*
X37561395Y45447573D01*
X37548060Y45683793D01*
X37426140Y46466748D01*
X37151820Y46466748D01*
X37033710Y45683793D01*
X37018470Y45447573D01*
X37016565Y45447573D01*
X36940365Y46466748D01*
X36730815Y46466748D01*
X36572065Y46466748D01*
X36572065Y46644548D01*
G37*
%TO.C,kibuzzard-65E68D6E*%
G36*
X10001258Y24475560D02*
G01*
X13382104Y24475560D01*
X13382104Y22704440D01*
X10001258Y22704440D01*
X10001258Y23786056D01*
X10331987Y23786056D01*
X10341711Y23666597D01*
X10370881Y23578094D01*
X10423467Y23515586D01*
X10503437Y23474113D01*
X10574522Y23456915D01*
X10662893Y23446596D01*
X10768550Y23443156D01*
X10884437Y23443156D01*
X10884437Y23049456D01*
X11087637Y23049456D01*
X11087637Y23051044D01*
X11281312Y23051044D01*
X12030612Y23051044D01*
X12030612Y23338381D01*
X12227462Y23338381D01*
X12236590Y23232813D01*
X12263975Y23154231D01*
X12312989Y23098669D01*
X12387006Y23062156D01*
X12491979Y23041916D01*
X12633862Y23035169D01*
X12780111Y23042709D01*
X12888656Y23065331D01*
X12965054Y23106209D01*
X13014862Y23168519D01*
X13041056Y23256625D01*
X13046612Y23374894D01*
X12848175Y23374894D01*
X12822775Y23272500D01*
X12755306Y23222494D01*
X12698354Y23211778D01*
X12621162Y23208206D01*
X12502894Y23219319D01*
X12443362Y23258212D01*
X12425900Y23336794D01*
X12451300Y23417756D01*
X12534644Y23478875D01*
X12604692Y23507648D01*
X12698950Y23538406D01*
X12817020Y23578292D01*
X12904531Y23618575D01*
X12966245Y23662827D01*
X13006925Y23714619D01*
X13029547Y23777722D01*
X13037087Y23855906D01*
X13028158Y23955919D01*
X13001369Y24030531D01*
X12953347Y24083514D01*
X12880719Y24118638D01*
X12778126Y24138283D01*
X12640212Y24144831D01*
X12505076Y24138084D01*
X12404469Y24117844D01*
X12332833Y24081331D01*
X12284612Y24025769D01*
X12257625Y23946791D01*
X12249687Y23840031D01*
X12451300Y23840031D01*
X12474319Y23920200D01*
X12533056Y23959888D01*
X12646562Y23971794D01*
X12763244Y23960681D01*
X12821187Y23924169D01*
X12838650Y23849556D01*
X12777531Y23767800D01*
X12692401Y23728708D01*
X12559250Y23682869D01*
X12443958Y23641197D01*
X12358431Y23598731D01*
X12297908Y23551305D01*
X12257625Y23494750D01*
X12235003Y23425098D01*
X12227462Y23338381D01*
X12030612Y23338381D01*
X12030612Y24128956D01*
X11827412Y24128956D01*
X11827412Y23228844D01*
X11281312Y23228844D01*
X11281312Y23051044D01*
X11087637Y23051044D01*
X11087637Y24128956D01*
X10839987Y24133719D01*
X10716780Y24130279D01*
X10613857Y24119960D01*
X10531218Y24102763D01*
X10438350Y24060892D01*
X10377231Y23997194D01*
X10343298Y23907103D01*
X10331987Y23786056D01*
X10001258Y23786056D01*
X10001258Y24475560D01*
G37*
G36*
X10884437Y23619369D02*
G01*
X10784425Y23619369D01*
X10697112Y23623338D01*
X10632025Y23635244D01*
X10555825Y23687631D01*
X10533600Y23792406D01*
X10559000Y23892419D01*
X10643931Y23942425D01*
X10715964Y23953736D01*
X10813000Y23957506D01*
X10884437Y23957506D01*
X10884437Y23619369D01*
G37*
%TO.C,kibuzzard-65E69945*%
G36*
X50011645Y47536316D02*
G01*
X50011645Y47714116D01*
X50170395Y47714116D01*
X50793330Y48083686D01*
X51469605Y47695066D01*
X51469605Y47965576D01*
X51012405Y48213226D01*
X51012405Y48218941D01*
X51469605Y48466591D01*
X51469605Y48737101D01*
X50793330Y48348481D01*
X50170395Y48718051D01*
X50170395Y48451351D01*
X50597115Y48218941D01*
X50597115Y48213226D01*
X50170395Y47984626D01*
X50170395Y47714116D01*
X50011645Y47714116D01*
X50011645Y48895851D01*
X50820000Y49434754D01*
X51628355Y48895851D01*
X51628355Y47536316D01*
X50011645Y47536316D01*
G37*
%TO.C,kibuzzard-65E69089*%
G36*
X56176688Y23470938D02*
G01*
X55929038Y23470938D01*
X56051275Y23924963D01*
X56054451Y23924963D01*
X56176688Y23470938D01*
G37*
G36*
X55271284Y24468417D02*
G01*
X57729792Y24468417D01*
X57729792Y22711583D01*
X55271284Y22711583D01*
X55271284Y23042312D01*
X55602013Y23042312D01*
X55803625Y23042312D01*
X55881413Y23301075D01*
X56224313Y23301075D01*
X56302100Y23042312D01*
X56503713Y23042312D01*
X56632301Y23042312D01*
X57375251Y23042312D01*
X57375251Y23304250D01*
X57275833Y23380252D01*
X57190307Y23446331D01*
X57118671Y23502489D01*
X57060926Y23548725D01*
X56969247Y23626116D01*
X56897413Y23693188D01*
X56856138Y23753513D01*
X56845026Y23826538D01*
X56860107Y23911469D01*
X56911701Y23953538D01*
X57014888Y23966238D01*
X57118869Y23952744D01*
X57173638Y23908294D01*
X57195863Y23820188D01*
X57399063Y23820188D01*
X57385371Y23931114D01*
X57356994Y24013069D01*
X57310163Y24070814D01*
X57241107Y24109113D01*
X57144865Y24130544D01*
X57016476Y24137688D01*
X56887293Y24130742D01*
X56791844Y24109906D01*
X56724574Y24072203D01*
X56679925Y24014656D01*
X56654922Y23933098D01*
X56646588Y23823363D01*
X56652541Y23746766D01*
X56670400Y23685250D01*
X56704929Y23628100D01*
X56760888Y23564600D01*
X56845621Y23484034D01*
X56931544Y23410613D01*
X56996544Y23359989D01*
X57076183Y23301251D01*
X57170463Y23234400D01*
X57170463Y23220112D01*
X56632301Y23220112D01*
X56632301Y23042312D01*
X56503713Y23042312D01*
X56181451Y24121813D01*
X55924275Y24121813D01*
X55602013Y23042312D01*
X55271284Y23042312D01*
X55271284Y24468417D01*
G37*
%TO.C,kibuzzard-65E68E7D*%
G36*
X55288746Y34635560D02*
G01*
X57717092Y34635560D01*
X57717092Y32864440D01*
X55288746Y32864440D01*
X55288746Y33209456D01*
X55619475Y33209456D01*
X55867125Y33209456D01*
X56254475Y34055594D01*
X56259238Y34055594D01*
X56237013Y33830169D01*
X56237013Y33209456D01*
X56432275Y33209456D01*
X56432275Y33990506D01*
X56571975Y33990506D01*
X56768825Y33990506D01*
X56792638Y34075438D01*
X56852169Y34117506D01*
X56964088Y34130206D01*
X57041478Y34121475D01*
X57099025Y34095281D01*
X57139705Y34048450D01*
X57166494Y33977806D01*
X57181377Y33878191D01*
X57186338Y33744444D01*
X57180782Y33613673D01*
X57164113Y33516637D01*
X57134546Y33448177D01*
X57090294Y33403131D01*
X57027786Y33378128D01*
X56943450Y33369794D01*
X56845819Y33376938D01*
X56767238Y33401544D01*
X56767238Y33644431D01*
X56991075Y33644431D01*
X56991075Y33817469D01*
X56575150Y33817469D01*
X56575150Y33279306D01*
X56673972Y33238031D01*
X56757713Y33212631D01*
X56841057Y33199534D01*
X56938688Y33195169D01*
X57047167Y33200725D01*
X57137654Y33217394D01*
X57210150Y33245175D01*
X57291708Y33312247D01*
X57345882Y33413450D01*
X57368371Y33503320D01*
X57381865Y33615239D01*
X57386363Y33749206D01*
X57382129Y33884056D01*
X57369429Y33996503D01*
X57348263Y34086550D01*
X57297264Y34187753D01*
X57220469Y34254825D01*
X57152295Y34282606D01*
X57067363Y34299275D01*
X56965675Y34304831D01*
X56834310Y34297688D01*
X56735488Y34276256D01*
X56664249Y34238156D01*
X56615632Y34181006D01*
X56586064Y34100044D01*
X56571975Y33990506D01*
X56432275Y33990506D01*
X56432275Y34288956D01*
X56184625Y34288956D01*
X55797275Y33442819D01*
X55792513Y33442819D01*
X55814738Y33668244D01*
X55814738Y34288956D01*
X55619475Y34288956D01*
X55619475Y33209456D01*
X55288746Y33209456D01*
X55288746Y34635560D01*
G37*
%TO.C,kibuzzard-65E68E4B*%
G36*
X55288746Y37160479D02*
G01*
X57771066Y37160479D01*
X57771066Y35419521D01*
X55288746Y35419521D01*
X55288746Y35750250D01*
X55619475Y35750250D01*
X55806800Y35750250D01*
X55806800Y36296350D01*
X55787750Y36577337D01*
X55794100Y36577337D01*
X55960787Y36110613D01*
X56121125Y36110613D01*
X56287812Y36577337D01*
X56294162Y36577337D01*
X56275112Y36296350D01*
X56275112Y35750250D01*
X56462437Y35750250D01*
X56462437Y36829750D01*
X56549750Y36829750D01*
X56870425Y35750250D01*
X57119662Y35750250D01*
X57440337Y36829750D01*
X57233962Y36829750D01*
X56999012Y35988375D01*
X56991075Y35988375D01*
X56756125Y36829750D01*
X56549750Y36829750D01*
X56462437Y36829750D01*
X56222725Y36829750D01*
X56049687Y36312225D01*
X56032225Y36312225D01*
X55856012Y36829750D01*
X55619475Y36829750D01*
X55619475Y35750250D01*
X55288746Y35750250D01*
X55288746Y37160479D01*
G37*
G36*
X29138840Y37160479D02*
G01*
X31621160Y37160479D01*
X31621160Y35419521D01*
X29138840Y35419521D01*
X29138840Y35750250D01*
X29469569Y35750250D01*
X29656894Y35750250D01*
X29656894Y36296350D01*
X29637844Y36577337D01*
X29644194Y36577337D01*
X29810881Y36110613D01*
X29971219Y36110613D01*
X30137906Y36577337D01*
X30144256Y36577337D01*
X30125206Y36296350D01*
X30125206Y35750250D01*
X30312531Y35750250D01*
X30312531Y36829750D01*
X30399844Y36829750D01*
X30720519Y35750250D01*
X30969756Y35750250D01*
X31290431Y36829750D01*
X31084056Y36829750D01*
X30849106Y35988375D01*
X30841169Y35988375D01*
X30606219Y36829750D01*
X30399844Y36829750D01*
X30312531Y36829750D01*
X30072819Y36829750D01*
X29899781Y36312225D01*
X29882319Y36312225D01*
X29706106Y36829750D01*
X29469569Y36829750D01*
X29469569Y35750250D01*
X29138840Y35750250D01*
X29138840Y37160479D01*
G37*
%TD*%
M02*
